STARTFONT 2.1
COMMENT $XFree86$
COMMENT ISO10646-1 extension by Markus Kuhn <mkuhn@acm.org>, 2001-03-20
COMMENT  (c) Copyright Bigelow & Holmes 1986, 1985. Lucida is a registered
COMMENT  trademark of Bigelow & Holmes. See LEGAL NOTICE file for terms 
COMMENT  of the license. 
FONT -B&H-LucidaBright-Medium-R-Normal--24-240-75-75-P-137-ISO10646-1
SIZE 24 72 72
FONTBOUNDINGBOX 39 35 -15 -10
STARTPROPERTIES 22
COMMENT Begin LogicalFontDescription
FONTNAME_REGISTRY ""
FOUNDRY "B&H"
FAMILY_NAME "LucidaBright"
WEIGHT_NAME "Medium"
SLANT "R"
SETWIDTH_NAME "Normal"
ADD_STYLE_NAME ""
PIXEL_SIZE 24
POINT_SIZE 240
RESOLUTION_X 75
RESOLUTION_Y 75
SPACING "P"
AVERAGE_WIDTH 137
CHARSET_REGISTRY "ISO10646"
CHARSET_ENCODING "1"
COMMENT END LogicalFontDescription
FONT_ASCENT 22
FONT_DESCENT 6
DEFAULT_CHAR 0
COPYRIGHT "Copyright Bigelow & Holmes 1986, 1985."
FACE_NAME "Lucida Bright"
X_HEIGHT 13
CAP_HEIGHT 17
ENDPROPERTIES
CHARS 756
STARTCHAR char0
ENCODING 0
SWIDTH 771 0
DWIDTH 19 0
BBX 17 17 1 0
BITMAP
AAAA80
000000
800080
000000
800080
000000
800080
000000
800080
000000
800080
000000
800080
000000
800080
000000
AAAA80
ENDCHAR
STARTCHAR space
ENCODING 32
SWIDTH 333 0
DWIDTH 7 0
BBX 1 1 0 0
BITMAP
00
ENDCHAR
STARTCHAR exclam
ENCODING 33
SWIDTH 265 0
DWIDTH 6 0
BBX 2 17 2 0
BITMAP
C0
C0
C0
C0
C0
C0
C0
C0
80
80
80
80
00
00
00
C0
C0
ENDCHAR
STARTCHAR quotedbl
ENCODING 34
SWIDTH 386 0
DWIDTH 9 0
BBX 7 5 1 12
BITMAP
C6
C6
C6
44
44
ENDCHAR
STARTCHAR numbersign
ENCODING 35
SWIDTH 608 0
DWIDTH 15 0
BBX 15 17 0 0
BITMAP
0118
0210
0210
0210
0220
7FFE
0420
0440
0440
0840
FFFC
0880
1880
1080
1080
1100
3100
ENDCHAR
STARTCHAR dollar
ENCODING 36
SWIDTH 608 0
DWIDTH 15 0
BBX 10 21 2 -2
BITMAP
0400
0400
1F80
34C0
6440
6440
6400
6400
3400
1C00
0F00
0780
05C0
04C0
04C0
84C0
8480
C580
7E00
0400
0400
ENDCHAR
STARTCHAR percent
ENCODING 37
SWIDTH 675 0
DWIDTH 16 0
BBX 15 17 1 0
BITMAP
3806
440C
8208
8210
8220
8240
44C0
3880
0138
0244
0682
0482
0882
1082
2082
6044
C038
ENDCHAR
STARTCHAR ampersand
ENCODING 38
SWIDTH 690 0
DWIDTH 17 0
BBX 17 17 0 0
BITMAP
07C000
0C6000
183000
183000
183000
1C6000
0EC000
1F0000
638F80
418200
C1C200
C0E200
C07200
E03400
601C00
383E00
1FCF80
ENDCHAR
STARTCHAR quotesingle
ENCODING 39
SWIDTH 241 0
DWIDTH 6 0
BBX 3 5 1 12
BITMAP
E0
E0
E0
40
40
ENDCHAR
STARTCHAR parenleft
ENCODING 40
SWIDTH 316 0
DWIDTH 8 0
BBX 5 21 1 -4
BITMAP
08
10
30
20
60
40
40
C0
C0
C0
C0
C0
C0
C0
40
40
60
20
30
10
08
ENDCHAR
STARTCHAR parenright
ENCODING 41
SWIDTH 316 0
DWIDTH 8 0
BBX 5 21 1 -4
BITMAP
80
40
60
20
30
10
10
18
18
18
18
18
18
18
10
10
30
20
60
40
80
ENDCHAR
STARTCHAR asterisk
ENCODING 42
SWIDTH 470 0
DWIDTH 11 0
BBX 9 8 1 9
BITMAP
0800
0800
8880
F780
0000
1400
6200
2300
ENDCHAR
STARTCHAR plus
ENCODING 43
SWIDTH 608 0
DWIDTH 15 0
BBX 13 14 1 0
BITMAP
0200
0200
0200
0200
0200
0200
0200
FFF8
0200
0200
0200
0200
0200
0200
ENDCHAR
STARTCHAR comma
ENCODING 44
SWIDTH 265 0
DWIDTH 6 0
BBX 3 9 2 -5
BITMAP
E0
E0
E0
E0
60
20
20
40
C0
ENDCHAR
STARTCHAR hyphen
ENCODING 45
SWIDTH 325 0
DWIDTH 8 0
BBX 5 1 1 8
BITMAP
F8
ENDCHAR
STARTCHAR period
ENCODING 46
SWIDTH 265 0
DWIDTH 6 0
BBX 3 2 2 0
BITMAP
E0
E0
ENDCHAR
STARTCHAR slash
ENCODING 47
SWIDTH 512 0
DWIDTH 12 0
BBX 12 21 0 -4
BITMAP
0030
0020
0060
0040
00C0
0080
0180
0100
0300
0200
0600
0400
0C00
0800
1800
1000
3000
2000
6000
4000
C000
ENDCHAR
STARTCHAR zero
ENCODING 48
SWIDTH 608 0
DWIDTH 15 0
BBX 12 17 1 0
BITMAP
0F00
30C0
6060
6060
4020
C030
C030
C030
C030
C030
C030
C030
4020
6060
6060
30C0
0F00
ENDCHAR
STARTCHAR one
ENCODING 49
SWIDTH 608 0
DWIDTH 15 0
BBX 8 17 3 0
BITMAP
F8
18
18
18
18
18
18
18
18
18
18
18
18
18
18
18
FF
ENDCHAR
STARTCHAR two
ENCODING 50
SWIDTH 608 0
DWIDTH 15 0
BBX 10 17 2 0
BITMAP
3E00
C380
81C0
80C0
00C0
00C0
00C0
0180
0300
0600
0800
3000
2000
4000
4000
FFC0
FFC0
ENDCHAR
STARTCHAR three
ENCODING 51
SWIDTH 608 0
DWIDTH 15 0
BBX 10 17 2 0
BITMAP
7E00
C180
80C0
80C0
00C0
00C0
0380
7E00
0300
0180
00C0
00C0
00C0
80C0
8180
C380
FE00
ENDCHAR
STARTCHAR four
ENCODING 52
SWIDTH 608 0
DWIDTH 15 0
BBX 12 17 1 0
BITMAP
00C0
01C0
01C0
02C0
04C0
08C0
18C0
10C0
20C0
40C0
C0C0
FFF0
00C0
00C0
00C0
00C0
03F0
ENDCHAR
STARTCHAR five
ENCODING 53
SWIDTH 608 0
DWIDTH 15 0
BBX 9 17 3 0
BITMAP
FF80
FF80
8000
8000
8000
8000
F800
0E00
0300
0180
0180
0180
0180
8180
8300
C600
FC00
ENDCHAR
STARTCHAR six
ENCODING 54
SWIDTH 608 0
DWIDTH 15 0
BBX 12 17 1 0
BITMAP
0FC0
1060
2020
6020
4000
C000
CF80
D060
E020
C030
C030
C030
4030
6030
6060
30C0
0F80
ENDCHAR
STARTCHAR seven
ENCODING 55
SWIDTH 608 0
DWIDTH 15 0
BBX 11 17 2 0
BITMAP
FFE0
FFE0
0040
00C0
0080
0100
0300
0200
0400
0C00
0800
1800
3000
3000
3000
6000
6000
ENDCHAR
STARTCHAR eight
ENCODING 56
SWIDTH 608 0
DWIDTH 15 0
BBX 12 17 1 0
BITMAP
0FC0
3060
6030
6030
6030
7020
3C40
1F80
3780
61E0
4060
C030
C030
C030
E060
70E0
1F80
ENDCHAR
STARTCHAR nine
ENCODING 57
SWIDTH 608 0
DWIDTH 15 0
BBX 12 17 1 0
BITMAP
1F00
30C0
6060
C060
C020
C030
C030
C030
4070
60B0
1F30
0030
0020
4060
4040
6080
3F00
ENDCHAR
STARTCHAR colon
ENCODING 58
SWIDTH 265 0
DWIDTH 6 0
BBX 2 13 2 0
BITMAP
C0
C0
00
00
00
00
00
00
00
00
00
C0
C0
ENDCHAR
STARTCHAR semicolon
ENCODING 59
SWIDTH 265 0
DWIDTH 6 0
BBX 2 18 2 -5
BITMAP
C0
C0
00
00
00
00
00
00
00
00
00
C0
C0
40
40
40
40
80
ENDCHAR
STARTCHAR less
ENCODING 60
SWIDTH 608 0
DWIDTH 15 0
BBX 14 14 0 0
BITMAP
0004
0018
0070
01C0
0700
1C00
F000
7000
1C00
0700
01C0
0070
001C
0004
ENDCHAR
STARTCHAR equal
ENCODING 61
SWIDTH 608 0
DWIDTH 15 0
BBX 14 6 0 4
BITMAP
FFFC
0000
0000
0000
0000
FFFC
ENDCHAR
STARTCHAR greater
ENCODING 62
SWIDTH 608 0
DWIDTH 15 0
BBX 14 14 0 0
BITMAP
8000
E000
3800
0E00
0380
00E0
0038
003C
00E0
0380
0E00
3800
6000
8000
ENDCHAR
STARTCHAR question
ENCODING 63
SWIDTH 480 0
DWIDTH 12 0
BBX 10 17 1 0
BITMAP
7F00
C380
80C0
80C0
00C0
0080
0180
0200
0400
0800
1800
1800
1800
0000
0000
1800
1800
ENDCHAR
STARTCHAR at
ENCODING 64
SWIDTH 873 0
DWIDTH 21 0
BBX 19 17 1 0
BITMAP
00FC00
030300
0C0080
100040
20FC20
610C20
430820
841820
841820
843840
8450C0
84D180
C31E00
400000
200000
181000
07E000
ENDCHAR
STARTCHAR A
ENCODING 65
SWIDTH 744 0
DWIDTH 18 0
BBX 18 17 0 0
BITMAP
008000
00C000
00C000
01E000
016000
026000
023000
043000
041800
081800
081C00
0FFC00
100E00
100600
200600
600700
F80FC0
ENDCHAR
STARTCHAR B
ENCODING 66
SWIDTH 609 0
DWIDTH 15 0
BBX 13 17 0 0
BITMAP
FFC0
30E0
3030
3030
3030
3030
3060
30C0
3FC0
30F0
3030
3018
3018
3018
3038
3070
FFE0
ENDCHAR
STARTCHAR C
ENCODING 67
SWIDTH 695 0
DWIDTH 17 0
BBX 14 17 1 0
BITMAP
07F8
1C1C
3004
6004
6000
C000
C000
C000
C000
C000
C000
C000
6000
6000
3000
1C04
07F8
ENDCHAR
STARTCHAR D
ENCODING 68
SWIDTH 768 0
DWIDTH 18 0
BBX 16 17 1 0
BITMAP
FFE0
3038
300C
3006
3006
3003
3003
3003
3003
3003
3003
3003
3006
3006
300C
3838
FFE0
ENDCHAR
STARTCHAR E
ENCODING 69
SWIDTH 566 0
DWIDTH 14 0
BBX 12 17 1 0
BITMAP
FFE0
3020
3020
3000
3000
3000
3000
3040
3FC0
3040
3000
3000
3000
3000
3010
3010
FFF0
ENDCHAR
STARTCHAR F
ENCODING 70
SWIDTH 548 0
DWIDTH 13 0
BBX 11 17 1 0
BITMAP
FFE0
3020
3020
3000
3000
3000
3000
3040
3FC0
3040
3000
3000
3000
3000
3000
3800
FE00
ENDCHAR
STARTCHAR G
ENCODING 71
SWIDTH 732 0
DWIDTH 18 0
BBX 16 17 1 0
BITMAP
07F0
1C1C
3004
6004
6000
C000
C000
C000
C000
C000
C03F
C00C
600C
600C
300C
1C0C
07F8
ENDCHAR
STARTCHAR H
ENCODING 72
SWIDTH 771 0
DWIDTH 19 0
BBX 17 17 1 0
BITMAP
FC1F80
300600
300600
300600
300600
300600
300600
300600
3FFE00
300600
300600
300600
300600
300600
300600
300600
FC1F80
ENDCHAR
STARTCHAR I
ENCODING 73
SWIDTH 325 0
DWIDTH 8 0
BBX 6 17 1 0
BITMAP
FC
30
30
30
30
30
30
30
30
30
30
30
30
30
30
30
FC
ENDCHAR
STARTCHAR J
ENCODING 74
SWIDTH 422 0
DWIDTH 10 0
BBX 9 21 0 -4
BITMAP
3F80
0E00
0600
0600
0600
0600
0600
0600
0600
0600
0600
0600
0600
0600
0600
0600
0600
8600
8400
8C00
F800
ENDCHAR
STARTCHAR K
ENCODING 75
SWIDTH 708 0
DWIDTH 17 0
BBX 16 17 1 0
BITMAP
FC7E
3018
3030
3040
3080
3100
3200
3400
3E00
3700
3380
31C0
30E0
3070
3038
301C
FC7F
ENDCHAR
STARTCHAR L
ENCODING 76
SWIDTH 557 0
DWIDTH 13 0
BBX 12 17 1 0
BITMAP
FC00
3000
3000
3000
3000
3000
3000
3000
3000
3000
3000
3000
3000
3000
3010
3030
FFF0
ENDCHAR
STARTCHAR M
ENCODING 77
SWIDTH 860 0
DWIDTH 21 0
BBX 19 17 1 0
BITMAP
F801E0
380380
3C0380
2C0780
2C0580
260580
260980
270980
231180
231180
219180
21A180
20E180
20C180
20C180
200180
F807E0
ENDCHAR
STARTCHAR N
ENCODING 78
SWIDTH 751 0
DWIDTH 18 0
BBX 17 17 1 0
BITMAP
F00F80
380200
3C0200
2C0200
2E0200
270200
238200
218200
20C200
20E200
207200
203200
201A00
200E00
200E00
200600
F80200
ENDCHAR
STARTCHAR O
ENCODING 79
SWIDTH 777 0
DWIDTH 19 0
BBX 16 17 1 0
BITMAP
07E0
1C38
300C
6006
6006
C003
C003
C003
C003
C003
C003
C003
6006
6006
300C
1818
07E0
ENDCHAR
STARTCHAR P
ENCODING 80
SWIDTH 573 0
DWIDTH 14 0
BBX 13 17 0 0
BITMAP
FFC0
3070
3018
3018
3018
3018
3018
3030
30E0
3F80
3000
3000
3000
3000
3000
3000
FC00
ENDCHAR
STARTCHAR Q
ENCODING 81
SWIDTH 778 0
DWIDTH 19 0
BBX 19 21 1 -4
BITMAP
07E000
1C3800
300C00
600600
600600
C00300
C00300
C00300
C00300
C00300
C00300
C00300
600600
600600
300C00
181C00
07F000
003000
000C00
000780
0001E0
ENDCHAR
STARTCHAR R
ENCODING 82
SWIDTH 679 0
DWIDTH 16 0
BBX 15 17 1 0
BITMAP
FFC0
3060
3030
3030
3030
3030
3020
3060
30C0
3F80
3180
30C0
30E0
3060
3030
3038
FC1E
ENDCHAR
STARTCHAR S
ENCODING 83
SWIDTH 542 0
DWIDTH 13 0
BBX 10 17 2 0
BITMAP
3F00
6180
C080
C080
C000
E000
7000
3C00
1E00
0780
01C0
00C0
00C0
80C0
8080
C180
7E00
ENDCHAR
STARTCHAR T
ENCODING 84
SWIDTH 663 0
DWIDTH 16 0
BBX 14 17 1 0
BITMAP
FFFC
8304
0300
0300
0300
0300
0300
0300
0300
0300
0300
0300
0300
0300
0300
0300
0FC0
ENDCHAR
STARTCHAR U
ENCODING 85
SWIDTH 719 0
DWIDTH 17 0
BBX 16 17 1 0
BITMAP
FC1F
3004
3004
3004
3004
3004
3004
3004
3004
3004
3004
3004
3004
3004
1808
1C18
07E0
ENDCHAR
STARTCHAR V
ENCODING 86
SWIDTH 699 0
DWIDTH 17 0
BBX 17 17 0 0
BITMAP
FC0F80
300300
300200
180200
180400
0C0400
0C0800
0E0800
060800
061000
031000
032000
01A000
01A000
01C000
00C000
008000
ENDCHAR
STARTCHAR W
ENCODING 87
SWIDTH 925 0
DWIDTH 22 0
BBX 22 17 0 0
BITMAP
FC107C
703018
303010
303810
183820
185820
185C20
184C40
0C8C40
0C8C40
0C8680
070680
070680
070380
060300
020300
020100
ENDCHAR
STARTCHAR X
ENCODING 88
SWIDTH 657 0
DWIDTH 16 0
BBX 16 17 0 0
BITMAP
FE1F
3804
1C08
0C18
0E10
0620
0340
03C0
01C0
02C0
0660
0470
0830
1038
3018
601C
F87F
ENDCHAR
STARTCHAR Y
ENCODING 89
SWIDTH 678 0
DWIDTH 16 0
BBX 16 17 0 0
BITMAP
FE1F
3806
180C
1C08
0C10
0610
0720
0340
01C0
0180
0180
0180
0180
0180
0180
0180
07E0
ENDCHAR
STARTCHAR Z
ENCODING 90
SWIDTH 633 0
DWIDTH 15 0
BBX 12 17 1 0
BITMAP
FFF0
C070
80E0
80C0
01C0
0180
0300
0700
0600
0C00
1C00
1800
3000
7000
6010
E030
FFF0
ENDCHAR
STARTCHAR bracketleft
ENCODING 91
SWIDTH 316 0
DWIDTH 8 0
BBX 5 21 2 -4
BITMAP
F8
C0
C0
C0
C0
C0
C0
C0
C0
C0
C0
C0
C0
C0
C0
C0
C0
C0
C0
C0
F8
ENDCHAR
STARTCHAR backslash
ENCODING 92
SWIDTH 512 0
DWIDTH 12 0
BBX 12 21 0 -4
BITMAP
C000
4000
6000
2000
3000
1000
1800
0800
0C00
0400
0600
0200
0300
0100
0180
0080
00C0
0040
0060
0020
0030
ENDCHAR
STARTCHAR bracketright
ENCODING 93
SWIDTH 316 0
DWIDTH 8 0
BBX 5 21 1 -4
BITMAP
F8
18
18
18
18
18
18
18
18
18
18
18
18
18
18
18
18
18
18
18
F8
ENDCHAR
STARTCHAR asciicircum
ENCODING 94
SWIDTH 608 0
DWIDTH 15 0
BBX 14 14 0 3
BITMAP
0100
0300
0300
0780
0480
0CC0
0840
1860
1020
3030
2010
6018
4008
C00C
ENDCHAR
STARTCHAR underscore
ENCODING 95
SWIDTH 500 0
DWIDTH 12 0
BBX 10 1 1 -2
BITMAP
FFC0
ENDCHAR
STARTCHAR grave
ENCODING 96
SWIDTH 602 0
DWIDTH 14 0
BBX 5 3 4 14
BITMAP
E0
30
18
ENDCHAR
STARTCHAR a
ENCODING 97
SWIDTH 543 0
DWIDTH 13 0
BBX 12 13 1 0
BITMAP
3F00
6180
40C0
00C0
00C0
1FC0
70C0
E0C0
C0C0
C0C0
C0C0
61C0
3E70
ENDCHAR
STARTCHAR b
ENCODING 98
SWIDTH 611 0
DWIDTH 15 0
BBX 13 17 0 0
BITMAP
F000
3000
3000
3000
33C0
3470
3830
3018
3018
3018
3018
3018
3018
3010
3030
3820
27C0
ENDCHAR
STARTCHAR c
ENCODING 99
SWIDTH 509 0
DWIDTH 12 0
BBX 10 13 1 0
BITMAP
0FC0
30C0
6040
6040
C000
C000
C000
C000
C000
6000
6000
3040
0F80
ENDCHAR
STARTCHAR d
ENCODING 100
SWIDTH 642 0
DWIDTH 15 0
BBX 14 17 1 0
BITMAP
00F0
0030
0030
0030
1FB0
30F0
6030
4030
C030
C030
C030
C030
C030
C030
6070
70B0
1F3C
ENDCHAR
STARTCHAR e
ENCODING 101
SWIDTH 530 0
DWIDTH 13 0
BBX 10 13 1 0
BITMAP
1E00
3180
6080
40C0
C0C0
FFC0
C000
C000
C000
6000
6000
3040
0F80
ENDCHAR
STARTCHAR f
ENCODING 102
SWIDTH 404 0
DWIDTH 10 0
BBX 9 19 1 0
BITMAP
0F00
1180
3080
3080
3000
3000
FF00
3000
3000
3000
3000
3000
3000
3000
3000
3000
3000
3800
FE00
ENDCHAR
STARTCHAR g
ENCODING 103
SWIDTH 571 0
DWIDTH 14 0
BBX 13 18 1 -5
BITMAP
1FF8
30C0
70E0
6060
6060
6060
6060
30C0
10C0
3F00
6000
6000
3FE0
4030
C030
C030
6060
3F80
ENDCHAR
STARTCHAR h
ENCODING 104
SWIDTH 633 0
DWIDTH 15 0
BBX 14 17 1 0
BITMAP
F000
3000
3000
3000
33C0
3460
3830
3030
3030
3030
3030
3030
3030
3030
3030
3030
FCFC
ENDCHAR
STARTCHAR i
ENCODING 105
SWIDTH 307 0
DWIDTH 7 0
BBX 6 17 1 0
BITMAP
30
30
00
00
F0
30
30
30
30
30
30
30
30
30
30
30
FC
ENDCHAR
STARTCHAR j
ENCODING 106
SWIDTH 346 0
DWIDTH 8 0
BBX 7 22 0 -5
BITMAP
06
06
00
00
3E
0E
06
06
06
06
06
06
06
06
06
06
06
06
86
86
8C
F8
ENDCHAR
STARTCHAR k
ENCODING 107
SWIDTH 599 0
DWIDTH 14 0
BBX 14 17 0 0
BITMAP
F000
3000
3000
3000
30F8
3020
30C0
3180
3300
3600
3E00
3700
3380
31C0
30E0
3070
FC3C
ENDCHAR
STARTCHAR l
ENCODING 108
SWIDTH 313 0
DWIDTH 8 0
BBX 6 17 1 0
BITMAP
F0
30
30
30
30
30
30
30
30
30
30
30
30
30
30
30
FC
ENDCHAR
STARTCHAR m
ENCODING 109
SWIDTH 946 0
DWIDTH 23 0
BBX 22 13 1 0
BITMAP
F3E3C0
347460
383830
303030
303030
303030
303030
303030
303030
303030
303030
303030
FCFCFC
ENDCHAR
STARTCHAR n
ENCODING 110
SWIDTH 633 0
DWIDTH 15 0
BBX 14 13 1 0
BITMAP
F3C0
3460
3830
3030
3030
3030
3030
3030
3030
3030
3030
3030
FCFC
ENDCHAR
STARTCHAR o
ENCODING 111
SWIDTH 602 0
DWIDTH 14 0
BBX 12 13 1 0
BITMAP
1F80
30C0
6060
6060
C030
C030
C030
C030
C030
6060
6060
30C0
1F80
ENDCHAR
STARTCHAR p
ENCODING 112
SWIDTH 642 0
DWIDTH 15 0
BBX 13 18 1 -5
BITMAP
F3C0
3470
3830
3018
3018
3018
3018
3018
3018
3010
3030
3820
37C0
3000
3000
3000
3000
FC00
ENDCHAR
STARTCHAR q
ENCODING 113
SWIDTH 617 0
DWIDTH 15 0
BBX 14 18 1 -5
BITMAP
1FB0
30F0
6030
4030
C030
C030
C030
C030
C030
C030
6070
70B0
1F30
0030
0030
0030
0030
00FC
ENDCHAR
STARTCHAR r
ENCODING 114
SWIDTH 440 0
DWIDTH 11 0
BBX 9 13 1 0
BITMAP
F780
3C80
3080
3080
3000
3000
3000
3000
3000
3000
3000
3000
FC00
ENDCHAR
STARTCHAR s
ENCODING 115
SWIDTH 504 0
DWIDTH 12 0
BBX 9 13 2 0
BITMAP
3E00
6300
C100
C100
E000
7800
3E00
0F00
0180
8180
8180
C300
7E00
ENDCHAR
STARTCHAR t
ENCODING 116
SWIDTH 392 0
DWIDTH 9 0
BBX 8 16 1 0
BITMAP
30
30
30
FF
30
30
30
30
30
30
30
30
30
30
38
1F
ENDCHAR
STARTCHAR u
ENCODING 117
SWIDTH 633 0
DWIDTH 15 0
BBX 14 13 0 0
BITMAP
F0F0
3030
3030
3030
3030
3030
3030
3030
3030
3030
3030
18F0
0F3C
ENDCHAR
STARTCHAR v
ENCODING 118
SWIDTH 545 0
DWIDTH 13 0
BBX 13 13 0 0
BITMAP
F878
7010
3030
3020
1820
1840
1C40
0C80
0C80
0700
0700
0300
0200
ENDCHAR
STARTCHAR w
ENCODING 119
SWIDTH 795 0
DWIDTH 19 0
BBX 19 13 0 0
BITMAP
FC41E0
706040
306040
30F080
30B080
39B180
191900
191900
1E1E00
0E0E00
0E0E00
0C0400
040400
ENDCHAR
STARTCHAR x
ENCODING 120
SWIDTH 557 0
DWIDTH 13 0
BBX 13 13 0 0
BITMAP
FC78
7030
3860
1840
0C80
0F00
0700
0780
0980
10C0
20E0
6070
F1F8
ENDCHAR
STARTCHAR y
ENCODING 121
SWIDTH 551 0
DWIDTH 13 0
BBX 13 18 0 -5
BITMAP
FC78
7010
3010
3020
1820
1840
1C40
0CC0
0C80
0680
0700
0700
0200
0200
0600
0C00
1C00
3800
ENDCHAR
STARTCHAR z
ENCODING 122
SWIDTH 595 0
DWIDTH 14 0
BBX 11 13 2 0
BITMAP
FFE0
80C0
81C0
0380
0300
0600
0E00
1C00
1800
3000
7020
E020
FFE0
ENDCHAR
STARTCHAR braceleft
ENCODING 123
SWIDTH 343 0
DWIDTH 8 0
BBX 6 21 1 -4
BITMAP
0C
10
20
20
30
30
10
10
10
20
C0
20
10
10
10
30
30
20
20
10
0C
ENDCHAR
STARTCHAR bar
ENCODING 124
SWIDTH 241 0
DWIDTH 6 0
BBX 1 21 2 -4
BITMAP
80
80
80
80
80
80
80
80
80
80
80
80
80
80
80
80
80
80
80
80
80
ENDCHAR
STARTCHAR braceright
ENCODING 125
SWIDTH 343 0
DWIDTH 8 0
BBX 6 21 1 -4
BITMAP
C0
20
10
10
10
30
20
20
20
10
0C
10
20
20
20
30
10
10
10
20
C0
ENDCHAR
STARTCHAR asciitilde
ENCODING 126
SWIDTH 608 0
DWIDTH 15 0
BBX 14 6 0 4
BITMAP
3804
4C04
8204
8104
8088
8070
ENDCHAR
STARTCHAR space
ENCODING 160
SWIDTH 333 0
DWIDTH 7 0
BBX 1 1 0 0
BITMAP
00
ENDCHAR
STARTCHAR exclamdown
ENCODING 161
SWIDTH 265 0
DWIDTH 6 0
BBX 2 18 2 -5
BITMAP
C0
C0
00
00
00
80
80
80
80
80
C0
C0
C0
C0
C0
C0
C0
C0
ENDCHAR
STARTCHAR cent
ENCODING 162
SWIDTH 608 0
DWIDTH 15 0
BBX 9 17 2 0
BITMAP
0400
0400
0F80
3580
6480
6480
C400
C400
C400
C400
C400
4400
6400
3480
1F80
0400
0400
ENDCHAR
STARTCHAR sterling
ENCODING 163
SWIDTH 608 0
DWIDTH 15 0
BBX 10 17 3 0
BITMAP
0F80
18C0
1040
3040
3000
3000
3000
3000
FF00
3000
3000
3000
3000
2000
6000
C000
FFC0
ENDCHAR
STARTCHAR currency
ENCODING 164
SWIDTH 608 0
DWIDTH 15 0
BBX 15 15 0 1
BITMAP
8002
4004
27C8
1830
1010
2008
2008
2008
2008
3018
1010
1C70
27C8
4004
8002
ENDCHAR
STARTCHAR yen
ENCODING 165
SWIDTH 608 0
DWIDTH 15 0
BBX 16 17 0 0
BITMAP
FE1F
3804
1808
1C08
0E10
0620
0320
03C0
0180
1FF8
0180
0180
1FF8
0180
0180
0180
07E0
ENDCHAR
STARTCHAR brokenbar
ENCODING 166
SWIDTH 241 0
DWIDTH 6 0
BBX 1 21 2 -4
BITMAP
80
80
80
80
80
80
80
80
80
80
00
80
80
80
80
80
80
80
80
80
80
ENDCHAR
STARTCHAR section
ENCODING 167
SWIDTH 608 0
DWIDTH 15 0
BBX 10 22 2 -5
BITMAP
3F00
6180
C080
C080
C000
C000
7000
3C00
4F00
C380
C180
C080
F080
7C80
1F00
0780
01C0
00C0
80C0
80C0
C180
7F00
ENDCHAR
STARTCHAR dieresis
ENCODING 168
SWIDTH 602 0
DWIDTH 14 0
BBX 7 2 4 15
BITMAP
C6
C6
ENDCHAR
STARTCHAR copyright
ENCODING 169
SWIDTH 855 0
DWIDTH 21 0
BBX 18 17 1 0
BITMAP
03F000
0C0C00
300300
200100
41F080
421080
841040
840040
840040
840040
860040
431080
41F080
200100
300300
0C0C00
03F000
ENDCHAR
STARTCHAR ordfeminine
ENCODING 170
SWIDTH 428 0
DWIDTH 10 0
BBX 9 9 1 8
BITMAP
3E00
4300
4300
0300
3F00
E300
C300
C700
7B80
ENDCHAR
STARTCHAR guillemotleft
ENCODING 171
SWIDTH 530 0
DWIDTH 13 0
BBX 10 11 1 1
BITMAP
0840
1880
1180
3300
6200
C600
6200
2100
1180
0880
0840
ENDCHAR
STARTCHAR logicalnot
ENCODING 172
SWIDTH 608 0
DWIDTH 15 0
BBX 14 6 0 4
BITMAP
FFFC
0004
0004
0004
0004
0004
ENDCHAR
STARTCHAR hyphen
ENCODING 173
SWIDTH 325 0
DWIDTH 8 0
BBX 5 1 1 8
BITMAP
F8
ENDCHAR
STARTCHAR registered
ENCODING 174
SWIDTH 608 0
DWIDTH 15 0
BBX 10 10 2 7
BITMAP
1E00
6100
4080
BE40
9240
9240
9C40
7380
2180
1E00
ENDCHAR
STARTCHAR macron
ENCODING 175
SWIDTH 602 0
DWIDTH 14 0
BBX 7 1 4 16
BITMAP
FE
ENDCHAR
STARTCHAR degree
ENCODING 176
SWIDTH 259 0
DWIDTH 6 0
BBX 4 4 1 13
BITMAP
60
90
90
60
ENDCHAR
STARTCHAR plusminus
ENCODING 177
SWIDTH 608 0
DWIDTH 15 0
BBX 13 14 1 0
BITMAP
0200
0200
0200
0200
0200
FFF8
0200
0200
0200
0200
0200
0000
0000
FFF8
ENDCHAR
STARTCHAR twosuperior
ENCODING 178
SWIDTH 365 0
DWIDTH 9 0
BBX 6 10 -14 7
BITMAP
78
8C
84
04
0C
18
20
40
80
FC
ENDCHAR
STARTCHAR threesuperior
ENCODING 179
SWIDTH 365 0
DWIDTH 9 0
BBX 6 10 -14 7
BITMAP
F8
84
84
04
78
0C
04
84
8C
F8
ENDCHAR
STARTCHAR acute
ENCODING 180
SWIDTH 602 0
DWIDTH 14 0
BBX 5 3 5 14
BITMAP
38
60
C0
ENDCHAR
STARTCHAR mu
ENCODING 181
SWIDTH 626 0
DWIDTH 15 0
BBX 14 17 0 -4
BITMAP
F0F0
3030
3030
3030
3030
3030
3030
3030
3030
3030
3030
38F0
3F3C
3000
3000
3000
3000
ENDCHAR
STARTCHAR paragraph
ENCODING 182
SWIDTH 608 0
DWIDTH 15 0
BBX 11 21 1 -4
BITMAP
3FE0
FE20
FE20
FE20
FE20
FE20
7E20
3E20
0620
0220
0220
0220
0220
0220
0220
0220
0220
0220
0220
0220
0220
ENDCHAR
STARTCHAR periodcentered
ENCODING 183
SWIDTH 608 0
DWIDTH 15 0
BBX 2 2 6 7
BITMAP
C0
C0
ENDCHAR
STARTCHAR cedilla
ENCODING 184
SWIDTH 602 0
DWIDTH 14 0
BBX 4 6 6 -5
BITMAP
60
40
20
10
10
E0
ENDCHAR
STARTCHAR onesuperior
ENCODING 185
SWIDTH 365 0
DWIDTH 9 0
BBX 5 10 -15 7
BITMAP
E0
20
20
20
20
20
20
20
20
F8
ENDCHAR
STARTCHAR ordmasculine
ENCODING 186
SWIDTH 428 0
DWIDTH 10 0
BBX 9 9 1 8
BITMAP
3E00
6300
C180
C180
C180
C180
C180
6300
3E00
ENDCHAR
STARTCHAR guillemotright
ENCODING 187
SWIDTH 530 0
DWIDTH 13 0
BBX 10 11 1 1
BITMAP
8400
4400
6200
2100
1180
18C0
1180
3300
6200
4600
8400
ENDCHAR
STARTCHAR onequarter
ENCODING 188
SWIDTH 766 0
DWIDTH 18 0
BBX 16 17 5 0
BITMAP
7006
100C
1008
1010
1020
1040
10C0
1086
1106
7E0A
0612
0C22
0862
107F
2002
6002
C007
ENDCHAR
STARTCHAR onehalf
ENCODING 189
SWIDTH 766 0
DWIDTH 18 0
BBX 16 17 5 0
BITMAP
7006
100C
1008
1010
1020
1040
10C0
109E
1123
7E21
0601
0C03
0806
1008
2010
6020
C03F
ENDCHAR
STARTCHAR threequarters
ENCODING 190
SWIDTH 766 0
DWIDTH 18 0
BBX 16 17 5 0
BITMAP
F806
840C
8408
0410
7820
0C40
04C0
8486
8D06
FA0A
0612
0C22
0862
107F
2002
6002
C007
ENDCHAR
STARTCHAR questiondown
ENCODING 191
SWIDTH 480 0
DWIDTH 12 0
BBX 10 18 1 -5
BITMAP
0600
0600
0000
0000
0000
0600
0600
0600
0C00
1800
3000
6000
4000
C000
C040
C040
70C0
1F80
ENDCHAR
STARTCHAR Agrave
ENCODING 192
SWIDTH 744 0
DWIDTH 18 0
BBX 18 21 0 0
BITMAP
038000
00C000
006000
000000
008000
00C000
00C000
01E000
016000
026000
023000
043000
041800
081800
081C00
0FFC00
100E00
100600
200600
600700
F80FC0
ENDCHAR
STARTCHAR Aacute
ENCODING 193
SWIDTH 744 0
DWIDTH 18 0
BBX 18 21 0 0
BITMAP
007000
00C000
018000
000000
008000
00C000
00C000
01E000
016000
026000
023000
043000
041800
081800
081C00
0FFC00
100E00
100600
200600
600700
F80FC0
ENDCHAR
STARTCHAR Acircumflex
ENCODING 194
SWIDTH 744 0
DWIDTH 18 0
BBX 18 21 0 0
BITMAP
01E000
033000
061800
000000
008000
00C000
00C000
01E000
016000
026000
023000
043000
041800
081800
081C00
0FFC00
100E00
100600
200600
600700
F80FC0
ENDCHAR
STARTCHAR Atilde
ENCODING 195
SWIDTH 744 0
DWIDTH 18 0
BBX 18 20 0 0
BITMAP
03C800
04F000
000000
008000
00C000
00C000
01E000
016000
026000
023000
043000
041800
081800
081C00
0FFC00
100E00
100600
200600
600700
F80FC0
ENDCHAR
STARTCHAR Adieresis
ENCODING 196
SWIDTH 744 0
DWIDTH 18 0
BBX 18 20 0 0
BITMAP
063000
063000
000000
008000
00C000
00C000
01E000
016000
026000
023000
043000
041800
081800
081C00
0FFC00
100E00
100600
200600
600700
F80FC0
ENDCHAR
STARTCHAR Aring
ENCODING 197
SWIDTH 744 0
DWIDTH 18 0
BBX 18 21 0 0
BITMAP
00C000
012000
00C000
000000
008000
00C000
00C000
01E000
016000
026000
023000
043000
041800
081800
081C00
0FFC00
100E00
100600
200600
600700
F80FC0
ENDCHAR
STARTCHAR AE
ENCODING 198
SWIDTH 919 0
DWIDTH 22 0
BBX 21 17 0 0
BITMAP
003FF0
003010
007010
00B000
00B000
013000
013000
023020
063FE0
043020
0C3000
1FF000
103000
303000
203008
603018
F0FFF8
ENDCHAR
STARTCHAR Ccedilla
ENCODING 199
SWIDTH 695 0
DWIDTH 17 0
BBX 14 22 1 -5
BITMAP
07F8
1C1C
3004
6004
6000
C000
C000
C000
C000
C000
C000
C000
6000
6000
3000
1C04
07F8
0200
0100
0080
0080
0700
ENDCHAR
STARTCHAR Egrave
ENCODING 200
SWIDTH 566 0
DWIDTH 14 0
BBX 12 21 1 0
BITMAP
1C00
0600
0300
0000
FFE0
3020
3020
3000
3000
3000
3000
3040
3FC0
3040
3000
3000
3000
3000
3010
3010
FFF0
ENDCHAR
STARTCHAR Eacute
ENCODING 201
SWIDTH 566 0
DWIDTH 14 0
BBX 12 21 1 0
BITMAP
0380
0600
0C00
0000
FFE0
3020
3020
3000
3000
3000
3000
3040
3FC0
3040
3000
3000
3000
3000
3010
3010
FFF0
ENDCHAR
STARTCHAR Ecircumflex
ENCODING 202
SWIDTH 566 0
DWIDTH 14 0
BBX 12 21 1 0
BITMAP
0F00
1980
30C0
0000
FFE0
3020
3020
3000
3000
3000
3000
3040
3FC0
3040
3000
3000
3000
3000
3010
3010
FFF0
ENDCHAR
STARTCHAR Edieresis
ENCODING 203
SWIDTH 566 0
DWIDTH 14 0
BBX 12 20 1 0
BITMAP
18C0
18C0
0000
FFE0
3020
3020
3000
3000
3000
3000
3040
3FC0
3040
3000
3000
3000
3000
3010
3010
FFF0
ENDCHAR
STARTCHAR Igrave
ENCODING 204
SWIDTH 325 0
DWIDTH 8 0
BBX 6 21 1 0
BITMAP
E0
30
18
00
FC
30
30
30
30
30
30
30
30
30
30
30
30
30
30
30
FC
ENDCHAR
STARTCHAR Iacute
ENCODING 205
SWIDTH 325 0
DWIDTH 8 0
BBX 6 21 1 0
BITMAP
1C
30
60
00
FC
30
30
30
30
30
30
30
30
30
30
30
30
30
30
30
FC
ENDCHAR
STARTCHAR Icircumflex
ENCODING 206
SWIDTH 325 0
DWIDTH 8 0
BBX 8 21 2 0
BITMAP
3C
66
C3
00
7E
18
18
18
18
18
18
18
18
18
18
18
18
18
18
18
7E
ENDCHAR
STARTCHAR Idieresis
ENCODING 207
SWIDTH 325 0
DWIDTH 8 0
BBX 7 20 2 0
BITMAP
C6
C6
00
7E
18
18
18
18
18
18
18
18
18
18
18
18
18
18
18
7E
ENDCHAR
STARTCHAR Eth
ENCODING 208
SWIDTH 768 0
DWIDTH 18 0
BBX 16 17 1 0
BITMAP
FFE0
3038
300C
3006
3006
3003
3003
3003
FF03
3003
3003
3003
3006
3006
300C
3838
FFE0
ENDCHAR
STARTCHAR Ntilde
ENCODING 209
SWIDTH 751 0
DWIDTH 18 0
BBX 17 20 1 0
BITMAP
03C800
04F000
000000
F00F80
380200
3C0200
2C0200
2E0200
270200
238200
218200
20C200
20E200
207200
203200
201A00
200E00
200E00
200600
F80200
ENDCHAR
STARTCHAR Ograve
ENCODING 210
SWIDTH 777 0
DWIDTH 19 0
BBX 16 21 1 0
BITMAP
0700
0180
00C0
0000
07E0
1C38
300C
6006
6006
C003
C003
C003
C003
C003
C003
C003
6006
6006
300C
1818
07E0
ENDCHAR
STARTCHAR Oacute
ENCODING 211
SWIDTH 777 0
DWIDTH 19 0
BBX 16 21 1 0
BITMAP
00E0
0180
0300
0000
07E0
1C38
300C
6006
6006
C003
C003
C003
C003
C003
C003
C003
6006
6006
300C
1818
07E0
ENDCHAR
STARTCHAR Ocircumflex
ENCODING 212
SWIDTH 777 0
DWIDTH 19 0
BBX 16 21 1 0
BITMAP
03C0
0660
0C30
0000
07E0
1C38
300C
6006
6006
C003
C003
C003
C003
C003
C003
C003
6006
6006
300C
1818
07E0
ENDCHAR
STARTCHAR Otilde
ENCODING 213
SWIDTH 777 0
DWIDTH 19 0
BBX 16 20 1 0
BITMAP
0790
09E0
0000
07E0
1C38
300C
6006
6006
C003
C003
C003
C003
C003
C003
C003
6006
6006
300C
1818
07E0
ENDCHAR
STARTCHAR Odieresis
ENCODING 214
SWIDTH 777 0
DWIDTH 19 0
BBX 16 20 1 0
BITMAP
0C60
0C60
0000
07E0
1C38
300C
6006
6006
C003
C003
C003
C003
C003
C003
C003
6006
6006
300C
1818
07E0
ENDCHAR
STARTCHAR multiply
ENCODING 215
SWIDTH 608 0
DWIDTH 15 0
BBX 14 14 0 0
BITMAP
8004
4008
2010
1020
0840
0480
0300
0300
0480
0840
1020
2010
4008
8004
ENDCHAR
STARTCHAR Oslash
ENCODING 216
SWIDTH 777 0
DWIDTH 19 0
BBX 16 17 1 0
BITMAP
07E1
183A
300E
6006
600E
C013
C063
C0C3
C183
C303
C603
CC03
7806
7006
700C
5C38
87E0
ENDCHAR
STARTCHAR Ugrave
ENCODING 217
SWIDTH 719 0
DWIDTH 17 0
BBX 16 21 1 0
BITMAP
0700
0180
00C0
0000
FC1F
3004
3004
3004
3004
3004
3004
3004
3004
3004
3004
3004
3004
3004
1808
1C18
07E0
ENDCHAR
STARTCHAR Uacute
ENCODING 218
SWIDTH 719 0
DWIDTH 17 0
BBX 16 21 1 0
BITMAP
00E0
0180
0300
0000
FC1F
3004
3004
3004
3004
3004
3004
3004
3004
3004
3004
3004
3004
3004
1808
1C18
07E0
ENDCHAR
STARTCHAR Ucircumflex
ENCODING 219
SWIDTH 719 0
DWIDTH 17 0
BBX 16 21 1 0
BITMAP
03C0
0660
0C30
0000
FC1F
3004
3004
3004
3004
3004
3004
3004
3004
3004
3004
3004
3004
3004
1808
1C18
07E0
ENDCHAR
STARTCHAR Udieresis
ENCODING 220
SWIDTH 719 0
DWIDTH 17 0
BBX 16 20 1 0
BITMAP
0630
0630
0000
FC1F
3004
3004
3004
3004
3004
3004
3004
3004
3004
3004
3004
3004
3004
1808
1C18
07E0
ENDCHAR
STARTCHAR Yacute
ENCODING 221
SWIDTH 678 0
DWIDTH 16 0
BBX 16 21 0 0
BITMAP
00E0
0180
0300
0000
FE1F
3806
180C
1C08
0C10
0610
0720
0340
01C0
0180
0180
0180
0180
0180
0180
0180
07E0
ENDCHAR
STARTCHAR Thorn
ENCODING 222
SWIDTH 573 0
DWIDTH 14 0
BBX 13 17 0 0
BITMAP
FC00
3000
3000
3000
3FC0
3070
3018
3018
3018
3018
3030
30E0
3F80
3000
3000
3000
FC00
ENDCHAR
STARTCHAR germandbls
ENCODING 223
SWIDTH 614 0
DWIDTH 15 0
BBX 13 19 1 0
BITMAP
0F80
18C0
3060
3060
3060
3040
3080
3100
3100
3180
31C0
30E0
3070
3038
3008
3008
3108
3110
FDE0
ENDCHAR
STARTCHAR agrave
ENCODING 224
SWIDTH 543 0
DWIDTH 13 0
BBX 12 17 1 0
BITMAP
1C00
0600
0300
0000
3F00
6180
40C0
00C0
00C0
1FC0
70C0
E0C0
C0C0
C0C0
C0C0
61C0
3E70
ENDCHAR
STARTCHAR aacute
ENCODING 225
SWIDTH 543 0
DWIDTH 13 0
BBX 12 17 1 0
BITMAP
0380
0600
0C00
0000
3F00
6180
40C0
00C0
00C0
1FC0
70C0
E0C0
C0C0
C0C0
C0C0
61C0
3E70
ENDCHAR
STARTCHAR acircumflex
ENCODING 226
SWIDTH 543 0
DWIDTH 13 0
BBX 12 17 1 0
BITMAP
0F00
1980
30C0
0000
3F00
6180
40C0
00C0
00C0
1FC0
70C0
E0C0
C0C0
C0C0
C0C0
61C0
3E70
ENDCHAR
STARTCHAR atilde
ENCODING 227
SWIDTH 543 0
DWIDTH 13 0
BBX 12 16 1 0
BITMAP
1E40
2780
0000
3F00
6180
40C0
00C0
00C0
1FC0
70C0
E0C0
C0C0
C0C0
C0C0
61C0
3E70
ENDCHAR
STARTCHAR adieresis
ENCODING 228
SWIDTH 543 0
DWIDTH 13 0
BBX 12 16 1 0
BITMAP
3180
3180
0000
3F00
6180
40C0
00C0
00C0
1FC0
70C0
E0C0
C0C0
C0C0
C0C0
61C0
3E70
ENDCHAR
STARTCHAR aring
ENCODING 229
SWIDTH 543 0
DWIDTH 13 0
BBX 12 17 1 0
BITMAP
0600
0900
0600
0000
3F00
6180
40C0
00C0
00C0
1FC0
70C0
E0C0
C0C0
C0C0
C0C0
61C0
3E70
ENDCHAR
STARTCHAR ae
ENCODING 230
SWIDTH 819 0
DWIDTH 20 0
BBX 17 13 1 0
BITMAP
3F3C00
63E300
41C100
018180
018180
1FFF80
718000
E18000
C18000
C1C000
C1C000
626080
3C3F00
ENDCHAR
STARTCHAR ccedilla
ENCODING 231
SWIDTH 509 0
DWIDTH 12 0
BBX 10 18 1 -5
BITMAP
0FC0
30C0
6040
6040
C000
C000
C000
C000
C000
6000
6000
3040
0F80
0800
0400
0200
0200
1C00
ENDCHAR
STARTCHAR egrave
ENCODING 232
SWIDTH 530 0
DWIDTH 13 0
BBX 10 17 1 0
BITMAP
3800
0C00
0600
0000
1E00
3180
6080
40C0
C0C0
FFC0
C000
C000
C000
6000
6000
3040
0F80
ENDCHAR
STARTCHAR eacute
ENCODING 233
SWIDTH 530 0
DWIDTH 13 0
BBX 10 17 1 0
BITMAP
0700
0C00
1800
0000
1E00
3180
6080
40C0
C0C0
FFC0
C000
C000
C000
6000
6000
3040
0F80
ENDCHAR
STARTCHAR ecircumflex
ENCODING 234
SWIDTH 530 0
DWIDTH 13 0
BBX 10 17 1 0
BITMAP
1E00
3300
6180
0000
1E00
3180
6080
40C0
C0C0
FFC0
C000
C000
C000
6000
6000
3040
0F80
ENDCHAR
STARTCHAR edieresis
ENCODING 235
SWIDTH 530 0
DWIDTH 13 0
BBX 10 16 1 0
BITMAP
3180
3180
0000
1E00
3180
6080
40C0
C0C0
FFC0
C000
C000
C000
6000
6000
3040
0F80
ENDCHAR
STARTCHAR igrave
ENCODING 236
SWIDTH 307 0
DWIDTH 7 0
BBX 6 17 1 0
BITMAP
E0
30
18
00
F0
30
30
30
30
30
30
30
30
30
30
30
FC
ENDCHAR
STARTCHAR iacute
ENCODING 237
SWIDTH 307 0
DWIDTH 7 0
BBX 6 17 1 0
BITMAP
1C
30
60
00
F0
30
30
30
30
30
30
30
30
30
30
30
FC
ENDCHAR
STARTCHAR icircumflex
ENCODING 238
SWIDTH 307 0
DWIDTH 7 0
BBX 8 17 2 0
BITMAP
3C
66
C3
00
78
18
18
18
18
18
18
18
18
18
18
18
7E
ENDCHAR
STARTCHAR idieresis
ENCODING 239
SWIDTH 307 0
DWIDTH 7 0
BBX 7 16 2 0
BITMAP
C6
C6
00
78
18
18
18
18
18
18
18
18
18
18
18
7E
ENDCHAR
STARTCHAR eth
ENCODING 240
SWIDTH 596 0
DWIDTH 14 0
BBX 12 17 1 0
BITMAP
FF80
0E00
1F00
6180
0FC0
30C0
6060
6060
C030
C030
C030
C030
C030
6060
6060
30C0
1F80
ENDCHAR
STARTCHAR ntilde
ENCODING 241
SWIDTH 633 0
DWIDTH 15 0
BBX 14 16 1 0
BITMAP
0F20
13C0
0000
F3C0
3460
3830
3030
3030
3030
3030
3030
3030
3030
3030
3030
FCFC
ENDCHAR
STARTCHAR ograve
ENCODING 242
SWIDTH 602 0
DWIDTH 14 0
BBX 12 17 1 0
BITMAP
1C00
0600
0300
0000
1F80
30C0
6060
6060
C030
C030
C030
C030
C030
6060
6060
30C0
1F80
ENDCHAR
STARTCHAR oacute
ENCODING 243
SWIDTH 602 0
DWIDTH 14 0
BBX 12 17 1 0
BITMAP
0380
0600
0C00
0000
1F80
30C0
6060
6060
C030
C030
C030
C030
C030
6060
6060
30C0
1F80
ENDCHAR
STARTCHAR ocircumflex
ENCODING 244
SWIDTH 602 0
DWIDTH 14 0
BBX 12 17 1 0
BITMAP
0F00
1980
30C0
0000
1F80
30C0
6060
6060
C030
C030
C030
C030
C030
6060
6060
30C0
1F80
ENDCHAR
STARTCHAR otilde
ENCODING 245
SWIDTH 602 0
DWIDTH 14 0
BBX 12 16 1 0
BITMAP
1E40
2780
0000
1F80
30C0
6060
6060
C030
C030
C030
C030
C030
6060
6060
30C0
1F80
ENDCHAR
STARTCHAR odieresis
ENCODING 246
SWIDTH 602 0
DWIDTH 14 0
BBX 12 16 1 0
BITMAP
3180
3180
0000
1F80
30C0
6060
6060
C030
C030
C030
C030
C030
6060
6060
30C0
1F80
ENDCHAR
STARTCHAR divide
ENCODING 247
SWIDTH 608 0
DWIDTH 15 0
BBX 14 12 0 1
BITMAP
0300
0300
0000
0000
0000
0000
FFFC
0000
0000
0000
0300
0300
ENDCHAR
STARTCHAR oslash
ENCODING 248
SWIDTH 602 0
DWIDTH 14 0
BBX 12 13 1 0
BITMAP
1F30
30E0
6060
60F0
C1B0
C330
C630
CC30
D830
F060
6060
70C0
9F80
ENDCHAR
STARTCHAR ugrave
ENCODING 249
SWIDTH 633 0
DWIDTH 15 0
BBX 14 17 0 0
BITMAP
0E00
0300
0180
0000
F0F0
3030
3030
3030
3030
3030
3030
3030
3030
3030
3030
18F0
0F3C
ENDCHAR
STARTCHAR uacute
ENCODING 250
SWIDTH 633 0
DWIDTH 15 0
BBX 14 17 0 0
BITMAP
01C0
0300
0600
0000
F0F0
3030
3030
3030
3030
3030
3030
3030
3030
3030
3030
18F0
0F3C
ENDCHAR
STARTCHAR ucircumflex
ENCODING 251
SWIDTH 633 0
DWIDTH 15 0
BBX 14 17 0 0
BITMAP
0780
0CC0
1860
0000
F0F0
3030
3030
3030
3030
3030
3030
3030
3030
3030
3030
18F0
0F3C
ENDCHAR
STARTCHAR udieresis
ENCODING 252
SWIDTH 633 0
DWIDTH 15 0
BBX 14 16 0 0
BITMAP
0C60
0C60
0000
F0F0
3030
3030
3030
3030
3030
3030
3030
3030
3030
3030
18F0
0F3C
ENDCHAR
STARTCHAR yacute
ENCODING 253
SWIDTH 551 0
DWIDTH 13 0
BBX 13 22 0 -5
BITMAP
0380
0600
0C00
0000
FC78
7010
3010
3020
1820
1840
1C40
0CC0
0C80
0680
0700
0700
0200
0200
0600
0C00
1C00
3800
ENDCHAR
STARTCHAR thorn
ENCODING 254
SWIDTH 642 0
DWIDTH 15 0
BBX 13 21 1 -5
BITMAP
F000
3000
3000
33C0
3470
3830
3018
3018
3018
3018
3018
3018
3010
3030
3820
37C0
3000
3000
3000
3000
FC00
ENDCHAR
STARTCHAR ydieresis
ENCODING 255
SWIDTH 551 0
DWIDTH 13 0
BBX 13 21 0 -5
BITMAP
18C0
18C0
0000
FC78
7010
3010
3020
1820
1840
1C40
0CC0
0C80
0680
0700
0700
0200
0200
0600
0C00
1C00
3800
ENDCHAR
STARTCHAR Amacron
ENCODING 256
SWIDTH 744 0
DWIDTH 18 0
BBX 18 19 0 0
BITMAP
03F800
000000
008000
00C000
00C000
01E000
016000
026000
023000
043000
041800
081800
081C00
0FFC00
100E00
100600
200600
600700
F80FC0
ENDCHAR
STARTCHAR amacron
ENCODING 257
SWIDTH 543 0
DWIDTH 13 0
BBX 12 15 1 0
BITMAP
3F80
0000
3F00
6180
40C0
00C0
00C0
1FC0
70C0
E0C0
C0C0
C0C0
C0C0
61C0
3E70
ENDCHAR
STARTCHAR Abreve
ENCODING 258
SWIDTH 744 0
DWIDTH 18 0
BBX 18 21 0 0
BITMAP
040800
03F000
01E000
000000
008000
00C000
00C000
01E000
016000
026000
023000
043000
041800
081800
081C00
0FFC00
100E00
100600
200600
600700
F80FC0
ENDCHAR
STARTCHAR abreve
ENCODING 259
SWIDTH 543 0
DWIDTH 13 0
BBX 12 17 1 0
BITMAP
2040
1F80
0F00
0000
3F00
6180
40C0
00C0
00C0
1FC0
70C0
E0C0
C0C0
C0C0
C0C0
61C0
3E70
ENDCHAR
STARTCHAR Aogonek
ENCODING 260
SWIDTH 744 0
DWIDTH 18 0
BBX 18 21 0 -4
BITMAP
008000
00C000
00C000
01E000
016000
026000
023000
043000
041800
081800
081C00
0FFC00
100E00
100600
200600
600700
F80FC0
000000
006000
00C000
00F000
ENDCHAR
STARTCHAR aogonek
ENCODING 261
SWIDTH 543 0
DWIDTH 13 0
BBX 12 17 1 -4
BITMAP
3F00
6180
40C0
00C0
00C0
1FC0
70C0
E0C0
C0C0
C0C0
C0C0
61C0
3E70
0000
0600
0C00
0F00
ENDCHAR
STARTCHAR Cacute
ENCODING 262
SWIDTH 695 0
DWIDTH 17 0
BBX 14 21 1 0
BITMAP
00E0
0180
0300
0000
07F8
1C1C
3004
6004
6000
C000
C000
C000
C000
C000
C000
C000
6000
6000
3000
1C04
07F8
ENDCHAR
STARTCHAR cacute
ENCODING 263
SWIDTH 509 0
DWIDTH 12 0
BBX 10 17 1 0
BITMAP
0380
0600
0C00
0000
0FC0
30C0
6040
6040
C000
C000
C000
C000
C000
6000
6000
3040
0F80
ENDCHAR
STARTCHAR Ccircumflex
ENCODING 264
SWIDTH 695 0
DWIDTH 17 0
BBX 14 21 1 0
BITMAP
0780
0CC0
1860
0000
07F8
1C1C
3004
6004
6000
C000
C000
C000
C000
C000
C000
C000
6000
6000
3000
1C04
07F8
ENDCHAR
STARTCHAR ccircumflex
ENCODING 265
SWIDTH 509 0
DWIDTH 12 0
BBX 10 17 1 0
BITMAP
0F00
1980
30C0
0000
0FC0
30C0
6040
6040
C000
C000
C000
C000
C000
6000
6000
3040
0F80
ENDCHAR
STARTCHAR Cdotaccent
ENCODING 266
SWIDTH 695 0
DWIDTH 17 0
BBX 14 20 1 0
BITMAP
0300
0300
0000
07F8
1C1C
3004
6004
6000
C000
C000
C000
C000
C000
C000
C000
6000
6000
3000
1C04
07F8
ENDCHAR
STARTCHAR cdotaccent
ENCODING 267
SWIDTH 509 0
DWIDTH 12 0
BBX 10 16 1 0
BITMAP
0600
0600
0000
0FC0
30C0
6040
6040
C000
C000
C000
C000
C000
6000
6000
3040
0F80
ENDCHAR
STARTCHAR Ccaron
ENCODING 268
SWIDTH 695 0
DWIDTH 17 0
BBX 14 21 1 0
BITMAP
1860
0CC0
0780
0000
07F8
1C1C
3004
6004
6000
C000
C000
C000
C000
C000
C000
C000
6000
6000
3000
1C04
07F8
ENDCHAR
STARTCHAR ccaron
ENCODING 269
SWIDTH 509 0
DWIDTH 12 0
BBX 10 17 1 0
BITMAP
30C0
1980
0F00
0000
0FC0
30C0
6040
6040
C000
C000
C000
C000
C000
6000
6000
3040
0F80
ENDCHAR
STARTCHAR Dcaron
ENCODING 270
SWIDTH 768 0
DWIDTH 18 0
BBX 16 21 1 0
BITMAP
1860
0CC0
0780
0000
FFE0
3038
300C
3006
3006
3003
3003
3003
3003
3003
3003
3003
3006
3006
300C
3838
FFE0
ENDCHAR
STARTCHAR dcaron
ENCODING 271
SWIDTH 875 0
DWIDTH 20 0
BBX 18 17 1 0
BITMAP
00F1C0
0031C0
0030C0
003040
1FB180
30F100
603000
403000
C03000
C03000
C03000
C03000
C03000
C03000
607000
70B000
1F3C00
ENDCHAR
STARTCHAR Dcroat
ENCODING 272
SWIDTH 768 0
DWIDTH 18 0
BBX 16 17 1 0
BITMAP
FFE0
3038
300C
3006
3006
3003
3003
3003
FF03
3003
3003
3003
3006
3006
300C
3838
FFE0
ENDCHAR
STARTCHAR dcroat
ENCODING 273
SWIDTH 642 0
DWIDTH 15 0
BBX 14 17 1 0
BITMAP
00F0
0030
01F8
0030
1FB0
30F0
6030
4030
C030
C030
C030
C030
C030
C030
6070
70B0
1F3C
ENDCHAR
STARTCHAR Emacron
ENCODING 274
SWIDTH 566 0
DWIDTH 14 0
BBX 12 19 1 0
BITMAP
3F80
0000
FFE0
3020
3020
3000
3000
3000
3000
3040
3FC0
3040
3000
3000
3000
3000
3010
3010
FFF0
ENDCHAR
STARTCHAR emacron
ENCODING 275
SWIDTH 530 0
DWIDTH 13 0
BBX 10 15 1 0
BITMAP
3F80
0000
1E00
3180
6080
40C0
C0C0
FFC0
C000
C000
C000
6000
6000
3040
0F80
ENDCHAR
STARTCHAR Ebreve
ENCODING 276
SWIDTH 566 0
DWIDTH 14 0
BBX 12 21 1 0
BITMAP
4080
3F00
1E00
0000
FFE0
3020
3020
3000
3000
3000
3000
3040
3FC0
3040
3000
3000
3000
3000
3010
3010
FFF0
ENDCHAR
STARTCHAR ebreve
ENCODING 277
SWIDTH 530 0
DWIDTH 13 0
BBX 10 17 1 0
BITMAP
4080
3F00
1E00
0000
1E00
3180
6080
40C0
C0C0
FFC0
C000
C000
C000
6000
6000
3040
0F80
ENDCHAR
STARTCHAR Edotaccent
ENCODING 278
SWIDTH 566 0
DWIDTH 14 0
BBX 12 20 1 0
BITMAP
0C00
0C00
0000
FFE0
3020
3020
3000
3000
3000
3000
3040
3FC0
3040
3000
3000
3000
3000
3010
3010
FFF0
ENDCHAR
STARTCHAR edotaccent
ENCODING 279
SWIDTH 530 0
DWIDTH 13 0
BBX 10 16 1 0
BITMAP
0C00
0C00
0000
1E00
3180
6080
40C0
C0C0
FFC0
C000
C000
C000
6000
6000
3040
0F80
ENDCHAR
STARTCHAR Eogonek
ENCODING 280
SWIDTH 566 0
DWIDTH 14 0
BBX 12 21 1 -4
BITMAP
FFE0
3020
3020
3000
3000
3000
3000
3040
3FC0
3040
3000
3000
3000
3000
3010
3010
FFF0
0000
0600
0C00
0F00
ENDCHAR
STARTCHAR eogonek
ENCODING 281
SWIDTH 530 0
DWIDTH 13 0
BBX 10 17 1 -4
BITMAP
1E00
3180
6080
40C0
C0C0
FFC0
C000
C000
C000
6000
6000
3040
0F80
0000
0C00
1800
1E00
ENDCHAR
STARTCHAR Ecaron
ENCODING 282
SWIDTH 566 0
DWIDTH 14 0
BBX 12 21 1 0
BITMAP
6180
3300
1E00
0000
FFE0
3020
3020
3000
3000
3000
3000
3040
3FC0
3040
3000
3000
3000
3000
3010
3010
FFF0
ENDCHAR
STARTCHAR ecaron
ENCODING 283
SWIDTH 530 0
DWIDTH 13 0
BBX 10 17 1 0
BITMAP
6180
3300
1E00
0000
1E00
3180
6080
40C0
C0C0
FFC0
C000
C000
C000
6000
6000
3040
0F80
ENDCHAR
STARTCHAR Gcircumflex
ENCODING 284
SWIDTH 732 0
DWIDTH 18 0
BBX 16 21 1 0
BITMAP
0780
0CC0
1860
0000
07F0
1C1C
3004
6004
6000
C000
C000
C000
C000
C000
C03F
C00C
600C
600C
300C
1C0C
07F8
ENDCHAR
STARTCHAR gcircumflex
ENCODING 285
SWIDTH 571 0
DWIDTH 14 0
BBX 13 22 1 -5
BITMAP
0780
0CC0
1860
0000
1FF8
30C0
70E0
6060
6060
6060
6060
30C0
10C0
3F00
6000
6000
3FE0
4030
C030
C030
6060
3F80
ENDCHAR
STARTCHAR Gbreve
ENCODING 286
SWIDTH 732 0
DWIDTH 18 0
BBX 16 21 1 0
BITMAP
1020
0FC0
0780
0000
07F0
1C1C
3004
6004
6000
C000
C000
C000
C000
C000
C03F
C00C
600C
600C
300C
1C0C
07F8
ENDCHAR
STARTCHAR gbreve
ENCODING 287
SWIDTH 571 0
DWIDTH 14 0
BBX 13 22 1 -5
BITMAP
1020
0FC0
0780
0000
1FF8
30C0
70E0
6060
6060
6060
6060
30C0
10C0
3F00
6000
6000
3FE0
4030
C030
C030
6060
3F80
ENDCHAR
STARTCHAR Gdotaccent
ENCODING 288
SWIDTH 732 0
DWIDTH 18 0
BBX 16 20 1 0
BITMAP
0300
0300
0000
07F0
1C1C
3004
6004
6000
C000
C000
C000
C000
C000
C03F
C00C
600C
600C
300C
1C0C
07F8
ENDCHAR
STARTCHAR gdotaccent
ENCODING 289
SWIDTH 571 0
DWIDTH 14 0
BBX 13 21 1 -5
BITMAP
0300
0300
0000
1FF8
30C0
70E0
6060
6060
6060
6060
30C0
10C0
3F00
6000
6000
3FE0
4030
C030
C030
6060
3F80
ENDCHAR
STARTCHAR Gcommaaccent
ENCODING 290
SWIDTH 732 0
DWIDTH 18 0
BBX 16 27 1 -10
BITMAP
07F0
1C1C
3004
6004
6000
C000
C000
C000
C000
C000
C03F
C00C
600C
600C
300C
1C0C
07F8
0000
01C0
01C0
01C0
01C0
00C0
0040
0040
0080
0180
ENDCHAR
STARTCHAR gcommaaccent
ENCODING 291
SWIDTH 571 0
DWIDTH 14 0
BBX 13 25 1 -5
BITMAP
0100
0200
0200
0200
0300
0300
0000
1FF8
30C0
70E0
6060
6060
6060
6060
30C0
10C0
3F00
6000
6000
3FE0
4030
C030
C030
6060
3F80
ENDCHAR
STARTCHAR Hcircumflex
ENCODING 292
SWIDTH 771 0
DWIDTH 19 0
BBX 17 21 1 0
BITMAP
01E000
033000
061800
000000
FC1F80
300600
300600
300600
300600
300600
300600
300600
3FFE00
300600
300600
300600
300600
300600
300600
300600
FC1F80
ENDCHAR
STARTCHAR hcircumflex
ENCODING 293
SWIDTH 633 0
DWIDTH 15 0
BBX 14 21 1 0
BITMAP
1E00
3300
6180
0000
F000
3000
3000
3000
33C0
3460
3830
3030
3030
3030
3030
3030
3030
3030
3030
3030
FCFC
ENDCHAR
STARTCHAR Hbar
ENCODING 294
SWIDTH 771 0
DWIDTH 19 0
BBX 17 17 1 0
BITMAP
FC1F80
300600
300600
FFFF80
300600
300600
300600
300600
3FFE00
300600
300600
300600
300600
300600
300600
300600
FC1F80
ENDCHAR
STARTCHAR hbar
ENCODING 295
SWIDTH 633 0
DWIDTH 15 0
BBX 14 17 1 0
BITMAP
F000
3000
7E00
3000
33C0
3460
3830
3030
3030
3030
3030
3030
3030
3030
3030
3030
FCFC
ENDCHAR
STARTCHAR Itilde
ENCODING 296
SWIDTH 325 0
DWIDTH 8 0
BBX 8 20 0 0
BITMAP
79
9E
00
7E
18
18
18
18
18
18
18
18
18
18
18
18
18
18
18
7E
ENDCHAR
STARTCHAR itilde
ENCODING 297
SWIDTH 307 0
DWIDTH 7 0
BBX 8 16 0 0
BITMAP
79
9E
00
78
18
18
18
18
18
18
18
18
18
18
18
7E
ENDCHAR
STARTCHAR Imacron
ENCODING 298
SWIDTH 325 0
DWIDTH 8 0
BBX 7 19 1 0
BITMAP
FE
00
FC
30
30
30
30
30
30
30
30
30
30
30
30
30
30
30
FC
ENDCHAR
STARTCHAR imacron
ENCODING 299
SWIDTH 307 0
DWIDTH 7 0
BBX 7 15 0 0
BITMAP
FE
00
78
18
18
18
18
18
18
18
18
18
18
18
7E
ENDCHAR
STARTCHAR Ibreve
ENCODING 300
SWIDTH 325 0
DWIDTH 8 0
BBX 8 21 0 0
BITMAP
81
7E
3C
00
7E
18
18
18
18
18
18
18
18
18
18
18
18
18
18
18
7E
ENDCHAR
STARTCHAR ibreve
ENCODING 301
SWIDTH 307 0
DWIDTH 7 0
BBX 8 17 0 0
BITMAP
81
7E
3C
00
78
18
18
18
18
18
18
18
18
18
18
18
7E
ENDCHAR
STARTCHAR Iogonek
ENCODING 302
SWIDTH 325 0
DWIDTH 8 0
BBX 6 21 1 -4
BITMAP
FC
30
30
30
30
30
30
30
30
30
30
30
30
30
30
30
FC
00
30
60
78
ENDCHAR
STARTCHAR iogonek
ENCODING 303
SWIDTH 307 0
DWIDTH 7 0
BBX 6 21 1 -4
BITMAP
30
30
00
00
F0
30
30
30
30
30
30
30
30
30
30
30
FC
00
30
60
78
ENDCHAR
STARTCHAR Idotaccent
ENCODING 304
SWIDTH 325 0
DWIDTH 8 0
BBX 6 20 1 0
BITMAP
30
30
00
FC
30
30
30
30
30
30
30
30
30
30
30
30
30
30
30
FC
ENDCHAR
STARTCHAR dotlessi
ENCODING 305
SWIDTH 307 0
DWIDTH 7 0
BBX 6 13 1 0
BITMAP
F0
30
30
30
30
30
30
30
30
30
30
30
FC
ENDCHAR
STARTCHAR IJ
ENCODING 306
SWIDTH 731 0
DWIDTH 18 0
BBX 16 21 1 -4
BITMAP
FC7F
301C
300C
300C
300C
300C
300C
300C
300C
300C
300C
300C
300C
300C
300C
300C
FC0C
010C
0108
0118
01F0
ENDCHAR
STARTCHAR ij
ENCODING 307
SWIDTH 638 0
DWIDTH 15 0
BBX 13 22 1 -5
BITMAP
3018
3018
0000
0000
F0F8
3038
3018
3018
3018
3018
3018
3018
3018
3018
3018
3018
FC18
0018
0218
0218
0230
03E0
ENDCHAR
STARTCHAR Jcircumflex
ENCODING 308
SWIDTH 422 0
DWIDTH 10 0
BBX 9 25 0 -4
BITMAP
1E00
3300
6180
0000
3F80
0E00
0600
0600
0600
0600
0600
0600
0600
0600
0600
0600
0600
0600
0600
0600
0600
8600
8400
8C00
F800
ENDCHAR
STARTCHAR jcircumflex
ENCODING 309
SWIDTH 346 0
DWIDTH 8 0
BBX 9 22 0 -5
BITMAP
1E00
3300
6180
0000
3E00
0E00
0600
0600
0600
0600
0600
0600
0600
0600
0600
0600
0600
0600
8600
8600
8C00
F800
ENDCHAR
STARTCHAR Kcommaaccent
ENCODING 310
SWIDTH 708 0
DWIDTH 17 0
BBX 16 27 1 -10
BITMAP
FC7E
3018
3030
3040
3080
3100
3200
3400
3E00
3700
3380
31C0
30E0
3070
3038
301C
FC7F
0000
0380
0380
0380
0380
0180
0080
0080
0100
0300
ENDCHAR
STARTCHAR kcommaaccent
ENCODING 311
SWIDTH 599 0
DWIDTH 14 0
BBX 14 27 0 -10
BITMAP
F000
3000
3000
3000
30F8
3020
30C0
3180
3300
3600
3E00
3700
3380
31C0
30E0
3070
FC3C
0000
0700
0700
0700
0700
0300
0100
0100
0200
0600
ENDCHAR
STARTCHAR kgreenlandic
ENCODING 312
SWIDTH 599 0
DWIDTH 14 0
BBX 14 13 0 0
BITMAP
30F8
3020
30C0
3180
3300
3600
3E00
3700
3380
31C0
30E0
3070
FC3C
ENDCHAR
STARTCHAR Lacute
ENCODING 313
SWIDTH 557 0
DWIDTH 13 0
BBX 12 21 1 0
BITMAP
0700
0C00
1800
0000
FC00
3000
3000
3000
3000
3000
3000
3000
3000
3000
3000
3000
3000
3000
3010
3030
FFF0
ENDCHAR
STARTCHAR lacute
ENCODING 314
SWIDTH 313 0
DWIDTH 8 0
BBX 6 21 1 0
BITMAP
1C
30
60
00
F0
30
30
30
30
30
30
30
30
30
30
30
30
30
30
30
FC
ENDCHAR
STARTCHAR Lcommaaccent
ENCODING 315
SWIDTH 557 0
DWIDTH 13 0
BBX 12 27 1 -10
BITMAP
FC00
3000
3000
3000
3000
3000
3000
3000
3000
3000
3000
3000
3000
3000
3010
3030
FFF0
0000
0E00
0E00
0E00
0E00
0600
0200
0200
0400
0C00
ENDCHAR
STARTCHAR lcommaaccent
ENCODING 316
SWIDTH 313 0
DWIDTH 8 0
BBX 6 27 1 -10
BITMAP
F0
30
30
30
30
30
30
30
30
30
30
30
30
30
30
30
FC
00
38
38
38
38
18
08
08
10
30
ENDCHAR
STARTCHAR Lcaron
ENCODING 317
SWIDTH 794 0
DWIDTH 18 0
BBX 16 17 1 0
BITMAP
FC07
3007
3003
3001
3006
3004
3000
3000
3000
3000
3000
3000
3000
3000
3010
3030
FFF0
ENDCHAR
STARTCHAR lcaron
ENCODING 318
SWIDTH 562 0
DWIDTH 14 0
BBX 12 17 1 0
BITMAP
F070
3070
3030
3010
3060
3040
3000
3000
3000
3000
3000
3000
3000
3000
3000
3000
FC00
ENDCHAR
STARTCHAR Ldot
ENCODING 319
SWIDTH 1137 0
DWIDTH 27 0
BBX 19 17 1 0
BITMAP
FC0000
300000
300000
300000
300000
300000
300000
300000
300060
300060
300000
300000
300000
300000
301000
303000
FFF000
ENDCHAR
STARTCHAR ldot
ENCODING 320
SWIDTH 905 0
DWIDTH 23 0
BBX 15 17 1 0
BITMAP
F000
3000
3000
3000
3000
3000
3000
3000
3006
3006
3000
3000
3000
3000
3000
3000
FC00
ENDCHAR
STARTCHAR Lslash
ENCODING 321
SWIDTH 557 0
DWIDTH 13 0
BBX 12 17 1 0
BITMAP
FC00
3000
3000
3000
3000
3000
3200
3C00
3000
F000
B000
3000
3000
3000
3010
3030
FFF0
ENDCHAR
STARTCHAR lslash
ENCODING 322
SWIDTH 313 0
DWIDTH 8 0
BBX 8 17 0 0
BITMAP
F8
18
18
18
18
18
19
1E
18
F8
98
18
18
18
18
18
FF
ENDCHAR
STARTCHAR Nacute
ENCODING 323
SWIDTH 751 0
DWIDTH 18 0
BBX 17 21 1 0
BITMAP
00E000
018000
030000
000000
F00F80
380200
3C0200
2C0200
2E0200
270200
238200
218200
20C200
20E200
207200
203200
201A00
200E00
200E00
200600
F80200
ENDCHAR
STARTCHAR nacute
ENCODING 324
SWIDTH 633 0
DWIDTH 15 0
BBX 14 17 1 0
BITMAP
01C0
0300
0600
0000
F3C0
3460
3830
3030
3030
3030
3030
3030
3030
3030
3030
3030
FCFC
ENDCHAR
STARTCHAR Ncommaaccent
ENCODING 325
SWIDTH 751 0
DWIDTH 18 0
BBX 17 27 1 -10
BITMAP
F00F80
380200
3C0200
2C0200
2E0200
270200
238200
218200
20C200
20E200
207200
203200
201A00
200E00
200E00
200600
F80200
000000
01C000
01C000
01C000
01C000
00C000
004000
004000
008000
018000
ENDCHAR
STARTCHAR ncommaaccent
ENCODING 326
SWIDTH 633 0
DWIDTH 15 0
BBX 14 23 1 -10
BITMAP
F3C0
3460
3830
3030
3030
3030
3030
3030
3030
3030
3030
3030
FCFC
0000
0380
0380
0380
0380
0180
0080
0080
0100
0300
ENDCHAR
STARTCHAR Ncaron
ENCODING 327
SWIDTH 751 0
DWIDTH 18 0
BBX 17 21 1 0
BITMAP
0C3000
066000
03C000
000000
F00F80
380200
3C0200
2C0200
2E0200
270200
238200
218200
20C200
20E200
207200
203200
201A00
200E00
200E00
200600
F80200
ENDCHAR
STARTCHAR ncaron
ENCODING 328
SWIDTH 633 0
DWIDTH 15 0
BBX 14 17 1 0
BITMAP
30C0
1980
0F00
0000
F3C0
3460
3830
3030
3030
3030
3030
3030
3030
3030
3030
3030
FCFC
ENDCHAR
STARTCHAR napostrophe
ENCODING 329
SWIDTH 885 0
DWIDTH 21 0
BBX 19 17 2 0
BITMAP
E00000
E00000
600000
200000
C79E00
81A300
01C180
018180
018180
018180
018180
018180
018180
018180
018180
018180
07E7E0
ENDCHAR
STARTCHAR Eng
ENCODING 330
SWIDTH 751 0
DWIDTH 18 0
BBX 17 22 1 -5
BITMAP
F00F80
380200
3C0200
2C0200
2E0200
270200
238200
218200
20C200
20E200
207200
203600
201E00
200E00
200E00
200600
F80600
000600
008600
008600
008C00
00F800
ENDCHAR
STARTCHAR eng
ENCODING 331
SWIDTH 633 0
DWIDTH 15 0
BBX 12 18 1 -5
BITMAP
F3C0
3460
3830
3030
3030
3030
3030
3030
3030
3030
3030
3030
FC30
0030
0430
0430
0460
07C0
ENDCHAR
STARTCHAR Omacron
ENCODING 332
SWIDTH 777 0
DWIDTH 19 0
BBX 16 19 1 0
BITMAP
07F0
0000
07E0
1C38
300C
6006
6006
C003
C003
C003
C003
C003
C003
C003
6006
6006
300C
1818
07E0
ENDCHAR
STARTCHAR omacron
ENCODING 333
SWIDTH 602 0
DWIDTH 14 0
BBX 12 15 1 0
BITMAP
1FC0
0000
1F80
30C0
6060
6060
C030
C030
C030
C030
C030
6060
6060
30C0
1F80
ENDCHAR
STARTCHAR Obreve
ENCODING 334
SWIDTH 777 0
DWIDTH 19 0
BBX 16 21 1 0
BITMAP
0810
07E0
03C0
0000
07E0
1C38
300C
6006
6006
C003
C003
C003
C003
C003
C003
C003
6006
6006
300C
1818
07E0
ENDCHAR
STARTCHAR obreve
ENCODING 335
SWIDTH 602 0
DWIDTH 14 0
BBX 12 17 1 0
BITMAP
2040
1F80
0F00
0000
1F80
30C0
6060
6060
C030
C030
C030
C030
C030
6060
6060
30C0
1F80
ENDCHAR
STARTCHAR Ohungarumlaut
ENCODING 336
SWIDTH 777 0
DWIDTH 19 0
BBX 16 21 1 0
BITMAP
00D8
0120
0240
0000
07E0
1C38
300C
6006
6006
C003
C003
C003
C003
C003
C003
C003
6006
6006
300C
1818
07E0
ENDCHAR
STARTCHAR ohungarumlaut
ENCODING 337
SWIDTH 602 0
DWIDTH 14 0
BBX 12 17 1 0
BITMAP
0360
0480
0900
0000
1F80
30C0
6060
6060
C030
C030
C030
C030
C030
6060
6060
30C0
1F80
ENDCHAR
STARTCHAR OE
ENCODING 338
SWIDTH 1014 0
DWIDTH 24 0
BBX 24 17 0 0
BITMAP
07E7FE
1C1E06
300E02
600602
600600
C00600
C00600
C00604
C007FC
C00604
C00600
C00600
600600
600601
300E01
1C1E03
07F7FF
ENDCHAR
STARTCHAR oe
ENCODING 339
SWIDTH 908 0
DWIDTH 22 0
BBX 20 13 1 0
BITMAP
0F0780
30DC60
607820
603030
C03030
C03FF0
C03000
C03000
C03000
E03800
607800
70DC10
1F07E0
ENDCHAR
STARTCHAR Racute
ENCODING 340
SWIDTH 679 0
DWIDTH 16 0
BBX 15 21 1 0
BITMAP
01C0
0300
0600
0000
FFC0
3060
3030
3030
3030
3030
3020
3060
30C0
3F80
3180
30C0
30E0
3060
3030
3038
FC1E
ENDCHAR
STARTCHAR racute
ENCODING 341
SWIDTH 440 0
DWIDTH 11 0
BBX 9 17 1 0
BITMAP
0700
0C00
1800
0000
F780
3C80
3080
3080
3000
3000
3000
3000
3000
3000
3000
3000
FC00
ENDCHAR
STARTCHAR Rcommaaccent
ENCODING 342
SWIDTH 679 0
DWIDTH 16 0
BBX 15 27 1 -10
BITMAP
FFC0
3060
3030
3030
3030
3030
3020
3060
30C0
3F80
3180
30C0
30E0
3060
3030
3038
FC1E
0000
0380
0380
0380
0380
0180
0080
0080
0100
0300
ENDCHAR
STARTCHAR rcommaaccent
ENCODING 343
SWIDTH 440 0
DWIDTH 11 0
BBX 9 23 1 -10
BITMAP
F780
3C80
3080
3080
3000
3000
3000
3000
3000
3000
3000
3000
FC00
0000
3800
3800
3800
3800
1800
0800
0800
1000
3000
ENDCHAR
STARTCHAR Rcaron
ENCODING 344
SWIDTH 679 0
DWIDTH 16 0
BBX 15 21 1 0
BITMAP
1860
0CC0
0780
0000
FFC0
3060
3030
3030
3030
3030
3020
3060
30C0
3F80
3180
30C0
30E0
3060
3030
3038
FC1E
ENDCHAR
STARTCHAR rcaron
ENCODING 345
SWIDTH 440 0
DWIDTH 11 0
BBX 9 17 1 0
BITMAP
6180
3300
1E00
0000
F780
3C80
3080
3080
3000
3000
3000
3000
3000
3000
3000
3000
FC00
ENDCHAR
STARTCHAR Sacute
ENCODING 346
SWIDTH 542 0
DWIDTH 13 0
BBX 10 21 2 0
BITMAP
0700
0C00
1800
0000
3F00
6180
C080
C080
C000
E000
7000
3C00
1E00
0780
01C0
00C0
00C0
80C0
8080
C180
7E00
ENDCHAR
STARTCHAR sacute
ENCODING 347
SWIDTH 504 0
DWIDTH 12 0
BBX 9 17 2 0
BITMAP
0700
0C00
1800
0000
3E00
6300
C100
C100
E000
7800
3E00
0F00
0180
8180
8180
C300
7E00
ENDCHAR
STARTCHAR Scircumflex
ENCODING 348
SWIDTH 542 0
DWIDTH 13 0
BBX 10 21 2 0
BITMAP
3C00
6600
C300
0000
3F00
6180
C080
C080
C000
E000
7000
3C00
1E00
0780
01C0
00C0
00C0
80C0
8080
C180
7E00
ENDCHAR
STARTCHAR scircumflex
ENCODING 349
SWIDTH 504 0
DWIDTH 12 0
BBX 9 17 2 0
BITMAP
3C00
6600
C300
0000
3E00
6300
C100
C100
E000
7800
3E00
0F00
0180
8180
8180
C300
7E00
ENDCHAR
STARTCHAR Scedilla
ENCODING 350
SWIDTH 542 0
DWIDTH 13 0
BBX 10 22 2 -5
BITMAP
3F00
6180
C080
C080
C000
E000
7000
3C00
1E00
0780
01C0
00C0
00C0
80C0
8080
C180
7E00
0800
0400
0200
0200
1C00
ENDCHAR
STARTCHAR scedilla
ENCODING 351
SWIDTH 504 0
DWIDTH 12 0
BBX 9 18 2 -5
BITMAP
3E00
6300
C100
C100
E000
7800
3E00
0F00
0180
8180
8180
C300
7E00
0800
0400
0200
0200
1C00
ENDCHAR
STARTCHAR Scaron
ENCODING 352
SWIDTH 542 0
DWIDTH 13 0
BBX 10 21 2 0
BITMAP
6180
3300
1E00
0000
3F00
6180
C080
C080
C000
E000
7000
3C00
1E00
0780
01C0
00C0
00C0
80C0
8080
C180
7E00
ENDCHAR
STARTCHAR scaron
ENCODING 353
SWIDTH 504 0
DWIDTH 12 0
BBX 9 17 2 0
BITMAP
C300
6600
3C00
0000
3E00
6300
C100
C100
E000
7800
3E00
0F00
0180
8180
8180
C300
7E00
ENDCHAR
STARTCHAR Tcommaaccent
ENCODING 354
SWIDTH 663 0
DWIDTH 16 0
BBX 14 22 1 -5
BITMAP
FFFC
8304
0300
0300
0300
0300
0300
0300
0300
0300
0300
0300
0300
0300
0300
0300
0FC0
0200
0100
0080
0080
0700
ENDCHAR
STARTCHAR tcommaaccent
ENCODING 355
SWIDTH 392 0
DWIDTH 9 0
BBX 8 21 1 -5
BITMAP
30
30
30
FF
30
30
30
30
30
30
30
30
30
30
38
1F
10
08
04
04
38
ENDCHAR
STARTCHAR Tcaron
ENCODING 356
SWIDTH 663 0
DWIDTH 16 0
BBX 14 21 1 0
BITMAP
1860
0CC0
0780
0000
FFFC
8304
0300
0300
0300
0300
0300
0300
0300
0300
0300
0300
0300
0300
0300
0300
0FC0
ENDCHAR
STARTCHAR tcaron
ENCODING 357
SWIDTH 637 0
DWIDTH 15 0
BBX 13 17 1 0
BITMAP
0038
3038
3018
3008
FF30
3020
3000
3000
3000
3000
3000
3000
3000
3000
3000
3800
1F00
ENDCHAR
STARTCHAR Tbar
ENCODING 358
SWIDTH 663 0
DWIDTH 16 0
BBX 14 17 1 0
BITMAP
FFFC
8304
0300
0300
0300
0300
0300
0300
0FC0
0300
0300
0300
0300
0300
0300
0300
0FC0
ENDCHAR
STARTCHAR tbar
ENCODING 359
SWIDTH 392 0
DWIDTH 9 0
BBX 8 16 1 0
BITMAP
30
30
30
FF
30
30
30
30
7E
30
30
30
30
30
38
1F
ENDCHAR
STARTCHAR Utilde
ENCODING 360
SWIDTH 719 0
DWIDTH 17 0
BBX 16 20 1 0
BITMAP
0F20
13C0
0000
FC1F
3004
3004
3004
3004
3004
3004
3004
3004
3004
3004
3004
3004
3004
1808
1C18
07E0
ENDCHAR
STARTCHAR utilde
ENCODING 361
SWIDTH 633 0
DWIDTH 15 0
BBX 14 16 0 0
BITMAP
0F20
13C0
0000
F0F0
3030
3030
3030
3030
3030
3030
3030
3030
3030
3030
18F0
0F3C
ENDCHAR
STARTCHAR Umacron
ENCODING 362
SWIDTH 719 0
DWIDTH 17 0
BBX 16 19 1 0
BITMAP
0FE0
0000
FC1F
3004
3004
3004
3004
3004
3004
3004
3004
3004
3004
3004
3004
3004
1808
1C18
07E0
ENDCHAR
STARTCHAR umacron
ENCODING 363
SWIDTH 633 0
DWIDTH 15 0
BBX 14 15 0 0
BITMAP
1FC0
0000
F0F0
3030
3030
3030
3030
3030
3030
3030
3030
3030
3030
18F0
0F3C
ENDCHAR
STARTCHAR Ubreve
ENCODING 364
SWIDTH 719 0
DWIDTH 17 0
BBX 16 21 1 0
BITMAP
1020
0FC0
0780
0000
FC1F
3004
3004
3004
3004
3004
3004
3004
3004
3004
3004
3004
3004
3004
1808
1C18
07E0
ENDCHAR
STARTCHAR ubreve
ENCODING 365
SWIDTH 633 0
DWIDTH 15 0
BBX 14 17 0 0
BITMAP
1020
0FC0
0780
0000
F0F0
3030
3030
3030
3030
3030
3030
3030
3030
3030
3030
18F0
0F3C
ENDCHAR
STARTCHAR Uring
ENCODING 366
SWIDTH 719 0
DWIDTH 17 0
BBX 16 21 1 0
BITMAP
0300
0480
0300
0000
FC1F
3004
3004
3004
3004
3004
3004
3004
3004
3004
3004
3004
3004
3004
1808
1C18
07E0
ENDCHAR
STARTCHAR uring
ENCODING 367
SWIDTH 633 0
DWIDTH 15 0
BBX 14 17 0 0
BITMAP
0300
0480
0300
0000
F0F0
3030
3030
3030
3030
3030
3030
3030
3030
3030
3030
18F0
0F3C
ENDCHAR
STARTCHAR Uhungarumlaut
ENCODING 368
SWIDTH 719 0
DWIDTH 17 0
BBX 16 21 1 0
BITMAP
01B0
0240
0480
0000
FC1F
3004
3004
3004
3004
3004
3004
3004
3004
3004
3004
3004
3004
3004
1808
1C18
07E0
ENDCHAR
STARTCHAR uhungarumlaut
ENCODING 369
SWIDTH 633 0
DWIDTH 15 0
BBX 14 17 0 0
BITMAP
0360
0480
0900
0000
F0F0
3030
3030
3030
3030
3030
3030
3030
3030
3030
3030
18F0
0F3C
ENDCHAR
STARTCHAR Uogonek
ENCODING 370
SWIDTH 719 0
DWIDTH 17 0
BBX 16 21 1 -4
BITMAP
FC1F
3004
3004
3004
3004
3004
3004
3004
3004
3004
3004
3004
3004
3004
1808
1C18
07E0
0000
0180
0300
03C0
ENDCHAR
STARTCHAR uogonek
ENCODING 371
SWIDTH 633 0
DWIDTH 15 0
BBX 14 17 0 -4
BITMAP
F0F0
3030
3030
3030
3030
3030
3030
3030
3030
3030
3030
18F0
0F3C
0000
0180
0300
03C0
ENDCHAR
STARTCHAR Wcircumflex
ENCODING 372
SWIDTH 925 0
DWIDTH 22 0
BBX 22 21 0 0
BITMAP
00F000
019800
030C00
000000
FC107C
703018
303010
303810
183820
185820
185C20
184C40
0C8C40
0C8C40
0C8680
070680
070680
070380
060300
020300
020100
ENDCHAR
STARTCHAR wcircumflex
ENCODING 373
SWIDTH 795 0
DWIDTH 19 0
BBX 19 17 0 0
BITMAP
01E000
033000
061800
000000
FC41E0
706040
306040
30F080
30B080
39B180
191900
191900
1E1E00
0E0E00
0E0E00
0C0400
040400
ENDCHAR
STARTCHAR Ycircumflex
ENCODING 374
SWIDTH 678 0
DWIDTH 16 0
BBX 16 21 0 0
BITMAP
03C0
0660
0C30
0000
FE1F
3806
180C
1C08
0C10
0610
0720
0340
01C0
0180
0180
0180
0180
0180
0180
0180
07E0
ENDCHAR
STARTCHAR ycircumflex
ENCODING 375
SWIDTH 551 0
DWIDTH 13 0
BBX 13 22 0 -5
BITMAP
0F00
1980
30C0
0000
FC78
7010
3010
3020
1820
1840
1C40
0CC0
0C80
0680
0700
0700
0200
0200
0600
0C00
1C00
3800
ENDCHAR
STARTCHAR Ydieresis
ENCODING 376
SWIDTH 678 0
DWIDTH 16 0
BBX 16 20 0 0
BITMAP
0C60
0C60
0000
FE1F
3806
180C
1C08
0C10
0610
0720
0340
01C0
0180
0180
0180
0180
0180
0180
0180
07E0
ENDCHAR
STARTCHAR Zacute
ENCODING 377
SWIDTH 633 0
DWIDTH 15 0
BBX 12 21 1 0
BITMAP
01C0
0300
0600
0000
FFF0
C070
80E0
80C0
01C0
0180
0300
0700
0600
0C00
1C00
1800
3000
7000
6010
E030
FFF0
ENDCHAR
STARTCHAR zacute
ENCODING 378
SWIDTH 595 0
DWIDTH 14 0
BBX 11 17 2 0
BITMAP
0380
0600
0C00
0000
FFE0
80C0
81C0
0380
0300
0600
0E00
1C00
1800
3000
7020
E020
FFE0
ENDCHAR
STARTCHAR Zdotaccent
ENCODING 379
SWIDTH 633 0
DWIDTH 15 0
BBX 12 20 1 0
BITMAP
0600
0600
0000
FFF0
C070
80E0
80C0
01C0
0180
0300
0700
0600
0C00
1C00
1800
3000
7000
6010
E030
FFF0
ENDCHAR
STARTCHAR zdotaccent
ENCODING 380
SWIDTH 595 0
DWIDTH 14 0
BBX 11 16 2 0
BITMAP
0600
0600
0000
FFE0
80C0
81C0
0380
0300
0600
0E00
1C00
1800
3000
7020
E020
FFE0
ENDCHAR
STARTCHAR Zcaron
ENCODING 381
SWIDTH 633 0
DWIDTH 15 0
BBX 12 21 1 0
BITMAP
30C0
1980
0F00
0000
FFF0
C070
80E0
80C0
01C0
0180
0300
0700
0600
0C00
1C00
1800
3000
7000
6010
E030
FFF0
ENDCHAR
STARTCHAR zcaron
ENCODING 382
SWIDTH 595 0
DWIDTH 14 0
BBX 11 17 2 0
BITMAP
6180
3300
1E00
0000
FFE0
80C0
81C0
0380
0300
0600
0E00
1C00
1800
3000
7020
E020
FFE0
ENDCHAR
STARTCHAR uni0186
ENCODING 390
SWIDTH 695 0
DWIDTH 17 0
BBX 14 17 1 0
BITMAP
7F80
80E0
0030
0018
0018
000C
000C
000C
000C
000C
000C
000C
0018
8018
8030
E0E0
7F80
ENDCHAR
STARTCHAR uni0189
ENCODING 393
SWIDTH 768 0
DWIDTH 18 0
BBX 16 17 1 0
BITMAP
FFE0
3038
300C
3006
3006
3003
3003
3003
FF03
3003
3003
3003
3006
3006
300C
3838
FFE0
ENDCHAR
STARTCHAR uni018E
ENCODING 398
SWIDTH 566 0
DWIDTH 14 0
BBX 12 17 1 0
BITMAP
FFF0
80C0
80C0
00C0
00C0
00C0
00C0
20C0
3FC0
20C0
00C0
00C0
00C0
00C0
40C0
40C0
7FF0
ENDCHAR
STARTCHAR florin
ENCODING 402
SWIDTH 608 0
DWIDTH 15 0
BBX 11 21 3 -4
BITMAP
01E0
0220
0420
0C20
0C00
0800
1800
1800
FF00
3800
3000
3000
3000
7000
7000
6000
6000
6000
E000
E000
E000
ENDCHAR
STARTCHAR uni0197
ENCODING 407
SWIDTH 325 0
DWIDTH 8 0
BBX 6 17 1 0
BITMAP
FC
30
30
30
30
30
30
30
FC
30
30
30
30
30
30
30
FC
ENDCHAR
STARTCHAR uni019A
ENCODING 410
SWIDTH 313 0
DWIDTH 8 0
BBX 6 17 1 0
BITMAP
F0
30
30
30
30
30
30
30
FC
30
30
30
30
30
30
30
FC
ENDCHAR
STARTCHAR uni019D
ENCODING 413
SWIDTH 751 0
DWIDTH 18 0
BBX 20 22 -2 -5
BITMAP
1E01F0
070040
078040
058040
05C040
04E040
047040
043040
041840
041C40
040E40
060640
060340
0601C0
0601C0
0600C0
060040
060000
860000
860000
8C0000
F80000
ENDCHAR
STARTCHAR uni019F
ENCODING 415
SWIDTH 777 0
DWIDTH 19 0
BBX 16 17 1 0
BITMAP
07E0
1C38
300C
6006
6006
C003
C003
C003
FFFF
C003
C003
C003
6006
6006
300C
1818
07E0
ENDCHAR
STARTCHAR Ohorn
ENCODING 416
SWIDTH 777 0
DWIDTH 19 0
BBX 18 17 1 0
BITMAP
07E1C0
1C39C0
300CC0
600640
600780
C00300
C00300
C00300
C00300
C00300
C00300
C00300
600600
600600
300C00
181800
07E000
ENDCHAR
STARTCHAR ohorn
ENCODING 417
SWIDTH 602 0
DWIDTH 14 0
BBX 14 13 1 0
BITMAP
1F9C
30DC
606C
6064
C038
C030
C030
C030
C030
6060
6060
30C0
1F80
ENDCHAR
STARTCHAR uni01A7
ENCODING 423
SWIDTH 542 0
DWIDTH 13 0
BBX 10 17 2 0
BITMAP
3F00
6180
40C0
40C0
00C0
01C0
0380
0F00
1E00
7800
E000
C000
C000
C040
4040
60C0
1F80
ENDCHAR
STARTCHAR uni01A8
ENCODING 424
SWIDTH 504 0
DWIDTH 12 0
BBX 9 13 2 0
BITMAP
3E00
6300
4180
4180
0380
0F00
3E00
7800
C000
C080
C080
6180
3F00
ENDCHAR
STARTCHAR uni01AE
ENCODING 430
SWIDTH 663 0
DWIDTH 16 0
BBX 14 22 1 -5
BITMAP
FFFC
8304
0300
0300
0300
0300
0300
0300
0300
0300
0300
0300
0300
0300
0300
0300
0300
0300
0308
0308
0188
00F8
ENDCHAR
STARTCHAR Uhorn
ENCODING 431
SWIDTH 719 0
DWIDTH 17 0
BBX 18 17 1 0
BITMAP
FC1FC0
3005C0
3004C0
300440
300580
300500
300400
300400
300400
300400
300400
300400
300400
300400
180800
1C1800
07E000
ENDCHAR
STARTCHAR uhorn
ENCODING 432
SWIDTH 633 0
DWIDTH 15 0
BBX 16 13 0 0
BITMAP
F0F7
3037
3033
3031
3036
3034
3030
3030
3030
3030
3030
18F0
0F3C
ENDCHAR
STARTCHAR uni01B5
ENCODING 437
SWIDTH 633 0
DWIDTH 15 0
BBX 12 17 1 0
BITMAP
FFF0
C070
80E0
80C0
01C0
0180
0300
0700
1F80
0C00
1C00
1800
3000
7000
6010
E030
FFF0
ENDCHAR
STARTCHAR uni01B6
ENCODING 438
SWIDTH 595 0
DWIDTH 14 0
BBX 11 13 2 0
BITMAP
FFE0
80C0
81C0
0380
0300
0600
1F80
1C00
1800
3000
7020
E020
FFE0
ENDCHAR
STARTCHAR uni01BB
ENCODING 443
SWIDTH 608 0
DWIDTH 15 0
BBX 10 17 2 0
BITMAP
3E00
C380
81C0
80C0
00C0
00C0
00C0
0180
FFC0
0600
0800
3000
2000
4000
4000
FFC0
FFC0
ENDCHAR
STARTCHAR uni01BC
ENCODING 444
SWIDTH 608 0
DWIDTH 15 0
BBX 9 17 3 0
BITMAP
FF80
FF80
8000
8000
8000
8000
F800
0E00
0300
0180
0180
0180
0180
8180
8300
C600
FC00
ENDCHAR
STARTCHAR uni01C0
ENCODING 448
SWIDTH 241 0
DWIDTH 6 0
BBX 1 21 2 -4
BITMAP
80
80
80
80
80
80
80
80
80
80
80
80
80
80
80
80
80
80
80
80
80
ENDCHAR
STARTCHAR uni01C2
ENCODING 450
SWIDTH 608 0
DWIDTH 15 0
BBX 14 21 0 -3
BITMAP
0100
0100
0100
0100
0100
0100
0100
0100
FFFC
0100
0100
0100
0100
FFFC
0100
0100
0100
0100
0100
0100
0100
ENDCHAR
STARTCHAR uni01C3
ENCODING 451
SWIDTH 265 0
DWIDTH 6 0
BBX 2 17 2 0
BITMAP
C0
C0
C0
C0
C0
C0
C0
C0
80
80
80
80
00
00
00
C0
C0
ENDCHAR
STARTCHAR uni01CD
ENCODING 461
SWIDTH 744 0
DWIDTH 18 0
BBX 18 21 0 0
BITMAP
061800
033000
01E000
000000
008000
00C000
00C000
01E000
016000
026000
023000
043000
041800
081800
081C00
0FFC00
100E00
100600
200600
600700
F80FC0
ENDCHAR
STARTCHAR uni01CE
ENCODING 462
SWIDTH 543 0
DWIDTH 13 0
BBX 12 17 1 0
BITMAP
30C0
1980
0F00
0000
3F00
6180
40C0
00C0
00C0
1FC0
70C0
E0C0
C0C0
C0C0
C0C0
61C0
3E70
ENDCHAR
STARTCHAR uni01CF
ENCODING 463
SWIDTH 325 0
DWIDTH 8 0
BBX 8 21 0 0
BITMAP
C3
66
3C
00
7E
18
18
18
18
18
18
18
18
18
18
18
18
18
18
18
7E
ENDCHAR
STARTCHAR uni01D0
ENCODING 464
SWIDTH 307 0
DWIDTH 7 0
BBX 8 17 0 0
BITMAP
C3
66
3C
00
78
18
18
18
18
18
18
18
18
18
18
18
7E
ENDCHAR
STARTCHAR uni01D1
ENCODING 465
SWIDTH 777 0
DWIDTH 19 0
BBX 16 21 1 0
BITMAP
0C30
0660
03C0
0000
07E0
1C38
300C
6006
6006
C003
C003
C003
C003
C003
C003
C003
6006
6006
300C
1818
07E0
ENDCHAR
STARTCHAR uni01D2
ENCODING 466
SWIDTH 602 0
DWIDTH 14 0
BBX 12 17 1 0
BITMAP
30C0
1980
0F00
0000
1F80
30C0
6060
6060
C030
C030
C030
C030
C030
6060
6060
30C0
1F80
ENDCHAR
STARTCHAR uni01D3
ENCODING 467
SWIDTH 719 0
DWIDTH 17 0
BBX 16 21 1 0
BITMAP
1860
0CC0
0780
0000
FC1F
3004
3004
3004
3004
3004
3004
3004
3004
3004
3004
3004
3004
3004
1808
1C18
07E0
ENDCHAR
STARTCHAR uni01D4
ENCODING 468
SWIDTH 633 0
DWIDTH 15 0
BBX 14 17 0 0
BITMAP
1860
0CC0
0780
0000
F0F0
3030
3030
3030
3030
3030
3030
3030
3030
3030
3030
18F0
0F3C
ENDCHAR
STARTCHAR uni01D5
ENCODING 469
SWIDTH 719 0
DWIDTH 17 0
BBX 16 22 1 0
BITMAP
0FE0
0000
0630
0630
0000
FC1F
3004
3004
3004
3004
3004
3004
3004
3004
3004
3004
3004
3004
3004
1808
1C18
07E0
ENDCHAR
STARTCHAR uni01D6
ENCODING 470
SWIDTH 633 0
DWIDTH 15 0
BBX 14 18 0 0
BITMAP
1FC0
0000
0C60
0C60
0000
F0F0
3030
3030
3030
3030
3030
3030
3030
3030
3030
3030
18F0
0F3C
ENDCHAR
STARTCHAR uni01D7
ENCODING 471
SWIDTH 719 0
DWIDTH 17 0
BBX 16 24 1 0
BITMAP
00E0
0180
0300
0000
0630
0630
0000
FC1F
3004
3004
3004
3004
3004
3004
3004
3004
3004
3004
3004
3004
3004
1808
1C18
07E0
ENDCHAR
STARTCHAR uni01D8
ENCODING 472
SWIDTH 633 0
DWIDTH 15 0
BBX 14 20 0 0
BITMAP
01C0
0300
0600
0000
0C60
0C60
0000
F0F0
3030
3030
3030
3030
3030
3030
3030
3030
3030
3030
18F0
0F3C
ENDCHAR
STARTCHAR uni01D9
ENCODING 473
SWIDTH 719 0
DWIDTH 17 0
BBX 16 24 1 0
BITMAP
0C30
0660
03C0
0000
0630
0630
0000
FC1F
3004
3004
3004
3004
3004
3004
3004
3004
3004
3004
3004
3004
3004
1808
1C18
07E0
ENDCHAR
STARTCHAR uni01DA
ENCODING 474
SWIDTH 633 0
DWIDTH 15 0
BBX 14 20 0 0
BITMAP
1860
0CC0
0780
0000
0C60
0C60
0000
F0F0
3030
3030
3030
3030
3030
3030
3030
3030
3030
3030
18F0
0F3C
ENDCHAR
STARTCHAR uni01DB
ENCODING 475
SWIDTH 719 0
DWIDTH 17 0
BBX 16 24 1 0
BITMAP
0E00
0300
0180
0000
0630
0630
0000
FC1F
3004
3004
3004
3004
3004
3004
3004
3004
3004
3004
3004
3004
3004
1808
1C18
07E0
ENDCHAR
STARTCHAR uni01DC
ENCODING 476
SWIDTH 633 0
DWIDTH 15 0
BBX 14 20 0 0
BITMAP
1C00
0600
0300
0000
0C60
0C60
0000
F0F0
3030
3030
3030
3030
3030
3030
3030
3030
3030
3030
18F0
0F3C
ENDCHAR
STARTCHAR uni01DD
ENCODING 477
SWIDTH 530 0
DWIDTH 13 0
BBX 10 13 1 0
BITMAP
7C00
8300
0180
0180
00C0
00C0
00C0
FFC0
C0C0
C080
4180
6300
1E00
ENDCHAR
STARTCHAR uni01DE
ENCODING 478
SWIDTH 744 0
DWIDTH 18 0
BBX 18 22 0 0
BITMAP
07F000
000000
063000
063000
000000
008000
00C000
00C000
01E000
016000
026000
023000
043000
041800
081800
081C00
0FFC00
100E00
100600
200600
600700
F80FC0
ENDCHAR
STARTCHAR uni01DF
ENCODING 479
SWIDTH 543 0
DWIDTH 13 0
BBX 12 18 1 0
BITMAP
3F80
0000
3180
3180
0000
3F00
6180
40C0
00C0
00C0
1FC0
70C0
E0C0
C0C0
C0C0
C0C0
61C0
3E70
ENDCHAR
STARTCHAR uni01E0
ENCODING 480
SWIDTH 744 0
DWIDTH 18 0
BBX 18 22 0 0
BITMAP
07F000
000000
00C000
00C000
000000
008000
00C000
00C000
01E000
016000
026000
023000
043000
041800
081800
081C00
0FFC00
100E00
100600
200600
600700
F80FC0
ENDCHAR
STARTCHAR uni01E1
ENCODING 481
SWIDTH 543 0
DWIDTH 13 0
BBX 12 18 1 0
BITMAP
3F80
0000
0600
0600
0000
3F00
6180
40C0
00C0
00C0
1FC0
70C0
E0C0
C0C0
C0C0
C0C0
61C0
3E70
ENDCHAR
STARTCHAR uni01E2
ENCODING 482
SWIDTH 919 0
DWIDTH 22 0
BBX 21 19 0 0
BITMAP
007F00
000000
003FF0
003010
007010
00B000
00B000
013000
013000
023020
063FE0
043020
0C3000
1FF000
103000
303000
203008
603018
F0FFF8
ENDCHAR
STARTCHAR uni01E3
ENCODING 483
SWIDTH 819 0
DWIDTH 20 0
BBX 17 15 1 0
BITMAP
07F000
000000
3F3C00
63E300
41C100
018180
018180
1FFF80
718000
E18000
C18000
C1C000
C1C000
626080
3C3F00
ENDCHAR
STARTCHAR uni01E4
ENCODING 484
SWIDTH 732 0
DWIDTH 18 0
BBX 16 17 1 0
BITMAP
07F0
1C1C
3004
6004
6000
C000
C000
C000
C000
C000
C03F
C03F
600C
600C
300C
1C0C
07F8
ENDCHAR
STARTCHAR uni01E5
ENCODING 485
SWIDTH 571 0
DWIDTH 14 0
BBX 13 18 1 -5
BITMAP
1FF8
30C0
70E0
6060
6060
6060
6060
30C0
10C0
3F00
6000
6000
3FE0
FFF8
C030
C030
6060
3F80
ENDCHAR
STARTCHAR Gcaron
ENCODING 486
SWIDTH 732 0
DWIDTH 18 0
BBX 16 21 1 0
BITMAP
1860
0CC0
0780
0000
07F0
1C1C
3004
6004
6000
C000
C000
C000
C000
C000
C03F
C00C
600C
600C
300C
1C0C
07F8
ENDCHAR
STARTCHAR gcaron
ENCODING 487
SWIDTH 571 0
DWIDTH 14 0
BBX 13 22 1 -5
BITMAP
1860
0CC0
0780
0000
1FF8
30C0
70E0
6060
6060
6060
6060
30C0
10C0
3F00
6000
6000
3FE0
4030
C030
C030
6060
3F80
ENDCHAR
STARTCHAR uni01E8
ENCODING 488
SWIDTH 708 0
DWIDTH 17 0
BBX 16 21 1 0
BITMAP
1860
0CC0
0780
0000
FC7E
3018
3030
3040
3080
3100
3200
3400
3E00
3700
3380
31C0
30E0
3070
3038
301C
FC7F
ENDCHAR
STARTCHAR uni01E9
ENCODING 489
SWIDTH 599 0
DWIDTH 14 0
BBX 14 21 0 0
BITMAP
30C0
1980
0F00
0000
F000
3000
3000
3000
30F8
3020
30C0
3180
3300
3600
3E00
3700
3380
31C0
30E0
3070
FC3C
ENDCHAR
STARTCHAR uni01EA
ENCODING 490
SWIDTH 777 0
DWIDTH 19 0
BBX 16 21 1 -4
BITMAP
07E0
1C38
300C
6006
6006
C003
C003
C003
C003
C003
C003
C003
6006
6006
300C
1818
07E0
0000
0180
0300
03C0
ENDCHAR
STARTCHAR uni01EB
ENCODING 491
SWIDTH 602 0
DWIDTH 14 0
BBX 12 17 1 -4
BITMAP
1F80
30C0
6060
6060
C030
C030
C030
C030
C030
6060
6060
30C0
1F80
0000
0600
0C00
0F00
ENDCHAR
STARTCHAR uni01EC
ENCODING 492
SWIDTH 777 0
DWIDTH 19 0
BBX 16 23 1 -4
BITMAP
07F0
0000
07E0
1C38
300C
6006
6006
C003
C003
C003
C003
C003
C003
C003
6006
6006
300C
1818
07E0
0000
0180
0300
03C0
ENDCHAR
STARTCHAR uni01ED
ENCODING 493
SWIDTH 602 0
DWIDTH 14 0
BBX 12 19 1 -4
BITMAP
1FC0
0000
1F80
30C0
6060
6060
C030
C030
C030
C030
C030
6060
6060
30C0
1F80
0000
0600
0C00
0F00
ENDCHAR
STARTCHAR uni01F0
ENCODING 496
SWIDTH 346 0
DWIDTH 8 0
BBX 9 22 0 -5
BITMAP
6180
3300
1E00
0000
3E00
0E00
0600
0600
0600
0600
0600
0600
0600
0600
0600
0600
0600
0600
8600
8600
8C00
F800
ENDCHAR
STARTCHAR uni01F4
ENCODING 500
SWIDTH 732 0
DWIDTH 18 0
BBX 16 21 1 0
BITMAP
00E0
0180
0300
0000
07F0
1C1C
3004
6004
6000
C000
C000
C000
C000
C000
C03F
C00C
600C
600C
300C
1C0C
07F8
ENDCHAR
STARTCHAR uni01F5
ENCODING 501
SWIDTH 571 0
DWIDTH 14 0
BBX 13 22 1 -5
BITMAP
01C0
0300
0600
0000
1FF8
30C0
70E0
6060
6060
6060
6060
30C0
10C0
3F00
6000
6000
3FE0
4030
C030
C030
6060
3F80
ENDCHAR
STARTCHAR uni01F8
ENCODING 504
SWIDTH 751 0
DWIDTH 18 0
BBX 17 21 1 0
BITMAP
0E0000
030000
018000
000000
F00F80
380200
3C0200
2C0200
2E0200
270200
238200
218200
20C200
20E200
207200
203200
201A00
200E00
200E00
200600
F80200
ENDCHAR
STARTCHAR uni01F9
ENCODING 505
SWIDTH 633 0
DWIDTH 15 0
BBX 14 17 1 0
BITMAP
1C00
0600
0300
0000
F3C0
3460
3830
3030
3030
3030
3030
3030
3030
3030
3030
3030
FCFC
ENDCHAR
STARTCHAR Aringacute
ENCODING 506
SWIDTH 744 0
DWIDTH 18 0
BBX 18 25 0 0
BITMAP
007000
00C000
018000
000000
00C000
012000
00C000
000000
008000
00C000
00C000
01E000
016000
026000
023000
043000
041800
081800
081C00
0FFC00
100E00
100600
200600
600700
F80FC0
ENDCHAR
STARTCHAR aringacute
ENCODING 507
SWIDTH 543 0
DWIDTH 13 0
BBX 12 21 1 0
BITMAP
0380
0600
0C00
0000
0600
0900
0600
0000
3F00
6180
40C0
00C0
00C0
1FC0
70C0
E0C0
C0C0
C0C0
C0C0
61C0
3E70
ENDCHAR
STARTCHAR AEacute
ENCODING 508
SWIDTH 919 0
DWIDTH 22 0
BBX 21 21 0 0
BITMAP
000700
000C00
001800
000000
003FF0
003010
007010
00B000
00B000
013000
013000
023020
063FE0
043020
0C3000
1FF000
103000
303000
203008
603018
F0FFF8
ENDCHAR
STARTCHAR aeacute
ENCODING 509
SWIDTH 819 0
DWIDTH 20 0
BBX 17 17 1 0
BITMAP
007000
00C000
018000
000000
3F3C00
63E300
41C100
018180
018180
1FFF80
718000
E18000
C18000
C1C000
C1C000
626080
3C3F00
ENDCHAR
STARTCHAR Oslashacute
ENCODING 510
SWIDTH 777 0
DWIDTH 19 0
BBX 16 21 1 0
BITMAP
0070
00C0
0180
0000
07E1
183A
300E
6006
600E
C013
C063
C0C3
C183
C303
C603
CC03
7806
7006
700C
5C38
87E0
ENDCHAR
STARTCHAR oslashacute
ENCODING 511
SWIDTH 602 0
DWIDTH 14 0
BBX 12 17 1 0
BITMAP
01C0
0300
0600
0000
1F30
30E0
6060
60F0
C1B0
C330
C630
CC30
D830
F060
6060
70C0
9F80
ENDCHAR
STARTCHAR uni0200
ENCODING 512
SWIDTH 744 0
DWIDTH 18 0
BBX 18 21 0 0
BITMAP
06C000
012000
009000
000000
008000
00C000
00C000
01E000
016000
026000
023000
043000
041800
081800
081C00
0FFC00
100E00
100600
200600
600700
F80FC0
ENDCHAR
STARTCHAR uni0201
ENCODING 513
SWIDTH 543 0
DWIDTH 13 0
BBX 12 17 1 0
BITMAP
6C00
1200
0900
0000
3F00
6180
40C0
00C0
00C0
1FC0
70C0
E0C0
C0C0
C0C0
C0C0
61C0
3E70
ENDCHAR
STARTCHAR uni0202
ENCODING 514
SWIDTH 744 0
DWIDTH 18 0
BBX 18 21 0 0
BITMAP
01E000
03F000
040800
000000
008000
00C000
00C000
01E000
016000
026000
023000
043000
041800
081800
081C00
0FFC00
100E00
100600
200600
600700
F80FC0
ENDCHAR
STARTCHAR uni0203
ENCODING 515
SWIDTH 543 0
DWIDTH 13 0
BBX 12 17 1 0
BITMAP
0F00
1F80
2040
0000
3F00
6180
40C0
00C0
00C0
1FC0
70C0
E0C0
C0C0
C0C0
C0C0
61C0
3E70
ENDCHAR
STARTCHAR uni0204
ENCODING 516
SWIDTH 566 0
DWIDTH 14 0
BBX 12 21 1 0
BITMAP
6C00
1200
0900
0000
FFE0
3020
3020
3000
3000
3000
3000
3040
3FC0
3040
3000
3000
3000
3000
3010
3010
FFF0
ENDCHAR
STARTCHAR uni0205
ENCODING 517
SWIDTH 530 0
DWIDTH 13 0
BBX 10 17 1 0
BITMAP
6C00
1200
0900
0000
1E00
3180
6080
40C0
C0C0
FFC0
C000
C000
C000
6000
6000
3040
0F80
ENDCHAR
STARTCHAR uni0206
ENCODING 518
SWIDTH 566 0
DWIDTH 14 0
BBX 12 21 1 0
BITMAP
1E00
3F00
4080
0000
FFE0
3020
3020
3000
3000
3000
3000
3040
3FC0
3040
3000
3000
3000
3000
3010
3010
FFF0
ENDCHAR
STARTCHAR uni0207
ENCODING 519
SWIDTH 530 0
DWIDTH 13 0
BBX 10 17 1 0
BITMAP
1E00
3F00
4080
0000
1E00
3180
6080
40C0
C0C0
FFC0
C000
C000
C000
6000
6000
3040
0F80
ENDCHAR
STARTCHAR uni0208
ENCODING 520
SWIDTH 325 0
DWIDTH 8 0
BBX 7 21 0 0
BITMAP
D8
24
12
00
7E
18
18
18
18
18
18
18
18
18
18
18
18
18
18
18
7E
ENDCHAR
STARTCHAR uni0209
ENCODING 521
SWIDTH 307 0
DWIDTH 7 0
BBX 8 17 -1 0
BITMAP
D8
24
12
00
3C
0C
0C
0C
0C
0C
0C
0C
0C
0C
0C
0C
3F
ENDCHAR
STARTCHAR uni020A
ENCODING 522
SWIDTH 325 0
DWIDTH 8 0
BBX 8 21 0 0
BITMAP
3C
7E
81
00
7E
18
18
18
18
18
18
18
18
18
18
18
18
18
18
18
7E
ENDCHAR
STARTCHAR uni020B
ENCODING 523
SWIDTH 307 0
DWIDTH 7 0
BBX 8 17 0 0
BITMAP
3C
7E
81
00
78
18
18
18
18
18
18
18
18
18
18
18
7E
ENDCHAR
STARTCHAR uni020C
ENCODING 524
SWIDTH 777 0
DWIDTH 19 0
BBX 16 21 1 0
BITMAP
0D80
0240
0120
0000
07E0
1C38
300C
6006
6006
C003
C003
C003
C003
C003
C003
C003
6006
6006
300C
1818
07E0
ENDCHAR
STARTCHAR uni020D
ENCODING 525
SWIDTH 602 0
DWIDTH 14 0
BBX 12 17 1 0
BITMAP
3600
0900
0480
0000
1F80
30C0
6060
6060
C030
C030
C030
C030
C030
6060
6060
30C0
1F80
ENDCHAR
STARTCHAR uni020E
ENCODING 526
SWIDTH 777 0
DWIDTH 19 0
BBX 16 21 1 0
BITMAP
03C0
07E0
0810
0000
07E0
1C38
300C
6006
6006
C003
C003
C003
C003
C003
C003
C003
6006
6006
300C
1818
07E0
ENDCHAR
STARTCHAR uni020F
ENCODING 527
SWIDTH 602 0
DWIDTH 14 0
BBX 12 17 1 0
BITMAP
0F00
1F80
2040
0000
1F80
30C0
6060
6060
C030
C030
C030
C030
C030
6060
6060
30C0
1F80
ENDCHAR
STARTCHAR uni0210
ENCODING 528
SWIDTH 679 0
DWIDTH 16 0
BBX 15 21 1 0
BITMAP
3600
0900
0480
0000
FFC0
3060
3030
3030
3030
3030
3020
3060
30C0
3F80
3180
30C0
30E0
3060
3030
3038
FC1E
ENDCHAR
STARTCHAR uni0211
ENCODING 529
SWIDTH 440 0
DWIDTH 11 0
BBX 9 17 1 0
BITMAP
D800
2400
1200
0000
F780
3C80
3080
3080
3000
3000
3000
3000
3000
3000
3000
3000
FC00
ENDCHAR
STARTCHAR uni0212
ENCODING 530
SWIDTH 679 0
DWIDTH 16 0
BBX 15 21 1 0
BITMAP
0780
0FC0
1020
0000
FFC0
3060
3030
3030
3030
3030
3020
3060
30C0
3F80
3180
30C0
30E0
3060
3030
3038
FC1E
ENDCHAR
STARTCHAR uni0213
ENCODING 531
SWIDTH 440 0
DWIDTH 11 0
BBX 9 17 1 0
BITMAP
1E00
3F00
4080
0000
F780
3C80
3080
3080
3000
3000
3000
3000
3000
3000
3000
3000
FC00
ENDCHAR
STARTCHAR uni0214
ENCODING 532
SWIDTH 719 0
DWIDTH 17 0
BBX 16 21 1 0
BITMAP
1B00
0480
0240
0000
FC1F
3004
3004
3004
3004
3004
3004
3004
3004
3004
3004
3004
3004
3004
1808
1C18
07E0
ENDCHAR
STARTCHAR uni0215
ENCODING 533
SWIDTH 633 0
DWIDTH 15 0
BBX 14 17 0 0
BITMAP
3600
0900
0480
0000
F0F0
3030
3030
3030
3030
3030
3030
3030
3030
3030
3030
18F0
0F3C
ENDCHAR
STARTCHAR uni0216
ENCODING 534
SWIDTH 719 0
DWIDTH 17 0
BBX 16 21 1 0
BITMAP
0780
0FC0
1020
0000
FC1F
3004
3004
3004
3004
3004
3004
3004
3004
3004
3004
3004
3004
3004
1808
1C18
07E0
ENDCHAR
STARTCHAR uni0217
ENCODING 535
SWIDTH 633 0
DWIDTH 15 0
BBX 14 17 0 0
BITMAP
0780
0FC0
1020
0000
F0F0
3030
3030
3030
3030
3030
3030
3030
3030
3030
3030
18F0
0F3C
ENDCHAR
STARTCHAR Scommaaccent
ENCODING 536
SWIDTH 542 0
DWIDTH 13 0
BBX 10 27 2 -10
BITMAP
3F00
6180
C080
C080
C000
E000
7000
3C00
1E00
0780
01C0
00C0
00C0
80C0
8080
C180
7E00
0000
0E00
0E00
0E00
0E00
0600
0200
0200
0400
0C00
ENDCHAR
STARTCHAR scommaaccent
ENCODING 537
SWIDTH 504 0
DWIDTH 12 0
BBX 9 23 2 -10
BITMAP
3E00
6300
C100
C100
E000
7800
3E00
0F00
0180
8180
8180
C300
7E00
0000
1C00
1C00
1C00
1C00
0C00
0400
0400
0800
1800
ENDCHAR
STARTCHAR Tcommaaccent
ENCODING 538
SWIDTH 663 0
DWIDTH 16 0
BBX 14 27 1 -10
BITMAP
FFFC
8304
0300
0300
0300
0300
0300
0300
0300
0300
0300
0300
0300
0300
0300
0300
0FC0
0000
0380
0380
0380
0380
0180
0080
0080
0100
0300
ENDCHAR
STARTCHAR tcommaaccent
ENCODING 539
SWIDTH 392 0
DWIDTH 9 0
BBX 8 26 1 -10
BITMAP
30
30
30
FF
30
30
30
30
30
30
30
30
30
30
38
1F
00
1C
1C
1C
1C
0C
04
04
08
18
ENDCHAR
STARTCHAR uni021E
ENCODING 542
SWIDTH 771 0
DWIDTH 19 0
BBX 17 21 1 0
BITMAP
061800
033000
01E000
000000
FC1F80
300600
300600
300600
300600
300600
300600
300600
3FFE00
300600
300600
300600
300600
300600
300600
300600
FC1F80
ENDCHAR
STARTCHAR uni021F
ENCODING 543
SWIDTH 633 0
DWIDTH 15 0
BBX 14 21 1 0
BITMAP
6180
3300
1E00
0000
F000
3000
3000
3000
33C0
3460
3830
3030
3030
3030
3030
3030
3030
3030
3030
3030
FCFC
ENDCHAR
STARTCHAR uni0226
ENCODING 550
SWIDTH 744 0
DWIDTH 18 0
BBX 18 20 0 0
BITMAP
00C000
00C000
000000
008000
00C000
00C000
01E000
016000
026000
023000
043000
041800
081800
081C00
0FFC00
100E00
100600
200600
600700
F80FC0
ENDCHAR
STARTCHAR uni0227
ENCODING 551
SWIDTH 543 0
DWIDTH 13 0
BBX 12 16 1 0
BITMAP
0600
0600
0000
3F00
6180
40C0
00C0
00C0
1FC0
70C0
E0C0
C0C0
C0C0
C0C0
61C0
3E70
ENDCHAR
STARTCHAR uni0228
ENCODING 552
SWIDTH 566 0
DWIDTH 14 0
BBX 12 22 1 -5
BITMAP
FFE0
3020
3020
3000
3000
3000
3000
3040
3FC0
3040
3000
3000
3000
3000
3010
3010
FFF0
0400
0200
0100
0100
0E00
ENDCHAR
STARTCHAR uni0229
ENCODING 553
SWIDTH 530 0
DWIDTH 13 0
BBX 10 18 1 -5
BITMAP
1E00
3180
6080
40C0
C0C0
FFC0
C000
C000
C000
6000
6000
3040
0F80
0800
0400
0200
0200
1C00
ENDCHAR
STARTCHAR uni022A
ENCODING 554
SWIDTH 777 0
DWIDTH 19 0
BBX 16 22 1 0
BITMAP
0FE0
0000
0C60
0C60
0000
07E0
1C38
300C
6006
6006
C003
C003
C003
C003
C003
C003
C003
6006
6006
300C
1818
07E0
ENDCHAR
STARTCHAR uni022B
ENCODING 555
SWIDTH 602 0
DWIDTH 14 0
BBX 12 18 1 0
BITMAP
3F80
0000
3180
3180
0000
1F80
30C0
6060
6060
C030
C030
C030
C030
C030
6060
6060
30C0
1F80
ENDCHAR
STARTCHAR uni022C
ENCODING 556
SWIDTH 777 0
DWIDTH 19 0
BBX 16 22 1 0
BITMAP
07F0
0000
0790
09E0
0000
07E0
1C38
300C
6006
6006
C003
C003
C003
C003
C003
C003
C003
6006
6006
300C
1818
07E0
ENDCHAR
STARTCHAR uni022D
ENCODING 557
SWIDTH 602 0
DWIDTH 14 0
BBX 12 18 1 0
BITMAP
1FC0
0000
1E40
2780
0000
1F80
30C0
6060
6060
C030
C030
C030
C030
C030
6060
6060
30C0
1F80
ENDCHAR
STARTCHAR uni022E
ENCODING 558
SWIDTH 777 0
DWIDTH 19 0
BBX 16 20 1 0
BITMAP
0180
0180
0000
07E0
1C38
300C
6006
6006
C003
C003
C003
C003
C003
C003
C003
6006
6006
300C
1818
07E0
ENDCHAR
STARTCHAR uni022F
ENCODING 559
SWIDTH 602 0
DWIDTH 14 0
BBX 12 16 1 0
BITMAP
0600
0600
0000
1F80
30C0
6060
6060
C030
C030
C030
C030
C030
6060
6060
30C0
1F80
ENDCHAR
STARTCHAR uni0230
ENCODING 560
SWIDTH 777 0
DWIDTH 19 0
BBX 16 22 1 0
BITMAP
07F0
0000
0180
0180
0000
07E0
1C38
300C
6006
6006
C003
C003
C003
C003
C003
C003
C003
6006
6006
300C
1818
07E0
ENDCHAR
STARTCHAR uni0231
ENCODING 561
SWIDTH 602 0
DWIDTH 14 0
BBX 12 18 1 0
BITMAP
1FC0
0000
0600
0600
0000
1F80
30C0
6060
6060
C030
C030
C030
C030
C030
6060
6060
30C0
1F80
ENDCHAR
STARTCHAR uni0232
ENCODING 562
SWIDTH 678 0
DWIDTH 16 0
BBX 16 19 0 0
BITMAP
0FE0
0000
FE1F
3806
180C
1C08
0C10
0610
0720
0340
01C0
0180
0180
0180
0180
0180
0180
0180
07E0
ENDCHAR
STARTCHAR uni0233
ENCODING 563
SWIDTH 551 0
DWIDTH 13 0
BBX 13 20 0 -5
BITMAP
1FC0
0000
FC78
7010
3010
3020
1820
1840
1C40
0CC0
0C80
0680
0700
0700
0200
0200
0600
0C00
1C00
3800
ENDCHAR
STARTCHAR uni0250
ENCODING 592
SWIDTH 543 0
DWIDTH 13 0
BBX 12 13 1 0
BITMAP
E7C0
3860
3030
3030
3030
3070
30E0
3F80
3000
3000
3020
1860
0FC0
ENDCHAR
STARTCHAR uni0254
ENCODING 596
SWIDTH 509 0
DWIDTH 12 0
BBX 10 13 1 0
BITMAP
FC00
C300
8180
8180
00C0
00C0
00C0
00C0
00C0
0180
0180
8300
7C00
ENDCHAR
STARTCHAR uni0258
ENCODING 600
SWIDTH 530 0
DWIDTH 13 0
BBX 10 13 1 0
BITMAP
1E00
6300
4180
C080
C0C0
FFC0
00C0
00C0
00C0
0180
0180
8300
7C00
ENDCHAR
STARTCHAR uni0259
ENCODING 601
SWIDTH 530 0
DWIDTH 13 0
BBX 10 13 1 0
BITMAP
7C00
8300
0180
0180
00C0
00C0
00C0
FFC0
C0C0
C080
4180
6300
1E00
ENDCHAR
STARTCHAR uni025F
ENCODING 607
SWIDTH 404 0
DWIDTH 10 0
BBX 9 19 1 -6
BITMAP
3F80
0E00
0600
0600
0600
0600
0600
0600
0600
0600
0600
0600
7F80
0600
0600
8600
8600
C400
7800
ENDCHAR
STARTCHAR uni0265
ENCODING 613
SWIDTH 633 0
DWIDTH 15 0
BBX 14 17 1 -4
BITMAP
FCFC
3030
3030
3030
3030
3030
3030
3030
3030
3030
3070
18B0
0F30
0030
0030
0030
003C
ENDCHAR
STARTCHAR uni0275
ENCODING 629
SWIDTH 602 0
DWIDTH 14 0
BBX 12 13 1 0
BITMAP
1F80
30C0
6060
6060
C030
C030
FFF0
C030
C030
6060
6060
30C0
1F80
ENDCHAR
STARTCHAR uni0279
ENCODING 633
SWIDTH 440 0
DWIDTH 11 0
BBX 9 13 1 0
BITMAP
1F80
0600
0600
0600
0600
0600
0600
0600
0600
8600
8600
9E00
F780
ENDCHAR
STARTCHAR uni0287
ENCODING 647
SWIDTH 392 0
DWIDTH 9 0
BBX 8 16 1 0
BITMAP
F8
1C
0C
0C
0C
0C
0C
0C
0C
0C
0C
0C
FF
0C
0C
0C
ENDCHAR
STARTCHAR uni0288
ENCODING 648
SWIDTH 392 0
DWIDTH 9 0
BBX 9 21 1 -5
BITMAP
3000
3000
3000
FF00
3000
3000
3000
3000
3000
3000
3000
3000
3000
3000
3000
3000
3000
3080
3080
1880
0F80
ENDCHAR
STARTCHAR uni0289
ENCODING 649
SWIDTH 633 0
DWIDTH 15 0
BBX 14 13 0 0
BITMAP
F0F0
3030
3030
3030
3030
3030
FFFC
3030
3030
3030
3030
18F0
0F3C
ENDCHAR
STARTCHAR uni028C
ENCODING 652
SWIDTH 545 0
DWIDTH 13 0
BBX 13 13 0 0
BITMAP
0200
0600
0700
0700
0980
0980
11C0
10C0
20C0
2060
6060
4070
F0F8
ENDCHAR
STARTCHAR uni028D
ENCODING 653
SWIDTH 795 0
DWIDTH 19 0
BBX 19 13 0 0
BITMAP
040400
040600
0E0E00
0E0E00
0F0F00
131300
131300
31B380
21A180
21E180
40C180
40C1C0
F047E0
ENDCHAR
STARTCHAR uni028E
ENCODING 654
SWIDTH 551 0
DWIDTH 13 0
BBX 13 18 0 0
BITMAP
00E0
01C0
0180
0300
0200
0200
0700
0700
0B00
0980
1980
11C0
10C0
20C0
2060
4060
4070
F1F8
ENDCHAR
STARTCHAR uni029E
ENCODING 670
SWIDTH 599 0
DWIDTH 14 0
BBX 14 17 0 -4
BITMAP
F0FC
3830
1C30
0E30
0730
03B0
01F0
01B0
0330
0630
0C30
1030
7C30
0030
0030
0030
003C
ENDCHAR
STARTCHAR uni02BB
ENCODING 699
SWIDTH 265 0
DWIDTH 6 0
BBX 2 6 2 11
BITMAP
40
80
80
80
C0
C0
ENDCHAR
STARTCHAR afii57929
ENCODING 700
SWIDTH 265 0
DWIDTH 6 0
BBX 3 6 2 11
BITMAP
E0
E0
60
20
C0
80
ENDCHAR
STARTCHAR afii64937
ENCODING 701
SWIDTH 265 0
DWIDTH 6 0
BBX 3 6 2 11
BITMAP
E0
E0
C0
80
60
20
ENDCHAR
STARTCHAR circumflex
ENCODING 710
SWIDTH 602 0
DWIDTH 14 0
BBX 8 3 3 14
BITMAP
3C
66
C3
ENDCHAR
STARTCHAR caron
ENCODING 711
SWIDTH 602 0
DWIDTH 14 0
BBX 8 3 3 14
BITMAP
C3
66
3C
ENDCHAR
STARTCHAR uni02C8
ENCODING 712
SWIDTH 241 0
DWIDTH 6 0
BBX 3 5 1 12
BITMAP
E0
E0
E0
40
40
ENDCHAR
STARTCHAR macron
ENCODING 713
SWIDTH 602 0
DWIDTH 14 0
BBX 7 1 4 16
BITMAP
FE
ENDCHAR
STARTCHAR uni02CA
ENCODING 714
SWIDTH 602 0
DWIDTH 14 0
BBX 5 3 5 14
BITMAP
38
60
C0
ENDCHAR
STARTCHAR uni02CB
ENCODING 715
SWIDTH 602 0
DWIDTH 14 0
BBX 5 3 4 14
BITMAP
E0
30
18
ENDCHAR
STARTCHAR uni02CD
ENCODING 717
SWIDTH 602 0
DWIDTH 14 0
BBX 7 1 4 -2
BITMAP
FE
ENDCHAR
STARTCHAR uni02CE
ENCODING 718
SWIDTH 602 0
DWIDTH 14 0
BBX 5 3 4 -4
BITMAP
E0
30
18
ENDCHAR
STARTCHAR uni02CF
ENCODING 719
SWIDTH 602 0
DWIDTH 14 0
BBX 5 3 5 -4
BITMAP
38
60
C0
ENDCHAR
STARTCHAR breve
ENCODING 728
SWIDTH 602 0
DWIDTH 14 0
BBX 8 3 3 14
BITMAP
81
7E
3C
ENDCHAR
STARTCHAR dotaccent
ENCODING 729
SWIDTH 602 0
DWIDTH 14 0
BBX 2 2 6 15
BITMAP
C0
C0
ENDCHAR
STARTCHAR ring
ENCODING 730
SWIDTH 602 0
DWIDTH 14 0
BBX 4 3 5 16
BITMAP
60
90
60
ENDCHAR
STARTCHAR ogonek
ENCODING 731
SWIDTH 602 0
DWIDTH 14 0
BBX 4 3 6 -4
BITMAP
60
C0
F0
ENDCHAR
STARTCHAR tilde
ENCODING 732
SWIDTH 602 0
DWIDTH 14 0
BBX 8 2 3 15
BITMAP
79
9E
ENDCHAR
STARTCHAR hungarumlaut
ENCODING 733
SWIDTH 602 0
DWIDTH 14 0
BBX 7 3 5 14
BITMAP
36
48
90
ENDCHAR
STARTCHAR uni02EE
ENCODING 750
SWIDTH 458 0
DWIDTH 11 0
BBX 7 6 2 11
BITMAP
C6
C6
42
42
C6
84
ENDCHAR
STARTCHAR uni037E
ENCODING 894
SWIDTH 265 0
DWIDTH 6 0
BBX 2 18 2 -5
BITMAP
C0
C0
00
00
00
00
00
00
00
00
00
C0
C0
40
40
40
40
80
ENDCHAR
STARTCHAR tonos
ENCODING 900
SWIDTH 602 0
DWIDTH 14 0
BBX 5 3 5 14
BITMAP
38
60
C0
ENDCHAR
STARTCHAR dieresistonos
ENCODING 901
SWIDTH 602 0
DWIDTH 14 0
BBX 7 6 4 15
BITMAP
0E
18
30
00
C6
C6
ENDCHAR
STARTCHAR anoteleia
ENCODING 903
SWIDTH 608 0
DWIDTH 15 0
BBX 2 2 6 7
BITMAP
C0
C0
ENDCHAR
STARTCHAR mu
ENCODING 956
SWIDTH 626 0
DWIDTH 15 0
BBX 14 17 0 -4
BITMAP
F0F0
3030
3030
3030
3030
3030
3030
3030
3030
3030
3030
38F0
3F3C
3000
3000
3000
3000
ENDCHAR
STARTCHAR uni1E00
ENCODING 7680
SWIDTH 744 0
DWIDTH 18 0
BBX 18 21 0 -4
BITMAP
008000
00C000
00C000
01E000
016000
026000
023000
043000
041800
081800
081C00
0FFC00
100E00
100600
200600
600700
F80FC0
000000
006000
009000
006000
ENDCHAR
STARTCHAR uni1E01
ENCODING 7681
SWIDTH 543 0
DWIDTH 13 0
BBX 12 17 1 -4
BITMAP
3F00
6180
40C0
00C0
00C0
1FC0
70C0
E0C0
C0C0
C0C0
C0C0
61C0
3E70
0000
0600
0900
0600
ENDCHAR
STARTCHAR uni1E02
ENCODING 7682
SWIDTH 609 0
DWIDTH 15 0
BBX 13 20 0 0
BITMAP
0600
0600
0000
FFC0
30E0
3030
3030
3030
3030
3060
30C0
3FC0
30F0
3030
3018
3018
3018
3038
3070
FFE0
ENDCHAR
STARTCHAR uni1E03
ENCODING 7683
SWIDTH 611 0
DWIDTH 15 0
BBX 13 20 0 0
BITMAP
0C00
0C00
0000
F000
3000
3000
3000
33C0
3470
3830
3018
3018
3018
3018
3018
3018
3010
3030
3820
27C0
ENDCHAR
STARTCHAR uni1E04
ENCODING 7684
SWIDTH 609 0
DWIDTH 15 0
BBX 13 20 0 -3
BITMAP
FFC0
30E0
3030
3030
3030
3030
3060
30C0
3FC0
30F0
3030
3018
3018
3018
3038
3070
FFE0
0000
0300
0300
ENDCHAR
STARTCHAR uni1E05
ENCODING 7685
SWIDTH 611 0
DWIDTH 15 0
BBX 13 20 0 -3
BITMAP
F000
3000
3000
3000
33C0
3470
3830
3018
3018
3018
3018
3018
3018
3010
3030
3820
27C0
0000
0300
0300
ENDCHAR
STARTCHAR uni1E06
ENCODING 7686
SWIDTH 609 0
DWIDTH 15 0
BBX 13 19 0 -2
BITMAP
FFC0
30E0
3030
3030
3030
3030
3060
30C0
3FC0
30F0
3030
3018
3018
3018
3038
3070
FFE0
0000
1FC0
ENDCHAR
STARTCHAR uni1E07
ENCODING 7687
SWIDTH 611 0
DWIDTH 15 0
BBX 13 19 0 -2
BITMAP
F000
3000
3000
3000
33C0
3470
3830
3018
3018
3018
3018
3018
3018
3010
3030
3820
27C0
0000
1FC0
ENDCHAR
STARTCHAR uni1E08
ENCODING 7688
SWIDTH 695 0
DWIDTH 17 0
BBX 14 26 1 -5
BITMAP
01C0
0300
0600
0000
07F8
1C1C
3004
6004
6000
C000
C000
C000
C000
C000
C000
C000
6000
6000
3000
1C04
07F8
0200
0100
0080
0080
0700
ENDCHAR
STARTCHAR uni1E09
ENCODING 7689
SWIDTH 509 0
DWIDTH 12 0
BBX 10 22 1 -5
BITMAP
0380
0600
0C00
0000
0FC0
30C0
6040
6040
C000
C000
C000
C000
C000
6000
6000
3040
0F80
0800
0400
0200
0200
1C00
ENDCHAR
STARTCHAR uni1E0A
ENCODING 7690
SWIDTH 768 0
DWIDTH 18 0
BBX 16 20 1 0
BITMAP
0300
0300
0000
FFE0
3038
300C
3006
3006
3003
3003
3003
3003
3003
3003
3003
3006
3006
300C
3838
FFE0
ENDCHAR
STARTCHAR uni1E0B
ENCODING 7691
SWIDTH 642 0
DWIDTH 15 0
BBX 14 20 1 0
BITMAP
0180
0180
0000
00F0
0030
0030
0030
1FB0
30F0
6030
4030
C030
C030
C030
C030
C030
C030
6070
70B0
1F3C
ENDCHAR
STARTCHAR uni1E0C
ENCODING 7692
SWIDTH 768 0
DWIDTH 18 0
BBX 16 20 1 -3
BITMAP
FFE0
3038
300C
3006
3006
3003
3003
3003
3003
3003
3003
3003
3006
3006
300C
3838
FFE0
0000
0300
0300
ENDCHAR
STARTCHAR uni1E0D
ENCODING 7693
SWIDTH 642 0
DWIDTH 15 0
BBX 14 20 1 -3
BITMAP
00F0
0030
0030
0030
1FB0
30F0
6030
4030
C030
C030
C030
C030
C030
C030
6070
70B0
1F3C
0000
0300
0300
ENDCHAR
STARTCHAR uni1E0E
ENCODING 7694
SWIDTH 768 0
DWIDTH 18 0
BBX 16 19 1 -2
BITMAP
FFE0
3038
300C
3006
3006
3003
3003
3003
3003
3003
3003
3003
3006
3006
300C
3838
FFE0
0000
0FE0
ENDCHAR
STARTCHAR uni1E0F
ENCODING 7695
SWIDTH 642 0
DWIDTH 15 0
BBX 14 19 1 -2
BITMAP
00F0
0030
0030
0030
1FB0
30F0
6030
4030
C030
C030
C030
C030
C030
C030
6070
70B0
1F3C
0000
0FE0
ENDCHAR
STARTCHAR uni1E10
ENCODING 7696
SWIDTH 768 0
DWIDTH 18 0
BBX 16 22 1 -5
BITMAP
FFE0
3038
300C
3006
3006
3003
3003
3003
3003
3003
3003
3003
3006
3006
300C
3838
FFE0
0100
0080
0040
0040
0380
ENDCHAR
STARTCHAR uni1E11
ENCODING 7697
SWIDTH 642 0
DWIDTH 15 0
BBX 14 22 1 -5
BITMAP
00F0
0030
0030
0030
1FB0
30F0
6030
4030
C030
C030
C030
C030
C030
C030
6070
70B0
1F3C
0200
0100
0080
0080
0700
ENDCHAR
STARTCHAR uni1E12
ENCODING 7698
SWIDTH 768 0
DWIDTH 18 0
BBX 16 21 1 -4
BITMAP
FFE0
3038
300C
3006
3006
3003
3003
3003
3003
3003
3003
3003
3006
3006
300C
3838
FFE0
0000
0780
0CC0
1860
ENDCHAR
STARTCHAR uni1E13
ENCODING 7699
SWIDTH 642 0
DWIDTH 15 0
BBX 14 21 1 -4
BITMAP
00F0
0030
0030
0030
1FB0
30F0
6030
4030
C030
C030
C030
C030
C030
C030
6070
70B0
1F3C
0000
0780
0CC0
1860
ENDCHAR
STARTCHAR uni1E14
ENCODING 7700
SWIDTH 566 0
DWIDTH 14 0
BBX 12 23 1 0
BITMAP
3800
0C00
0600
0000
3F80
0000
FFE0
3020
3020
3000
3000
3000
3000
3040
3FC0
3040
3000
3000
3000
3000
3010
3010
FFF0
ENDCHAR
STARTCHAR uni1E15
ENCODING 7701
SWIDTH 530 0
DWIDTH 13 0
BBX 10 19 1 0
BITMAP
3800
0C00
0600
0000
3F80
0000
1E00
3180
6080
40C0
C0C0
FFC0
C000
C000
C000
6000
6000
3040
0F80
ENDCHAR
STARTCHAR uni1E16
ENCODING 7702
SWIDTH 566 0
DWIDTH 14 0
BBX 12 23 1 0
BITMAP
0380
0600
0C00
0000
3F80
0000
FFE0
3020
3020
3000
3000
3000
3000
3040
3FC0
3040
3000
3000
3000
3000
3010
3010
FFF0
ENDCHAR
STARTCHAR uni1E17
ENCODING 7703
SWIDTH 530 0
DWIDTH 13 0
BBX 10 19 1 0
BITMAP
0380
0600
0C00
0000
3F80
0000
1E00
3180
6080
40C0
C0C0
FFC0
C000
C000
C000
6000
6000
3040
0F80
ENDCHAR
STARTCHAR uni1E18
ENCODING 7704
SWIDTH 566 0
DWIDTH 14 0
BBX 12 21 1 -4
BITMAP
FFE0
3020
3020
3000
3000
3000
3000
3040
3FC0
3040
3000
3000
3000
3000
3010
3010
FFF0
0000
0F00
1980
30C0
ENDCHAR
STARTCHAR uni1E19
ENCODING 7705
SWIDTH 530 0
DWIDTH 13 0
BBX 10 17 1 -4
BITMAP
1E00
3180
6080
40C0
C0C0
FFC0
C000
C000
C000
6000
6000
3040
0F80
0000
1E00
3300
6180
ENDCHAR
STARTCHAR uni1E1A
ENCODING 7706
SWIDTH 566 0
DWIDTH 14 0
BBX 12 20 1 -3
BITMAP
FFE0
3020
3020
3000
3000
3000
3000
3040
3FC0
3040
3000
3000
3000
3000
3010
3010
FFF0
0000
1E40
2780
ENDCHAR
STARTCHAR uni1E1B
ENCODING 7707
SWIDTH 530 0
DWIDTH 13 0
BBX 10 16 1 -3
BITMAP
1E00
3180
6080
40C0
C0C0
FFC0
C000
C000
C000
6000
6000
3040
0F80
0000
3C80
4F00
ENDCHAR
STARTCHAR uni1E1C
ENCODING 7708
SWIDTH 566 0
DWIDTH 14 0
BBX 12 26 1 -5
BITMAP
4080
3F00
1E00
0000
FFE0
3020
3020
3000
3000
3000
3000
3040
3FC0
3040
3000
3000
3000
3000
3010
3010
FFF0
0400
0200
0100
0100
0E00
ENDCHAR
STARTCHAR uni1E1D
ENCODING 7709
SWIDTH 530 0
DWIDTH 13 0
BBX 10 22 1 -5
BITMAP
4080
3F00
1E00
0000
1E00
3180
6080
40C0
C0C0
FFC0
C000
C000
C000
6000
6000
3040
0F80
0800
0400
0200
0200
1C00
ENDCHAR
STARTCHAR uni1E1E
ENCODING 7710
SWIDTH 548 0
DWIDTH 13 0
BBX 11 20 1 0
BITMAP
0C00
0C00
0000
FFE0
3020
3020
3000
3000
3000
3000
3040
3FC0
3040
3000
3000
3000
3000
3000
3800
FE00
ENDCHAR
STARTCHAR uni1E1F
ENCODING 7711
SWIDTH 404 0
DWIDTH 10 0
BBX 9 22 1 0
BITMAP
0C00
0C00
0000
0F00
1180
3080
3080
3000
3000
FF00
3000
3000
3000
3000
3000
3000
3000
3000
3000
3000
3800
FE00
ENDCHAR
STARTCHAR uni1E20
ENCODING 7712
SWIDTH 732 0
DWIDTH 18 0
BBX 16 19 1 0
BITMAP
0FE0
0000
07F0
1C1C
3004
6004
6000
C000
C000
C000
C000
C000
C03F
C00C
600C
600C
300C
1C0C
07F8
ENDCHAR
STARTCHAR uni1E21
ENCODING 7713
SWIDTH 571 0
DWIDTH 14 0
BBX 13 20 1 -5
BITMAP
1FC0
0000
1FF8
30C0
70E0
6060
6060
6060
6060
30C0
10C0
3F00
6000
6000
3FE0
4030
C030
C030
6060
3F80
ENDCHAR
STARTCHAR uni1E22
ENCODING 7714
SWIDTH 771 0
DWIDTH 19 0
BBX 17 20 1 0
BITMAP
00C000
00C000
000000
FC1F80
300600
300600
300600
300600
300600
300600
300600
3FFE00
300600
300600
300600
300600
300600
300600
300600
FC1F80
ENDCHAR
STARTCHAR uni1E23
ENCODING 7715
SWIDTH 633 0
DWIDTH 15 0
BBX 14 20 1 0
BITMAP
0C00
0C00
0000
F000
3000
3000
3000
33C0
3460
3830
3030
3030
3030
3030
3030
3030
3030
3030
3030
FCFC
ENDCHAR
STARTCHAR uni1E24
ENCODING 7716
SWIDTH 771 0
DWIDTH 19 0
BBX 17 20 1 -3
BITMAP
FC1F80
300600
300600
300600
300600
300600
300600
300600
3FFE00
300600
300600
300600
300600
300600
300600
300600
FC1F80
000000
00C000
00C000
ENDCHAR
STARTCHAR uni1E25
ENCODING 7717
SWIDTH 633 0
DWIDTH 15 0
BBX 14 20 1 -3
BITMAP
F000
3000
3000
3000
33C0
3460
3830
3030
3030
3030
3030
3030
3030
3030
3030
3030
FCFC
0000
0300
0300
ENDCHAR
STARTCHAR uni1E26
ENCODING 7718
SWIDTH 771 0
DWIDTH 19 0
BBX 17 20 1 0
BITMAP
063000
063000
000000
FC1F80
300600
300600
300600
300600
300600
300600
300600
3FFE00
300600
300600
300600
300600
300600
300600
300600
FC1F80
ENDCHAR
STARTCHAR uni1E27
ENCODING 7719
SWIDTH 633 0
DWIDTH 15 0
BBX 14 20 1 0
BITMAP
3180
3180
0000
F000
3000
3000
3000
33C0
3460
3830
3030
3030
3030
3030
3030
3030
3030
3030
3030
FCFC
ENDCHAR
STARTCHAR uni1E28
ENCODING 7720
SWIDTH 771 0
DWIDTH 19 0
BBX 17 22 1 -5
BITMAP
FC1F80
300600
300600
300600
300600
300600
300600
300600
3FFE00
300600
300600
300600
300600
300600
300600
300600
FCDF80
008000
004000
002000
002000
01C000
ENDCHAR
STARTCHAR uni1E29
ENCODING 7721
SWIDTH 633 0
DWIDTH 15 0
BBX 14 22 1 -5
BITMAP
F000
3000
3000
3000
33C0
3460
3830
3030
3030
3030
3030
3030
3030
3030
3030
3030
FFFC
0200
0100
0080
0080
0700
ENDCHAR
STARTCHAR uni1E2A
ENCODING 7722
SWIDTH 771 0
DWIDTH 19 0
BBX 17 21 1 -4
BITMAP
FC1F80
300600
300600
300600
300600
300600
300600
300600
3FFE00
300600
300600
300600
300600
300600
300600
300600
FC1F80
000000
040800
03F000
01E000
ENDCHAR
STARTCHAR uni1E2B
ENCODING 7723
SWIDTH 633 0
DWIDTH 15 0
BBX 14 21 1 -4
BITMAP
F000
3000
3000
3000
33C0
3460
3830
3030
3030
3030
3030
3030
3030
3030
3030
3030
FCFC
0000
1020
0FC0
0780
ENDCHAR
STARTCHAR uni1E2C
ENCODING 7724
SWIDTH 325 0
DWIDTH 8 0
BBX 8 20 0 -3
BITMAP
7E
18
18
18
18
18
18
18
18
18
18
18
18
18
18
18
7E
00
79
9E
ENDCHAR
STARTCHAR uni1E2D
ENCODING 7725
SWIDTH 307 0
DWIDTH 7 0
BBX 8 20 0 -3
BITMAP
18
18
00
00
78
18
18
18
18
18
18
18
18
18
18
18
7E
00
79
9E
ENDCHAR
STARTCHAR uni1E2E
ENCODING 7726
SWIDTH 325 0
DWIDTH 8 0
BBX 7 24 2 0
BITMAP
0E
18
30
00
C6
C6
00
7E
18
18
18
18
18
18
18
18
18
18
18
18
18
18
18
7E
ENDCHAR
STARTCHAR uni1E2F
ENCODING 7727
SWIDTH 307 0
DWIDTH 7 0
BBX 7 20 2 0
BITMAP
0E
18
30
00
C6
C6
00
78
18
18
18
18
18
18
18
18
18
18
18
7E
ENDCHAR
STARTCHAR uni1E30
ENCODING 7728
SWIDTH 708 0
DWIDTH 17 0
BBX 16 21 1 0
BITMAP
00E0
0180
0300
0000
FC7E
3018
3030
3040
3080
3100
3200
3400
3E00
3700
3380
31C0
30E0
3070
3038
301C
FC7F
ENDCHAR
STARTCHAR uni1E31
ENCODING 7729
SWIDTH 599 0
DWIDTH 14 0
BBX 14 21 0 0
BITMAP
0380
0600
0C00
0000
F000
3000
3000
3000
30F8
3020
30C0
3180
3300
3600
3E00
3700
3380
31C0
30E0
3070
FC3C
ENDCHAR
STARTCHAR uni1E32
ENCODING 7730
SWIDTH 708 0
DWIDTH 17 0
BBX 16 20 1 -3
BITMAP
FC7E
3018
3030
3040
3080
3100
3200
3400
3E00
3700
3380
31C0
30E0
3070
3038
301C
FC7F
0000
0180
0180
ENDCHAR
STARTCHAR uni1E33
ENCODING 7731
SWIDTH 599 0
DWIDTH 14 0
BBX 14 20 0 -3
BITMAP
F000
3000
3000
3000
30F8
3020
30C0
3180
3300
3600
3E00
3700
3380
31C0
30E0
3070
FC3C
0000
0300
0300
ENDCHAR
STARTCHAR uni1E34
ENCODING 7732
SWIDTH 708 0
DWIDTH 17 0
BBX 16 19 1 -2
BITMAP
FC7E
3018
3030
3040
3080
3100
3200
3400
3E00
3700
3380
31C0
30E0
3070
3038
301C
FC7F
0000
0FE0
ENDCHAR
STARTCHAR uni1E35
ENCODING 7733
SWIDTH 599 0
DWIDTH 14 0
BBX 14 19 0 -2
BITMAP
F000
3000
3000
3000
30F8
3020
30C0
3180
3300
3600
3E00
3700
3380
31C0
30E0
3070
FC3C
0000
1FC0
ENDCHAR
STARTCHAR uni1E36
ENCODING 7734
SWIDTH 557 0
DWIDTH 13 0
BBX 12 20 1 -3
BITMAP
FC00
3000
3000
3000
3000
3000
3000
3000
3000
3000
3000
3000
3000
3000
3010
3030
FFF0
0000
0600
0600
ENDCHAR
STARTCHAR uni1E37
ENCODING 7735
SWIDTH 313 0
DWIDTH 8 0
BBX 6 20 1 -3
BITMAP
F0
30
30
30
30
30
30
30
30
30
30
30
30
30
30
30
FC
00
30
30
ENDCHAR
STARTCHAR uni1E38
ENCODING 7736
SWIDTH 557 0
DWIDTH 13 0
BBX 12 22 1 -3
BITMAP
7F00
0000
FC00
3000
3000
3000
3000
3000
3000
3000
3000
3000
3000
3000
3000
3000
3010
3030
FFF0
0000
0600
0600
ENDCHAR
STARTCHAR uni1E39
ENCODING 7737
SWIDTH 313 0
DWIDTH 8 0
BBX 7 22 0 -3
BITMAP
FE
00
78
18
18
18
18
18
18
18
18
18
18
18
18
18
18
18
7E
00
18
18
ENDCHAR
STARTCHAR uni1E3A
ENCODING 7738
SWIDTH 557 0
DWIDTH 13 0
BBX 12 19 1 -2
BITMAP
FC00
3000
3000
3000
3000
3000
3000
3000
3000
3000
3000
3000
3000
3000
3010
3030
FFF0
0000
3F80
ENDCHAR
STARTCHAR uni1E3B
ENCODING 7739
SWIDTH 313 0
DWIDTH 8 0
BBX 7 19 1 -2
BITMAP
F0
30
30
30
30
30
30
30
30
30
30
30
30
30
30
30
FC
00
FE
ENDCHAR
STARTCHAR uni1E3C
ENCODING 7740
SWIDTH 557 0
DWIDTH 13 0
BBX 12 21 1 -4
BITMAP
FC00
3000
3000
3000
3000
3000
3000
3000
3000
3000
3000
3000
3000
3000
3010
3030
FFF0
0000
0F00
1980
30C0
ENDCHAR
STARTCHAR uni1E3D
ENCODING 7741
SWIDTH 313 0
DWIDTH 8 0
BBX 8 21 0 -4
BITMAP
78
18
18
18
18
18
18
18
18
18
18
18
18
18
18
18
7E
00
3C
66
C3
ENDCHAR
STARTCHAR uni1E3E
ENCODING 7742
SWIDTH 860 0
DWIDTH 21 0
BBX 19 21 1 0
BITMAP
003800
006000
00C000
000000
F801E0
380380
3C0380
2C0780
2C0580
260580
260980
270980
231180
231180
219180
21A180
20E180
20C180
20C180
200180
F807E0
ENDCHAR
STARTCHAR uni1E3F
ENCODING 7743
SWIDTH 946 0
DWIDTH 23 0
BBX 22 17 1 0
BITMAP
001C00
003000
006000
000000
F3E3C0
347460
383830
303030
303030
303030
303030
303030
303030
303030
303030
303030
FCFCFC
ENDCHAR
STARTCHAR uni1E40
ENCODING 7744
SWIDTH 860 0
DWIDTH 21 0
BBX 19 20 1 0
BITMAP
00C000
00C000
000000
F801E0
380380
3C0380
2C0780
2C0580
260580
260980
270980
231180
231180
219180
21A180
20E180
20C180
20C180
200180
F807E0
ENDCHAR
STARTCHAR uni1E41
ENCODING 7745
SWIDTH 946 0
DWIDTH 23 0
BBX 22 16 1 0
BITMAP
006000
006000
000000
F3E3C0
347460
383830
303030
303030
303030
303030
303030
303030
303030
303030
303030
FCFCFC
ENDCHAR
STARTCHAR uni1E42
ENCODING 7746
SWIDTH 860 0
DWIDTH 21 0
BBX 19 20 1 -3
BITMAP
F801E0
380380
3C0380
2C0780
2C0580
260580
260980
270980
231180
231180
219180
21A180
20E180
20C180
20C180
200180
F807E0
000000
006000
006000
ENDCHAR
STARTCHAR uni1E43
ENCODING 7747
SWIDTH 946 0
DWIDTH 23 0
BBX 22 16 1 -3
BITMAP
F3E3C0
347460
383830
303030
303030
303030
303030
303030
303030
303030
303030
303030
FCFCFC
000000
003000
003000
ENDCHAR
STARTCHAR uni1E44
ENCODING 7748
SWIDTH 751 0
DWIDTH 18 0
BBX 17 20 1 0
BITMAP
018000
018000
000000
F00F80
380200
3C0200
2C0200
2E0200
270200
238200
218200
20C200
20E200
207200
203200
201A00
200E00
200E00
200600
F80200
ENDCHAR
STARTCHAR uni1E45
ENCODING 7749
SWIDTH 633 0
DWIDTH 15 0
BBX 14 16 1 0
BITMAP
0600
0600
0000
F3C0
3460
3830
3030
3030
3030
3030
3030
3030
3030
3030
3030
FCFC
ENDCHAR
STARTCHAR uni1E46
ENCODING 7750
SWIDTH 751 0
DWIDTH 18 0
BBX 17 20 1 -3
BITMAP
F00F80
380200
3C0200
2C0200
2E0200
270200
238200
218200
20C200
20E200
207200
203200
201A00
200E00
200E00
200600
F80200
000000
00C000
00C000
ENDCHAR
STARTCHAR uni1E47
ENCODING 7751
SWIDTH 633 0
DWIDTH 15 0
BBX 14 16 1 -3
BITMAP
F3C0
3460
3830
3030
3030
3030
3030
3030
3030
3030
3030
3030
FCFC
0000
0300
0300
ENDCHAR
STARTCHAR uni1E48
ENCODING 7752
SWIDTH 751 0
DWIDTH 18 0
BBX 17 19 1 -2
BITMAP
F00F80
380200
3C0200
2C0200
2E0200
270200
238200
218200
20C200
20E200
207200
203200
201A00
200E00
200E00
200600
F80200
000000
07F000
ENDCHAR
STARTCHAR uni1E49
ENCODING 7753
SWIDTH 633 0
DWIDTH 15 0
BBX 14 15 1 -2
BITMAP
F3C0
3460
3830
3030
3030
3030
3030
3030
3030
3030
3030
3030
FCFC
0000
0FE0
ENDCHAR
STARTCHAR uni1E4A
ENCODING 7754
SWIDTH 751 0
DWIDTH 18 0
BBX 17 21 1 -4
BITMAP
F00F80
380200
3C0200
2C0200
2E0200
270200
238200
218200
20C200
20E200
207200
203200
201A00
200E00
200E00
200600
F80200
000000
01E000
033000
061800
ENDCHAR
STARTCHAR uni1E4B
ENCODING 7755
SWIDTH 633 0
DWIDTH 15 0
BBX 14 17 1 -4
BITMAP
F3C0
3460
3830
3030
3030
3030
3030
3030
3030
3030
3030
3030
FCFC
0000
0780
0CC0
1860
ENDCHAR
STARTCHAR uni1E4C
ENCODING 7756
SWIDTH 777 0
DWIDTH 19 0
BBX 16 24 1 0
BITMAP
0070
00C0
0180
0000
0790
09E0
0000
07E0
1C38
300C
6006
6006
C003
C003
C003
C003
C003
C003
C003
6006
6006
300C
1818
07E0
ENDCHAR
STARTCHAR uni1E4D
ENCODING 7757
SWIDTH 602 0
DWIDTH 14 0
BBX 12 20 1 0
BITMAP
01C0
0300
0600
0000
1E40
2780
0000
1F80
30C0
6060
6060
C030
C030
C030
C030
C030
6060
6060
30C0
1F80
ENDCHAR
STARTCHAR uni1E4E
ENCODING 7758
SWIDTH 777 0
DWIDTH 19 0
BBX 16 23 1 0
BITMAP
0630
0630
0000
0790
09E0
0000
07E0
1C38
300C
6006
6006
C003
C003
C003
C003
C003
C003
C003
6006
6006
300C
1818
07E0
ENDCHAR
STARTCHAR uni1E4F
ENCODING 7759
SWIDTH 602 0
DWIDTH 14 0
BBX 12 19 1 0
BITMAP
18C0
18C0
0000
1E40
2780
0000
1F80
30C0
6060
6060
C030
C030
C030
C030
C030
6060
6060
30C0
1F80
ENDCHAR
STARTCHAR uni1E50
ENCODING 7760
SWIDTH 777 0
DWIDTH 19 0
BBX 16 23 1 0
BITMAP
0700
0180
00C0
0000
07F0
0000
07E0
1C38
300C
6006
6006
C003
C003
C003
C003
C003
C003
C003
6006
6006
300C
1818
07E0
ENDCHAR
STARTCHAR uni1E51
ENCODING 7761
SWIDTH 602 0
DWIDTH 14 0
BBX 12 19 1 0
BITMAP
1C00
0600
0300
0000
1FC0
0000
1F80
30C0
6060
6060
C030
C030
C030
C030
C030
6060
6060
30C0
1F80
ENDCHAR
STARTCHAR uni1E52
ENCODING 7762
SWIDTH 777 0
DWIDTH 19 0
BBX 16 23 1 0
BITMAP
0070
00C0
0180
0000
07F0
0000
07E0
1C38
300C
6006
6006
C003
C003
C003
C003
C003
C003
C003
6006
6006
300C
1818
07E0
ENDCHAR
STARTCHAR uni1E53
ENCODING 7763
SWIDTH 602 0
DWIDTH 14 0
BBX 12 19 1 0
BITMAP
01C0
0300
0600
0000
1FC0
0000
1F80
30C0
6060
6060
C030
C030
C030
C030
C030
6060
6060
30C0
1F80
ENDCHAR
STARTCHAR uni1E54
ENCODING 7764
SWIDTH 573 0
DWIDTH 14 0
BBX 13 21 0 0
BITMAP
01C0
0300
0600
0000
FFC0
3070
3018
3018
3018
3018
3018
3030
30E0
3F80
3000
3000
3000
3000
3000
3000
FC00
ENDCHAR
STARTCHAR uni1E55
ENCODING 7765
SWIDTH 642 0
DWIDTH 15 0
BBX 13 22 1 -5
BITMAP
01C0
0300
0600
0000
F3C0
3470
3830
3018
3018
3018
3018
3018
3018
3010
3030
3820
37C0
3000
3000
3000
3000
FC00
ENDCHAR
STARTCHAR uni1E56
ENCODING 7766
SWIDTH 573 0
DWIDTH 14 0
BBX 13 20 0 0
BITMAP
0300
0300
0000
FFC0
3070
3018
3018
3018
3018
3018
3030
30E0
3F80
3000
3000
3000
3000
3000
3000
FC00
ENDCHAR
STARTCHAR uni1E57
ENCODING 7767
SWIDTH 642 0
DWIDTH 15 0
BBX 13 21 1 -5
BITMAP
0300
0300
0000
F3C0
3470
3830
3018
3018
3018
3018
3018
3018
3010
3030
3820
37C0
3000
3000
3000
3000
FC00
ENDCHAR
STARTCHAR uni1E58
ENCODING 7768
SWIDTH 679 0
DWIDTH 16 0
BBX 15 20 1 0
BITMAP
0300
0300
0000
FFC0
3060
3030
3030
3030
3030
3020
3060
30C0
3F80
3180
30C0
30E0
3060
3030
3038
FC1E
ENDCHAR
STARTCHAR uni1E59
ENCODING 7769
SWIDTH 440 0
DWIDTH 11 0
BBX 9 16 1 0
BITMAP
0C00
0C00
0000
F780
3C80
3080
3080
3000
3000
3000
3000
3000
3000
3000
3000
FC00
ENDCHAR
STARTCHAR uni1E5A
ENCODING 7770
SWIDTH 679 0
DWIDTH 16 0
BBX 15 20 1 -3
BITMAP
FFC0
3060
3030
3030
3030
3030
3020
3060
30C0
3F80
3180
30C0
30E0
3060
3030
3038
FC1E
0000
0300
0300
ENDCHAR
STARTCHAR uni1E5B
ENCODING 7771
SWIDTH 440 0
DWIDTH 11 0
BBX 9 16 1 -3
BITMAP
F780
3C80
3080
3080
3000
3000
3000
3000
3000
3000
3000
3000
FC00
0000
1800
1800
ENDCHAR
STARTCHAR uni1E5C
ENCODING 7772
SWIDTH 679 0
DWIDTH 16 0
BBX 15 22 1 -3
BITMAP
1FC0
0000
FFC0
3060
3030
3030
3030
3030
3020
3060
30C0
3F80
3180
30C0
30E0
3060
3030
3038
FC1E
0000
0300
0300
ENDCHAR
STARTCHAR uni1E5D
ENCODING 7773
SWIDTH 440 0
DWIDTH 11 0
BBX 9 18 1 -3
BITMAP
7F00
0000
F780
3C80
3080
3080
3000
3000
3000
3000
3000
3000
3000
3000
FC00
0000
1800
1800
ENDCHAR
STARTCHAR uni1E5E
ENCODING 7774
SWIDTH 679 0
DWIDTH 16 0
BBX 15 19 1 -2
BITMAP
FFC0
3060
3030
3030
3030
3030
3020
3060
30C0
3F80
3180
30C0
30E0
3060
3030
3038
FC1E
0000
0FE0
ENDCHAR
STARTCHAR uni1E5F
ENCODING 7775
SWIDTH 440 0
DWIDTH 11 0
BBX 9 15 1 -2
BITMAP
F780
3C80
3080
3080
3000
3000
3000
3000
3000
3000
3000
3000
FC00
0000
FE00
ENDCHAR
STARTCHAR uni1E60
ENCODING 7776
SWIDTH 542 0
DWIDTH 13 0
BBX 10 20 2 0
BITMAP
1800
1800
0000
3F00
6180
C080
C080
C000
E000
7000
3C00
1E00
0780
01C0
00C0
00C0
80C0
8080
C180
7E00
ENDCHAR
STARTCHAR uni1E61
ENCODING 7777
SWIDTH 504 0
DWIDTH 12 0
BBX 9 16 2 0
BITMAP
1800
1800
0000
3E00
6300
C100
C100
E000
7800
3E00
0F00
0180
8180
8180
C300
7E00
ENDCHAR
STARTCHAR uni1E62
ENCODING 7778
SWIDTH 542 0
DWIDTH 13 0
BBX 10 20 2 -3
BITMAP
3F00
6180
C080
C080
C000
E000
7000
3C00
1E00
0780
01C0
00C0
00C0
80C0
8080
C180
7E00
0000
0C00
0C00
ENDCHAR
STARTCHAR uni1E63
ENCODING 7779
SWIDTH 504 0
DWIDTH 12 0
BBX 9 16 2 -3
BITMAP
3E00
6300
C100
C100
E000
7800
3E00
0F00
0180
8180
8180
C300
7E00
0000
0C00
0C00
ENDCHAR
STARTCHAR uni1E64
ENCODING 7780
SWIDTH 542 0
DWIDTH 13 0
BBX 10 24 2 0
BITMAP
0C00
0C00
0000
0700
0C00
1800
0000
3F00
6180
C080
C080
C000
E000
7000
3C00
1E00
0780
01C0
00C0
00C0
80C0
8080
C180
7E00
ENDCHAR
STARTCHAR uni1E65
ENCODING 7781
SWIDTH 504 0
DWIDTH 12 0
BBX 9 20 2 0
BITMAP
0C00
0C00
0000
0700
0C00
1800
0000
3E00
6300
C100
C100
E000
7800
3E00
0F00
0180
8180
8180
C300
7E00
ENDCHAR
STARTCHAR uni1E66
ENCODING 7782
SWIDTH 542 0
DWIDTH 13 0
BBX 10 24 2 0
BITMAP
0C00
0C00
0000
6180
3300
1E00
0000
3F00
6180
C080
C080
C000
E000
7000
3C00
1E00
0780
01C0
00C0
00C0
80C0
8080
C180
7E00
ENDCHAR
STARTCHAR uni1E67
ENCODING 7783
SWIDTH 504 0
DWIDTH 12 0
BBX 9 20 2 0
BITMAP
1800
1800
0000
C300
6600
3C00
0000
3E00
6300
C100
C100
E000
7800
3E00
0F00
0180
8180
8180
C300
7E00
ENDCHAR
STARTCHAR uni1E68
ENCODING 7784
SWIDTH 542 0
DWIDTH 13 0
BBX 10 23 2 -3
BITMAP
1800
1800
0000
3F00
6180
C080
C080
C000
E000
7000
3C00
1E00
0780
01C0
00C0
00C0
80C0
8080
C180
7E00
0000
0C00
0C00
ENDCHAR
STARTCHAR uni1E69
ENCODING 7785
SWIDTH 504 0
DWIDTH 12 0
BBX 9 19 2 -3
BITMAP
1800
1800
0000
3E00
6300
C100
C100
E000
7800
3E00
0F00
0180
8180
8180
C300
7E00
0000
0C00
0C00
ENDCHAR
STARTCHAR uni1E6A
ENCODING 7786
SWIDTH 663 0
DWIDTH 16 0
BBX 14 20 1 0
BITMAP
0300
0300
0000
FFFC
8304
0300
0300
0300
0300
0300
0300
0300
0300
0300
0300
0300
0300
0300
0300
0FC0
ENDCHAR
STARTCHAR uni1E6B
ENCODING 7787
SWIDTH 392 0
DWIDTH 9 0
BBX 8 19 1 0
BITMAP
18
18
00
30
30
30
FF
30
30
30
30
30
30
30
30
30
30
38
1F
ENDCHAR
STARTCHAR uni1E6C
ENCODING 7788
SWIDTH 663 0
DWIDTH 16 0
BBX 14 20 1 -3
BITMAP
FFFC
8304
0300
0300
0300
0300
0300
0300
0300
0300
0300
0300
0300
0300
0300
0300
0FC0
0000
0300
0300
ENDCHAR
STARTCHAR uni1E6D
ENCODING 7789
SWIDTH 392 0
DWIDTH 9 0
BBX 8 19 1 -3
BITMAP
30
30
30
FF
30
30
30
30
30
30
30
30
30
30
38
1F
00
18
18
ENDCHAR
STARTCHAR uni1E6E
ENCODING 7790
SWIDTH 663 0
DWIDTH 16 0
BBX 14 19 1 -2
BITMAP
FFFC
8304
0300
0300
0300
0300
0300
0300
0300
0300
0300
0300
0300
0300
0300
0300
0FC0
0000
0FE0
ENDCHAR
STARTCHAR uni1E6F
ENCODING 7791
SWIDTH 392 0
DWIDTH 9 0
BBX 8 18 1 -2
BITMAP
30
30
30
FF
30
30
30
30
30
30
30
30
30
30
38
1F
00
7F
ENDCHAR
STARTCHAR uni1E70
ENCODING 7792
SWIDTH 663 0
DWIDTH 16 0
BBX 14 21 1 -4
BITMAP
FFFC
8304
0300
0300
0300
0300
0300
0300
0300
0300
0300
0300
0300
0300
0300
0300
0FC0
0000
0780
0CC0
1860
ENDCHAR
STARTCHAR uni1E71
ENCODING 7793
SWIDTH 392 0
DWIDTH 9 0
BBX 8 20 1 -4
BITMAP
30
30
30
FF
30
30
30
30
30
30
30
30
30
30
38
1F
00
3C
66
C3
ENDCHAR
STARTCHAR uni1E72
ENCODING 7794
SWIDTH 719 0
DWIDTH 17 0
BBX 16 20 1 -3
BITMAP
FC1F
3004
3004
3004
3004
3004
3004
3004
3004
3004
3004
3004
3004
3004
1808
1C18
07E0
0000
0C60
0C60
ENDCHAR
STARTCHAR uni1E73
ENCODING 7795
SWIDTH 633 0
DWIDTH 15 0
BBX 14 16 0 -3
BITMAP
F0F0
3030
3030
3030
3030
3030
3030
3030
3030
3030
3030
18F0
0F3C
0000
0C60
0C60
ENDCHAR
STARTCHAR uni1E74
ENCODING 7796
SWIDTH 719 0
DWIDTH 17 0
BBX 16 20 1 -3
BITMAP
FC1F
3004
3004
3004
3004
3004
3004
3004
3004
3004
3004
3004
3004
3004
1808
1C18
07E0
0000
0790
09E0
ENDCHAR
STARTCHAR uni1E75
ENCODING 7797
SWIDTH 633 0
DWIDTH 15 0
BBX 14 16 0 -3
BITMAP
F0F0
3030
3030
3030
3030
3030
3030
3030
3030
3030
3030
18F0
0F3C
0000
0790
09E0
ENDCHAR
STARTCHAR uni1E76
ENCODING 7798
SWIDTH 719 0
DWIDTH 17 0
BBX 16 21 1 -4
BITMAP
FC1F
3004
3004
3004
3004
3004
3004
3004
3004
3004
3004
3004
3004
3004
1808
1C18
07E0
0000
03C0
0660
0C30
ENDCHAR
STARTCHAR uni1E77
ENCODING 7799
SWIDTH 633 0
DWIDTH 15 0
BBX 14 17 0 -4
BITMAP
F0F0
3030
3030
3030
3030
3030
3030
3030
3030
3030
3030
18F0
0F3C
0000
03C0
0660
0C30
ENDCHAR
STARTCHAR uni1E78
ENCODING 7800
SWIDTH 719 0
DWIDTH 17 0
BBX 16 24 1 0
BITMAP
00E0
0180
0300
0000
0F20
13C0
0000
FC1F
3004
3004
3004
3004
3004
3004
3004
3004
3004
3004
3004
3004
3004
1808
1C18
07E0
ENDCHAR
STARTCHAR uni1E79
ENCODING 7801
SWIDTH 633 0
DWIDTH 15 0
BBX 14 20 0 0
BITMAP
01C0
0300
0600
0000
0F20
13C0
0000
F0F0
3030
3030
3030
3030
3030
3030
3030
3030
3030
3030
18F0
0F3C
ENDCHAR
STARTCHAR uni1E7A
ENCODING 7802
SWIDTH 719 0
DWIDTH 17 0
BBX 16 22 1 0
BITMAP
0C60
0C60
0000
0FE0
0000
FC1F
3004
3004
3004
3004
3004
3004
3004
3004
3004
3004
3004
3004
3004
1808
1C18
07E0
ENDCHAR
STARTCHAR uni1E7B
ENCODING 7803
SWIDTH 633 0
DWIDTH 15 0
BBX 14 18 0 0
BITMAP
18C0
18C0
0000
1FC0
0000
F0F0
3030
3030
3030
3030
3030
3030
3030
3030
3030
3030
18F0
0F3C
ENDCHAR
STARTCHAR uni1E7C
ENCODING 7804
SWIDTH 699 0
DWIDTH 17 0
BBX 17 20 0 0
BITMAP
079000
09E000
000000
FC0F80
300300
300200
180200
180400
0C0400
0C0800
0E0800
060800
061000
031000
032000
01A000
01A000
01C000
00C000
008000
ENDCHAR
STARTCHAR uni1E7D
ENCODING 7805
SWIDTH 545 0
DWIDTH 13 0
BBX 13 16 0 0
BITMAP
1E40
2780
0000
F878
7010
3030
3020
1820
1840
1C40
0C80
0C80
0700
0700
0300
0200
ENDCHAR
STARTCHAR uni1E7E
ENCODING 7806
SWIDTH 699 0
DWIDTH 17 0
BBX 17 20 0 -3
BITMAP
FC0F80
300300
300200
180200
180400
0C0400
0C0800
0E0800
060800
061000
031000
032000
01A000
01A000
01C000
00C000
008000
000000
00C000
00C000
ENDCHAR
STARTCHAR uni1E7F
ENCODING 7807
SWIDTH 545 0
DWIDTH 13 0
BBX 13 16 0 -3
BITMAP
F878
7010
3030
3020
1820
1840
1C40
0C80
0C80
0700
0700
0300
0200
0000
0300
0300
ENDCHAR
STARTCHAR Wgrave
ENCODING 7808
SWIDTH 925 0
DWIDTH 22 0
BBX 22 21 0 0
BITMAP
01C000
006000
003000
000000
FC107C
703018
303010
303810
183820
185820
185C20
184C40
0C8C40
0C8C40
0C8680
070680
070680
070380
060300
020300
020100
ENDCHAR
STARTCHAR wgrave
ENCODING 7809
SWIDTH 795 0
DWIDTH 19 0
BBX 19 17 0 0
BITMAP
070000
018000
00C000
000000
FC41E0
706040
306040
30F080
30B080
39B180
191900
191900
1E1E00
0E0E00
0E0E00
0C0400
040400
ENDCHAR
STARTCHAR Wacute
ENCODING 7810
SWIDTH 925 0
DWIDTH 22 0
BBX 22 21 0 0
BITMAP
001C00
003000
006000
000000
FC107C
703018
303010
303810
183820
185820
185C20
184C40
0C8C40
0C8C40
0C8680
070680
070680
070380
060300
020300
020100
ENDCHAR
STARTCHAR wacute
ENCODING 7811
SWIDTH 795 0
DWIDTH 19 0
BBX 19 17 0 0
BITMAP
007000
00C000
018000
000000
FC41E0
706040
306040
30F080
30B080
39B180
191900
191900
1E1E00
0E0E00
0E0E00
0C0400
040400
ENDCHAR
STARTCHAR Wdieresis
ENCODING 7812
SWIDTH 925 0
DWIDTH 22 0
BBX 22 20 0 0
BITMAP
018C00
018C00
000000
FC107C
703018
303010
303810
183820
185820
185C20
184C40
0C8C40
0C8C40
0C8680
070680
070680
070380
060300
020300
020100
ENDCHAR
STARTCHAR wdieresis
ENCODING 7813
SWIDTH 795 0
DWIDTH 19 0
BBX 19 16 0 0
BITMAP
063000
063000
000000
FC41E0
706040
306040
30F080
30B080
39B180
191900
191900
1E1E00
0E0E00
0E0E00
0C0400
040400
ENDCHAR
STARTCHAR uni1E86
ENCODING 7814
SWIDTH 925 0
DWIDTH 22 0
BBX 22 20 0 0
BITMAP
006000
006000
000000
FC107C
703018
303010
303810
183820
185820
185C20
184C40
0C8C40
0C8C40
0C8680
070680
070680
070380
060300
020300
020100
ENDCHAR
STARTCHAR uni1E87
ENCODING 7815
SWIDTH 795 0
DWIDTH 19 0
BBX 19 16 0 0
BITMAP
00C000
00C000
000000
FC41E0
706040
306040
30F080
30B080
39B180
191900
191900
1E1E00
0E0E00
0E0E00
0C0400
040400
ENDCHAR
STARTCHAR uni1E88
ENCODING 7816
SWIDTH 925 0
DWIDTH 22 0
BBX 22 20 0 -3
BITMAP
FC107C
703018
303010
303810
183820
185820
185C20
184C40
0C8C40
0C8C40
0C8680
070680
070680
070380
060300
020300
020100
000000
003000
003000
ENDCHAR
STARTCHAR uni1E89
ENCODING 7817
SWIDTH 795 0
DWIDTH 19 0
BBX 19 16 0 -3
BITMAP
FC41E0
706040
306040
30F080
30B080
39B180
191900
191900
1E1E00
0E0E00
0E0E00
0C0400
040400
000000
00C000
00C000
ENDCHAR
STARTCHAR uni1E8A
ENCODING 7818
SWIDTH 657 0
DWIDTH 16 0
BBX 16 20 0 0
BITMAP
0180
0180
0000
FE1F
3804
1C08
0C18
0E10
0620
0340
03C0
01C0
02C0
0660
0470
0830
1038
3018
601C
F87F
ENDCHAR
STARTCHAR uni1E8B
ENCODING 7819
SWIDTH 557 0
DWIDTH 13 0
BBX 13 16 0 0
BITMAP
0600
0600
0000
FC78
7030
3860
1840
0C80
0F00
0700
0780
0980
10C0
20E0
6070
F1F8
ENDCHAR
STARTCHAR uni1E8C
ENCODING 7820
SWIDTH 657 0
DWIDTH 16 0
BBX 16 20 0 0
BITMAP
0C60
0C60
0000
FE1F
3804
1C08
0C18
0E10
0620
0340
03C0
01C0
02C0
0660
0470
0830
1038
3018
601C
F87F
ENDCHAR
STARTCHAR uni1E8D
ENCODING 7821
SWIDTH 557 0
DWIDTH 13 0
BBX 13 16 0 0
BITMAP
18C0
18C0
0000
FC78
7030
3860
1840
0C80
0F00
0700
0780
0980
10C0
20E0
6070
F1F8
ENDCHAR
STARTCHAR uni1E8E
ENCODING 7822
SWIDTH 678 0
DWIDTH 16 0
BBX 16 20 0 0
BITMAP
0180
0180
0000
FE1F
3806
180C
1C08
0C10
0610
0720
0340
01C0
0180
0180
0180
0180
0180
0180
0180
07E0
ENDCHAR
STARTCHAR uni1E8F
ENCODING 7823
SWIDTH 551 0
DWIDTH 13 0
BBX 13 21 0 -5
BITMAP
0600
0600
0000
FC78
7010
3010
3020
1820
1840
1C40
0CC0
0C80
0680
0700
0700
0200
0200
0600
0C00
1C00
3800
ENDCHAR
STARTCHAR uni1E90
ENCODING 7824
SWIDTH 633 0
DWIDTH 15 0
BBX 12 21 1 0
BITMAP
0F00
1980
30C0
0000
FFF0
C070
80E0
80C0
01C0
0180
0300
0700
0600
0C00
1C00
1800
3000
7000
6010
E030
FFF0
ENDCHAR
STARTCHAR uni1E91
ENCODING 7825
SWIDTH 595 0
DWIDTH 14 0
BBX 11 17 2 0
BITMAP
0F00
1980
30C0
0000
FFE0
80C0
81C0
0380
0300
0600
0E00
1C00
1800
3000
7020
E020
FFE0
ENDCHAR
STARTCHAR uni1E92
ENCODING 7826
SWIDTH 633 0
DWIDTH 15 0
BBX 12 20 1 -3
BITMAP
FFF0
C070
80E0
80C0
01C0
0180
0300
0700
0600
0C00
1C00
1800
3000
7000
6010
E030
FFF0
0000
0C00
0C00
ENDCHAR
STARTCHAR uni1E93
ENCODING 7827
SWIDTH 595 0
DWIDTH 14 0
BBX 11 16 2 -3
BITMAP
FFE0
80C0
81C0
0380
0300
0600
0E00
1C00
1800
3000
7020
E020
FFE0
0000
0C00
0C00
ENDCHAR
STARTCHAR uni1E94
ENCODING 7828
SWIDTH 633 0
DWIDTH 15 0
BBX 12 19 1 -2
BITMAP
FFF0
C070
80E0
80C0
01C0
0180
0300
0700
0600
0C00
1C00
1800
3000
7000
6010
E030
FFF0
0000
3F80
ENDCHAR
STARTCHAR uni1E95
ENCODING 7829
SWIDTH 595 0
DWIDTH 14 0
BBX 11 15 2 -2
BITMAP
FFE0
80C0
81C0
0380
0300
0600
0E00
1C00
1800
3000
7020
E020
FFE0
0000
7F00
ENDCHAR
STARTCHAR uni1E96
ENCODING 7830
SWIDTH 633 0
DWIDTH 15 0
BBX 14 19 1 -2
BITMAP
F000
3000
3000
3000
33C0
3460
3830
3030
3030
3030
3030
3030
3030
3030
3030
3030
FCFC
0000
0FE0
ENDCHAR
STARTCHAR uni1E97
ENCODING 7831
SWIDTH 392 0
DWIDTH 9 0
BBX 8 19 1 0
BITMAP
C6
C6
00
30
30
30
FF
30
30
30
30
30
30
30
30
30
30
38
1F
ENDCHAR
STARTCHAR uni1E98
ENCODING 7832
SWIDTH 795 0
DWIDTH 19 0
BBX 19 17 0 0
BITMAP
00C000
012000
00C000
000000
FC41E0
706040
306040
30F080
30B080
39B180
191900
191900
1E1E00
0E0E00
0E0E00
0C0400
040400
ENDCHAR
STARTCHAR uni1E99
ENCODING 7833
SWIDTH 551 0
DWIDTH 13 0
BBX 13 22 0 -5
BITMAP
0600
0900
0600
0000
FC78
7010
3010
3020
1820
1840
1C40
0CC0
0C80
0680
0700
0700
0200
0200
0600
0C00
1C00
3800
ENDCHAR
STARTCHAR uni1EA0
ENCODING 7840
SWIDTH 744 0
DWIDTH 18 0
BBX 18 20 0 -3
BITMAP
008000
00C000
00C000
01E000
016000
026000
023000
043000
041800
081800
081C00
0FFC00
100E00
100600
200600
600700
F80FC0
000000
006000
006000
ENDCHAR
STARTCHAR uni1EA1
ENCODING 7841
SWIDTH 543 0
DWIDTH 13 0
BBX 12 16 1 -3
BITMAP
3F00
6180
40C0
00C0
00C0
1FC0
70C0
E0C0
C0C0
C0C0
C0C0
61C0
3E70
0000
0600
0600
ENDCHAR
STARTCHAR uni1EA4
ENCODING 7844
SWIDTH 744 0
DWIDTH 18 0
BBX 18 25 0 0
BITMAP
007000
00C000
018000
000000
01E000
033000
061800
000000
008000
00C000
00C000
01E000
016000
026000
023000
043000
041800
081800
081C00
0FFC00
100E00
100600
200600
600700
F80FC0
ENDCHAR
STARTCHAR uni1EA5
ENCODING 7845
SWIDTH 543 0
DWIDTH 13 0
BBX 12 21 1 0
BITMAP
0380
0600
0C00
0000
0F00
1980
30C0
0000
3F00
6180
40C0
00C0
00C0
1FC0
70C0
E0C0
C0C0
C0C0
C0C0
61C0
3E70
ENDCHAR
STARTCHAR uni1EA6
ENCODING 7846
SWIDTH 744 0
DWIDTH 18 0
BBX 18 25 0 0
BITMAP
070000
018000
00C000
000000
01E000
033000
061800
000000
008000
00C000
00C000
01E000
016000
026000
023000
043000
041800
081800
081C00
0FFC00
100E00
100600
200600
600700
F80FC0
ENDCHAR
STARTCHAR uni1EA7
ENCODING 7847
SWIDTH 543 0
DWIDTH 13 0
BBX 12 21 1 0
BITMAP
3800
0C00
0600
0000
0F00
1980
30C0
0000
3F00
6180
40C0
00C0
00C0
1FC0
70C0
E0C0
C0C0
C0C0
C0C0
61C0
3E70
ENDCHAR
STARTCHAR uni1EAA
ENCODING 7850
SWIDTH 744 0
DWIDTH 18 0
BBX 18 24 0 0
BITMAP
03C800
04F000
000000
01E000
033000
061800
000000
008000
00C000
00C000
01E000
016000
026000
023000
043000
041800
081800
081C00
0FFC00
100E00
100600
200600
600700
F80FC0
ENDCHAR
STARTCHAR uni1EAB
ENCODING 7851
SWIDTH 543 0
DWIDTH 13 0
BBX 12 20 1 0
BITMAP
1E40
2780
0000
0F00
1980
30C0
0000
3F00
6180
40C0
00C0
00C0
1FC0
70C0
E0C0
C0C0
C0C0
C0C0
61C0
3E70
ENDCHAR
STARTCHAR uni1EAC
ENCODING 7852
SWIDTH 744 0
DWIDTH 18 0
BBX 18 24 0 -3
BITMAP
01E000
033000
061800
000000
008000
00C000
00C000
01E000
016000
026000
023000
043000
041800
081800
081C00
0FFC00
100E00
100600
200600
600700
F80FC0
000000
006000
006000
ENDCHAR
STARTCHAR uni1EAD
ENCODING 7853
SWIDTH 543 0
DWIDTH 13 0
BBX 12 20 1 -3
BITMAP
0F00
1980
30C0
0000
3F00
6180
40C0
00C0
00C0
1FC0
70C0
E0C0
C0C0
C0C0
C0C0
61C0
3E70
0000
0600
0600
ENDCHAR
STARTCHAR uni1EAE
ENCODING 7854
SWIDTH 744 0
DWIDTH 18 0
BBX 18 25 0 0
BITMAP
007000
00C000
018000
000000
040800
03F000
01E000
000000
008000
00C000
00C000
01E000
016000
026000
023000
043000
041800
081800
081C00
0FFC00
100E00
100600
200600
600700
F80FC0
ENDCHAR
STARTCHAR uni1EAF
ENCODING 7855
SWIDTH 543 0
DWIDTH 13 0
BBX 12 21 1 0
BITMAP
0380
0600
0C00
0000
2040
1F80
0F00
0000
3F00
6180
40C0
00C0
00C0
1FC0
70C0
E0C0
C0C0
C0C0
C0C0
61C0
3E70
ENDCHAR
STARTCHAR uni1EB0
ENCODING 7856
SWIDTH 744 0
DWIDTH 18 0
BBX 18 25 0 0
BITMAP
070000
018000
00C000
000000
040800
03F000
01E000
000000
008000
00C000
00C000
01E000
016000
026000
023000
043000
041800
081800
081C00
0FFC00
100E00
100600
200600
600700
F80FC0
ENDCHAR
STARTCHAR uni1EB1
ENCODING 7857
SWIDTH 543 0
DWIDTH 13 0
BBX 12 21 1 0
BITMAP
3800
0C00
0600
0000
2040
1F80
0F00
0000
3F00
6180
40C0
00C0
00C0
1FC0
70C0
E0C0
C0C0
C0C0
C0C0
61C0
3E70
ENDCHAR
STARTCHAR uni1EB4
ENCODING 7860
SWIDTH 744 0
DWIDTH 18 0
BBX 18 24 0 0
BITMAP
03C800
04F000
000000
040800
03F000
01E000
000000
008000
00C000
00C000
01E000
016000
026000
023000
043000
041800
081800
081C00
0FFC00
100E00
100600
200600
600700
F80FC0
ENDCHAR
STARTCHAR uni1EB5
ENCODING 7861
SWIDTH 543 0
DWIDTH 13 0
BBX 12 20 1 0
BITMAP
1E40
2780
0000
2040
1F80
0F00
0000
3F00
6180
40C0
00C0
00C0
1FC0
70C0
E0C0
C0C0
C0C0
C0C0
61C0
3E70
ENDCHAR
STARTCHAR uni1EB6
ENCODING 7862
SWIDTH 744 0
DWIDTH 18 0
BBX 18 24 0 -3
BITMAP
040800
03F000
01E000
000000
008000
00C000
00C000
01E000
016000
026000
023000
043000
041800
081800
081C00
0FFC00
100E00
100600
200600
600700
F80FC0
000000
006000
006000
ENDCHAR
STARTCHAR uni1EB7
ENCODING 7863
SWIDTH 543 0
DWIDTH 13 0
BBX 12 20 1 -3
BITMAP
2040
1F80
0F00
0000
3F00
6180
40C0
00C0
00C0
1FC0
70C0
E0C0
C0C0
C0C0
C0C0
61C0
3E70
0000
0600
0600
ENDCHAR
STARTCHAR uni1EB8
ENCODING 7864
SWIDTH 566 0
DWIDTH 14 0
BBX 12 20 1 -3
BITMAP
FFE0
3020
3020
3000
3000
3000
3000
3040
3FC0
3040
3000
3000
3000
3000
3010
3010
FFF0
0000
0600
0600
ENDCHAR
STARTCHAR uni1EB9
ENCODING 7865
SWIDTH 530 0
DWIDTH 13 0
BBX 10 16 1 -3
BITMAP
1E00
3180
6080
40C0
C0C0
FFC0
C000
C000
C000
6000
6000
3040
0F80
0000
0C00
0C00
ENDCHAR
STARTCHAR uni1EBC
ENCODING 7868
SWIDTH 566 0
DWIDTH 14 0
BBX 12 20 1 0
BITMAP
3C80
4F00
0000
FFE0
3020
3020
3000
3000
3000
3000
3040
3FC0
3040
3000
3000
3000
3000
3010
3010
FFF0
ENDCHAR
STARTCHAR uni1EBD
ENCODING 7869
SWIDTH 530 0
DWIDTH 13 0
BBX 10 16 1 0
BITMAP
3C80
4F00
0000
1E00
3180
6080
40C0
C0C0
FFC0
C000
C000
C000
6000
6000
3040
0F80
ENDCHAR
STARTCHAR uni1EBE
ENCODING 7870
SWIDTH 566 0
DWIDTH 14 0
BBX 12 25 1 0
BITMAP
0380
0600
0C00
0000
0F00
1980
30C0
0000
FFE0
3020
3020
3000
3000
3000
3000
3040
3FC0
3040
3000
3000
3000
3000
3010
3010
FFF0
ENDCHAR
STARTCHAR uni1EBF
ENCODING 7871
SWIDTH 530 0
DWIDTH 13 0
BBX 10 21 1 0
BITMAP
0380
0600
0C00
0000
1E00
3300
6180
0000
1E00
3180
6080
40C0
C0C0
FFC0
C000
C000
C000
6000
6000
3040
0F80
ENDCHAR
STARTCHAR uni1EC0
ENCODING 7872
SWIDTH 566 0
DWIDTH 14 0
BBX 12 25 1 0
BITMAP
3800
0C00
0600
0000
0F00
1980
30C0
0000
FFE0
3020
3020
3000
3000
3000
3000
3040
3FC0
3040
3000
3000
3000
3000
3010
3010
FFF0
ENDCHAR
STARTCHAR uni1EC1
ENCODING 7873
SWIDTH 530 0
DWIDTH 13 0
BBX 10 21 1 0
BITMAP
3800
0C00
0600
0000
1E00
3300
6180
0000
1E00
3180
6080
40C0
C0C0
FFC0
C000
C000
C000
6000
6000
3040
0F80
ENDCHAR
STARTCHAR uni1EC4
ENCODING 7876
SWIDTH 566 0
DWIDTH 14 0
BBX 12 24 1 0
BITMAP
1E40
2780
0000
0F00
1980
30C0
0000
FFE0
3020
3020
3000
3000
3000
3000
3040
3FC0
3040
3000
3000
3000
3000
3010
3010
FFF0
ENDCHAR
STARTCHAR uni1EC5
ENCODING 7877
SWIDTH 530 0
DWIDTH 13 0
BBX 10 20 1 0
BITMAP
3C80
4F00
0000
1E00
3300
6180
0000
1E00
3180
6080
40C0
C0C0
FFC0
C000
C000
C000
6000
6000
3040
0F80
ENDCHAR
STARTCHAR uni1EC6
ENCODING 7878
SWIDTH 566 0
DWIDTH 14 0
BBX 12 24 1 -3
BITMAP
1E00
3300
6180
0000
FFE0
3020
3020
3000
3000
3000
3000
3040
3FC0
3040
3000
3000
3000
3000
3010
3010
FFF0
0000
0600
0600
ENDCHAR
STARTCHAR uni1EC7
ENCODING 7879
SWIDTH 530 0
DWIDTH 13 0
BBX 10 20 1 -3
BITMAP
1E00
3300
6180
0000
1E00
3180
6080
40C0
C0C0
FFC0
C000
C000
C000
6000
6000
3040
0F80
0000
0C00
0C00
ENDCHAR
STARTCHAR uni1ECA
ENCODING 7882
SWIDTH 325 0
DWIDTH 8 0
BBX 6 20 1 -3
BITMAP
FC
30
30
30
30
30
30
30
30
30
30
30
30
30
30
30
FC
00
30
30
ENDCHAR
STARTCHAR uni1ECB
ENCODING 7883
SWIDTH 307 0
DWIDTH 7 0
BBX 6 20 1 -3
BITMAP
30
30
00
00
F0
30
30
30
30
30
30
30
30
30
30
30
FC
00
30
30
ENDCHAR
STARTCHAR uni1ECC
ENCODING 7884
SWIDTH 777 0
DWIDTH 19 0
BBX 16 20 1 -3
BITMAP
07E0
1C38
300C
6006
6006
C003
C003
C003
C003
C003
C003
C003
6006
6006
300C
1818
07E0
0000
0180
0180
ENDCHAR
STARTCHAR uni1ECD
ENCODING 7885
SWIDTH 602 0
DWIDTH 14 0
BBX 12 16 1 -3
BITMAP
1F80
30C0
6060
6060
C030
C030
C030
C030
C030
6060
6060
30C0
1F80
0000
0600
0600
ENDCHAR
STARTCHAR uni1ED0
ENCODING 7888
SWIDTH 777 0
DWIDTH 19 0
BBX 16 25 1 0
BITMAP
0070
00C0
0180
0000
03C0
0660
0C30
0000
07E0
1C38
300C
6006
6006
C003
C003
C003
C003
C003
C003
C003
6006
6006
300C
1818
07E0
ENDCHAR
STARTCHAR uni1ED1
ENCODING 7889
SWIDTH 602 0
DWIDTH 14 0
BBX 12 21 1 0
BITMAP
01C0
0300
0600
0000
0F00
1980
30C0
0000
1F80
30C0
6060
6060
C030
C030
C030
C030
C030
6060
6060
30C0
1F80
ENDCHAR
STARTCHAR uni1ED2
ENCODING 7890
SWIDTH 777 0
DWIDTH 19 0
BBX 16 25 1 0
BITMAP
0700
0180
00C0
0000
03C0
0660
0C30
0000
07E0
1C38
300C
6006
6006
C003
C003
C003
C003
C003
C003
C003
6006
6006
300C
1818
07E0
ENDCHAR
STARTCHAR uni1ED3
ENCODING 7891
SWIDTH 602 0
DWIDTH 14 0
BBX 12 21 1 0
BITMAP
1C00
0600
0300
0000
0F00
1980
30C0
0000
1F80
30C0
6060
6060
C030
C030
C030
C030
C030
6060
6060
30C0
1F80
ENDCHAR
STARTCHAR uni1ED6
ENCODING 7894
SWIDTH 777 0
DWIDTH 19 0
BBX 16 24 1 0
BITMAP
0790
09E0
0000
03C0
0660
0C30
0000
07E0
1C38
300C
6006
6006
C003
C003
C003
C003
C003
C003
C003
6006
6006
300C
1818
07E0
ENDCHAR
STARTCHAR uni1ED7
ENCODING 7895
SWIDTH 602 0
DWIDTH 14 0
BBX 12 20 1 0
BITMAP
1E40
2780
0000
0F00
1980
30C0
0000
1F80
30C0
6060
6060
C030
C030
C030
C030
C030
6060
6060
30C0
1F80
ENDCHAR
STARTCHAR uni1ED8
ENCODING 7896
SWIDTH 777 0
DWIDTH 19 0
BBX 16 24 1 -3
BITMAP
03C0
0660
0C30
0000
07E0
1C38
300C
6006
6006
C003
C003
C003
C003
C003
C003
C003
6006
6006
300C
1818
07E0
0000
0180
0180
ENDCHAR
STARTCHAR uni1ED9
ENCODING 7897
SWIDTH 602 0
DWIDTH 14 0
BBX 12 20 1 -3
BITMAP
0F00
1980
30C0
0000
1F80
30C0
6060
6060
C030
C030
C030
C030
C030
6060
6060
30C0
1F80
0000
0600
0600
ENDCHAR
STARTCHAR uni1EDA
ENCODING 7898
SWIDTH 777 0
DWIDTH 19 0
BBX 18 21 1 0
BITMAP
001C00
003000
006000
000000
07E1C0
1C39C0
300CC0
600640
600780
C00300
C00300
C00300
C00300
C00300
C00300
C00300
600600
600600
300C00
181800
07E000
ENDCHAR
STARTCHAR uni1EDB
ENCODING 7899
SWIDTH 602 0
DWIDTH 14 0
BBX 14 17 1 0
BITMAP
00E0
0180
0300
0000
1F9C
30DC
606C
6064
C038
C030
C030
C030
C030
6060
6060
30C0
1F80
ENDCHAR
STARTCHAR uni1EDC
ENCODING 7900
SWIDTH 777 0
DWIDTH 19 0
BBX 18 21 1 0
BITMAP
01C000
006000
003000
000000
07E1C0
1C39C0
300CC0
600640
600780
C00300
C00300
C00300
C00300
C00300
C00300
C00300
600600
600600
300C00
181800
07E000
ENDCHAR
STARTCHAR uni1EDD
ENCODING 7901
SWIDTH 602 0
DWIDTH 14 0
BBX 14 17 1 0
BITMAP
0E00
0300
0180
0000
1F9C
30DC
606C
6064
C038
C030
C030
C030
C030
6060
6060
30C0
1F80
ENDCHAR
STARTCHAR uni1EE0
ENCODING 7904
SWIDTH 777 0
DWIDTH 19 0
BBX 18 20 1 0
BITMAP
01E400
027800
000000
07E1C0
1C39C0
300CC0
600640
600780
C00300
C00300
C00300
C00300
C00300
C00300
C00300
600600
600600
300C00
181800
07E000
ENDCHAR
STARTCHAR uni1EE1
ENCODING 7905
SWIDTH 602 0
DWIDTH 14 0
BBX 14 16 1 0
BITMAP
0790
09E0
0000
1F9C
30DC
606C
6064
C038
C030
C030
C030
C030
6060
6060
30C0
1F80
ENDCHAR
STARTCHAR uni1EE2
ENCODING 7906
SWIDTH 777 0
DWIDTH 19 0
BBX 18 20 1 -3
BITMAP
07E1C0
1C39C0
300CC0
600640
600780
C00300
C00300
C00300
C00300
C00300
C00300
C00300
600600
600600
300C00
181800
07E000
000000
018000
018000
ENDCHAR
STARTCHAR uni1EE3
ENCODING 7907
SWIDTH 602 0
DWIDTH 14 0
BBX 14 16 1 -3
BITMAP
1F9C
30DC
606C
6064
C038
C030
C030
C030
C030
6060
6060
30C0
1F80
0000
0600
0600
ENDCHAR
STARTCHAR uni1EE4
ENCODING 7908
SWIDTH 719 0
DWIDTH 17 0
BBX 16 20 1 -3
BITMAP
FC1F
3004
3004
3004
3004
3004
3004
3004
3004
3004
3004
3004
3004
3004
1808
1C18
07E0
0000
0180
0180
ENDCHAR
STARTCHAR uni1EE5
ENCODING 7909
SWIDTH 633 0
DWIDTH 15 0
BBX 14 16 0 -3
BITMAP
F0F0
3030
3030
3030
3030
3030
3030
3030
3030
3030
3030
18F0
0F3C
0000
0180
0180
ENDCHAR
STARTCHAR uni1EE8
ENCODING 7912
SWIDTH 719 0
DWIDTH 17 0
BBX 18 21 1 0
BITMAP
003800
006000
00C000
000000
FC1FC0
3005C0
3004C0
300440
300580
300500
300400
300400
300400
300400
300400
300400
300400
300400
180800
1C1800
07E000
ENDCHAR
STARTCHAR uni1EE9
ENCODING 7913
SWIDTH 633 0
DWIDTH 15 0
BBX 16 17 0 0
BITMAP
0070
00C0
0180
0000
F0F7
3037
3033
3031
3036
3034
3030
3030
3030
3030
3030
18F0
0F3C
ENDCHAR
STARTCHAR uni1EEA
ENCODING 7914
SWIDTH 719 0
DWIDTH 17 0
BBX 18 21 1 0
BITMAP
038000
00C000
006000
000000
FC1FC0
3005C0
3004C0
300440
300580
300500
300400
300400
300400
300400
300400
300400
300400
300400
180800
1C1800
07E000
ENDCHAR
STARTCHAR uni1EEB
ENCODING 7915
SWIDTH 633 0
DWIDTH 15 0
BBX 16 17 0 0
BITMAP
0700
0180
00C0
0000
F0F7
3037
3033
3031
3036
3034
3030
3030
3030
3030
3030
18F0
0F3C
ENDCHAR
STARTCHAR uni1EEE
ENCODING 7918
SWIDTH 719 0
DWIDTH 17 0
BBX 18 20 1 0
BITMAP
01E400
027800
000000
FC1FC0
3005C0
3004C0
300440
300580
300500
300400
300400
300400
300400
300400
300400
300400
300400
180800
1C1800
07E000
ENDCHAR
STARTCHAR uni1EEF
ENCODING 7919
SWIDTH 633 0
DWIDTH 15 0
BBX 16 16 0 0
BITMAP
03C8
04F0
0000
F0F7
3037
3033
3031
3036
3034
3030
3030
3030
3030
3030
18F0
0F3C
ENDCHAR
STARTCHAR uni1EF0
ENCODING 7920
SWIDTH 719 0
DWIDTH 17 0
BBX 18 20 1 -3
BITMAP
FC1FC0
3005C0
3004C0
300440
300580
300500
300400
300400
300400
300400
300400
300400
300400
300400
180800
1C1800
07E000
000000
018000
018000
ENDCHAR
STARTCHAR uni1EF1
ENCODING 7921
SWIDTH 633 0
DWIDTH 15 0
BBX 16 16 0 -3
BITMAP
F0F7
3037
3033
3031
3036
3034
3030
3030
3030
3030
3030
18F0
0F3C
0000
0180
0180
ENDCHAR
STARTCHAR Ygrave
ENCODING 7922
SWIDTH 678 0
DWIDTH 16 0
BBX 16 21 0 0
BITMAP
0E00
0300
0180
0000
FE1F
3806
180C
1C08
0C10
0610
0720
0340
01C0
0180
0180
0180
0180
0180
0180
0180
07E0
ENDCHAR
STARTCHAR ygrave
ENCODING 7923
SWIDTH 551 0
DWIDTH 13 0
BBX 13 22 0 -5
BITMAP
1C00
0600
0300
0000
FC78
7010
3010
3020
1820
1840
1C40
0CC0
0C80
0680
0700
0700
0200
0200
0600
0C00
1C00
3800
ENDCHAR
STARTCHAR uni1EF4
ENCODING 7924
SWIDTH 678 0
DWIDTH 16 0
BBX 16 20 0 -3
BITMAP
FE1F
3806
180C
1C08
0C10
0610
0720
0340
01C0
0180
0180
0180
0180
0180
0180
0180
07E0
0000
0180
0180
ENDCHAR
STARTCHAR uni1EF5
ENCODING 7925
SWIDTH 551 0
DWIDTH 13 0
BBX 13 21 0 -8
BITMAP
FC78
7010
3010
3020
1820
1840
1C40
0CC0
0C80
0680
0700
0700
0200
0200
0600
0C00
1C00
3800
0000
0C00
0C00
ENDCHAR
STARTCHAR uni1EF8
ENCODING 7928
SWIDTH 678 0
DWIDTH 16 0
BBX 16 20 0 0
BITMAP
0790
09E0
0000
FE1F
3806
180C
1C08
0C10
0610
0720
0340
01C0
0180
0180
0180
0180
0180
0180
0180
07E0
ENDCHAR
STARTCHAR uni1EF9
ENCODING 7929
SWIDTH 551 0
DWIDTH 13 0
BBX 13 21 0 -5
BITMAP
1E40
2780
0000
FC78
7010
3010
3020
1820
1840
1C40
0CC0
0C80
0680
0700
0700
0200
0200
0600
0C00
1C00
3800
ENDCHAR
STARTCHAR uni2000
ENCODING 8192
SWIDTH 500 0
DWIDTH 13 0
BBX 1 1 0 0
BITMAP
00
ENDCHAR
STARTCHAR uni2001
ENCODING 8193
SWIDTH 1000 0
DWIDTH 25 0
BBX 1 1 0 0
BITMAP
00
ENDCHAR
STARTCHAR uni2002
ENCODING 8194
SWIDTH 500 0
DWIDTH 13 0
BBX 1 1 0 0
BITMAP
00
ENDCHAR
STARTCHAR uni2003
ENCODING 8195
SWIDTH 1000 0
DWIDTH 25 0
BBX 1 1 0 0
BITMAP
00
ENDCHAR
STARTCHAR uni2004
ENCODING 8196
SWIDTH 333 0
DWIDTH 8 0
BBX 1 1 0 0
BITMAP
00
ENDCHAR
STARTCHAR uni2005
ENCODING 8197
SWIDTH 250 0
DWIDTH 6 0
BBX 1 1 0 0
BITMAP
00
ENDCHAR
STARTCHAR uni2006
ENCODING 8198
SWIDTH 167 0
DWIDTH 4 0
BBX 1 1 0 0
BITMAP
00
ENDCHAR
STARTCHAR uni2007
ENCODING 8199
SWIDTH 608 0
DWIDTH 15 0
BBX 1 1 0 0
BITMAP
00
ENDCHAR
STARTCHAR uni2008
ENCODING 8200
SWIDTH 265 0
DWIDTH 6 0
BBX 1 1 0 0
BITMAP
00
ENDCHAR
STARTCHAR uni2009
ENCODING 8201
SWIDTH 200 0
DWIDTH 5 0
BBX 1 1 0 0
BITMAP
00
ENDCHAR
STARTCHAR uni200A
ENCODING 8202
SWIDTH 100 0
DWIDTH 3 0
BBX 1 1 0 0
BITMAP
00
ENDCHAR
STARTCHAR uni200B
ENCODING 8203
SWIDTH 0 0
DWIDTH 0 0
BBX 1 1 0 0
BITMAP
00
ENDCHAR
STARTCHAR uni2010
ENCODING 8208
SWIDTH 325 0
DWIDTH 8 0
BBX 5 1 1 8
BITMAP
F8
ENDCHAR
STARTCHAR uni2011
ENCODING 8209
SWIDTH 325 0
DWIDTH 8 0
BBX 5 1 1 8
BITMAP
F8
ENDCHAR
STARTCHAR figuredash
ENCODING 8210
SWIDTH 500 0
DWIDTH 12 0
BBX 10 1 1 8
BITMAP
FFC0
ENDCHAR
STARTCHAR endash
ENCODING 8211
SWIDTH 500 0
DWIDTH 12 0
BBX 10 1 1 8
BITMAP
FFC0
ENDCHAR
STARTCHAR emdash
ENCODING 8212
SWIDTH 1000 0
DWIDTH 24 0
BBX 21 1 2 7
BITMAP
FFFFF8
ENDCHAR
STARTCHAR afii00208
ENCODING 8213
SWIDTH 1000 0
DWIDTH 24 0
BBX 21 1 2 7
BITMAP
FFFFF8
ENDCHAR
STARTCHAR quoteleft
ENCODING 8216
SWIDTH 265 0
DWIDTH 6 0
BBX 2 6 2 11
BITMAP
40
80
80
80
C0
C0
ENDCHAR
STARTCHAR quoteright
ENCODING 8217
SWIDTH 265 0
DWIDTH 6 0
BBX 3 6 2 11
BITMAP
E0
E0
60
20
C0
80
ENDCHAR
STARTCHAR quotesinglbase
ENCODING 8218
SWIDTH 265 0
DWIDTH 6 0
BBX 3 9 2 -5
BITMAP
E0
E0
E0
E0
60
20
20
40
C0
ENDCHAR
STARTCHAR quotereversed
ENCODING 8219
SWIDTH 265 0
DWIDTH 6 0
BBX 3 6 2 11
BITMAP
E0
E0
C0
80
60
20
ENDCHAR
STARTCHAR quotedblleft
ENCODING 8220
SWIDTH 458 0
DWIDTH 11 0
BBX 7 6 2 11
BITMAP
42
84
84
84
C6
C6
ENDCHAR
STARTCHAR quotedblright
ENCODING 8221
SWIDTH 458 0
DWIDTH 11 0
BBX 7 6 2 11
BITMAP
C6
C6
42
42
C6
84
ENDCHAR
STARTCHAR quotedblbase
ENCODING 8222
SWIDTH 458 0
DWIDTH 11 0
BBX 7 9 2 -5
BITMAP
C6
C6
42
42
42
42
42
42
84
ENDCHAR
STARTCHAR uni201F
ENCODING 8223
SWIDTH 458 0
DWIDTH 11 0
BBX 7 6 2 11
BITMAP
C6
C6
84
84
C6
42
ENDCHAR
STARTCHAR dagger
ENCODING 8224
SWIDTH 608 0
DWIDTH 15 0
BBX 10 21 2 -4
BITMAP
1800
1800
1800
1800
0800
0800
0800
FFC0
0800
0800
0800
0800
0800
0800
1800
1800
1800
1800
1800
1800
1800
ENDCHAR
STARTCHAR daggerdbl
ENCODING 8225
SWIDTH 608 0
DWIDTH 15 0
BBX 10 21 2 -4
BITMAP
1800
1800
1800
0800
0800
0800
FFC0
0800
0800
0800
0800
0800
0800
3F00
C9C0
0800
0800
1800
1800
1800
1800
ENDCHAR
STARTCHAR bullet
ENCODING 8226
SWIDTH 608 0
DWIDTH 15 0
BBX 8 7 3 4
BITMAP
3C
7E
FF
FF
FF
7E
3C
ENDCHAR
STARTCHAR ellipsis
ENCODING 8230
SWIDTH 1000 0
DWIDTH 24 0
BBX 15 2 5 0
BITMAP
C186
C186
ENDCHAR
STARTCHAR perthousand
ENCODING 8240
SWIDTH 1024 0
DWIDTH 25 0
BBX 23 17 1 0
BITMAP
380600
440C00
820800
821000
822000
824000
44C000
388000
013838
024444
068282
048282
088282
108282
208282
604444
C03838
ENDCHAR
STARTCHAR guilsinglleft
ENCODING 8249
SWIDTH 339 0
DWIDTH 8 0
BBX 6 11 1 1
BITMAP
04
08
18
30
60
E0
60
30
10
08
04
ENDCHAR
STARTCHAR guilsinglright
ENCODING 8250
SWIDTH 339 0
DWIDTH 8 0
BBX 6 11 1 1
BITMAP
80
40
20
30
18
1C
18
30
60
40
80
ENDCHAR
STARTCHAR fraction
ENCODING 8260
SWIDTH 36 0
DWIDTH 1 0
BBX 15 17 -6 0
BITMAP
0006
000C
0008
0010
0020
0040
00C0
0080
0100
0200
0600
0C00
0800
1000
2000
6000
C000
ENDCHAR
STARTCHAR oneinferior
ENCODING 8321
SWIDTH 365 0
DWIDTH 9 0
BBX 5 10 -15 -6
BITMAP
E0
20
20
20
20
20
20
20
20
F8
ENDCHAR
STARTCHAR twoinferior
ENCODING 8322
SWIDTH 365 0
DWIDTH 9 0
BBX 6 10 -14 -6
BITMAP
78
8C
84
04
0C
18
20
40
80
FC
ENDCHAR
STARTCHAR threeinferior
ENCODING 8323
SWIDTH 365 0
DWIDTH 9 0
BBX 6 10 -14 -6
BITMAP
F8
84
84
04
78
0C
04
84
8C
F8
ENDCHAR
STARTCHAR uni20A5
ENCODING 8357
SWIDTH 946 0
DWIDTH 23 0
BBX 22 21 1 -4
BITMAP
000180
000100
000300
000200
F3E7C0
347460
383C30
303830
303830
303030
303030
303030
307030
307030
30F030
30B030
FDFCFC
010000
030000
020000
060000
ENDCHAR
STARTCHAR uni20A6
ENCODING 8358
SWIDTH 751 0
DWIDTH 18 0
BBX 17 17 1 0
BITMAP
F00F80
380200
3C0200
2C0200
2E0200
3FFF00
238200
218200
20C200
20E200
3FFF00
203200
201A00
200E00
200E00
200600
F80200
ENDCHAR
STARTCHAR uni20A9
ENCODING 8361
SWIDTH 925 0
DWIDTH 22 0
BBX 22 17 0 0
BITMAP
FC107C
703018
303010
303810
183820
1FFFE0
185C20
184C40
0C8C40
0C8C40
0FFFC0
070680
070680
070380
060300
020300
020100
ENDCHAR
STARTCHAR Euro
ENCODING 8364
SWIDTH 695 0
DWIDTH 17 0
BBX 18 17 -3 0
BITMAP
007F80
01C1C0
030040
060040
060000
FFFC00
0C0000
0C0000
0C0000
0C0000
FFFC00
0C0000
060000
060000
030000
01C040
007F80
ENDCHAR
STARTCHAR uni20AD
ENCODING 8365
SWIDTH 708 0
DWIDTH 17 0
BBX 16 17 1 0
BITMAP
FC7E
3018
3030
3040
3080
3100
3200
3400
FFFF
3700
3380
31C0
30E0
3070
3038
301C
FC7F
ENDCHAR
STARTCHAR uni2103
ENCODING 8451
SWIDTH 941 0
DWIDTH 23 0
BBX 20 17 1 0
BITMAP
601FE0
907070
90C010
618010
018000
030000
030000
030000
030000
030000
030000
030000
018000
018000
00C000
007010
001FE0
ENDCHAR
STARTCHAR uni2109
ENCODING 8457
SWIDTH 794 0
DWIDTH 19 0
BBX 17 17 1 0
BITMAP
63FF80
90C080
90C080
60C000
00C000
00C000
00C000
00C100
00FF00
00C100
00C000
00C000
00C000
00C000
00C000
00E000
03F800
ENDCHAR
STARTCHAR trademark
ENCODING 8482
SWIDTH 904 0
DWIDTH 22 0
BBX 19 9 1 8
BITMAP
FEF1E0
927180
107B80
105A80
105A80
104C80
104C80
104C80
38C0E0
ENDCHAR
STARTCHAR uni212A
ENCODING 8490
SWIDTH 708 0
DWIDTH 17 0
BBX 16 17 1 0
BITMAP
FC7E
3018
3030
3040
3080
3100
3200
3400
3E00
3700
3380
31C0
30E0
3070
3038
301C
FC7F
ENDCHAR
STARTCHAR uni212B
ENCODING 8491
SWIDTH 744 0
DWIDTH 18 0
BBX 18 21 0 0
BITMAP
00C000
012000
00C000
000000
008000
00C000
00C000
01E000
016000
026000
023000
043000
041800
081800
081C00
0FFC00
100E00
100600
200600
600700
F80FC0
ENDCHAR
STARTCHAR uni2132
ENCODING 8498
SWIDTH 548 0
DWIDTH 13 0
BBX 11 17 1 0
BITMAP
0FE0
0380
0180
0180
0180
0180
0180
4180
7F80
4180
0180
0180
0180
0180
8180
8180
FFE0
ENDCHAR
STARTCHAR universal
ENCODING 8704
SWIDTH 744 0
DWIDTH 18 0
BBX 18 17 0 0
BITMAP
F80FC0
600700
200600
100600
100E00
0FFC00
081C00
081800
041800
043000
023000
026000
016000
01E000
00C000
00C000
008000
ENDCHAR
STARTCHAR existential
ENCODING 8707
SWIDTH 566 0
DWIDTH 14 0
BBX 12 17 1 0
BITMAP
7FF0
40C0
40C0
00C0
00C0
00C0
00C0
20C0
3FC0
20C0
00C0
00C0
00C0
00C0
80C0
80C0
FFF0
ENDCHAR
STARTCHAR uni2204
ENCODING 8708
SWIDTH 566 0
DWIDTH 14 0
BBX 12 21 1 -2
BITMAP
0030
0020
7FF0
40C0
40C0
00C0
01C0
01C0
03C0
22C0
3FC0
24C0
0CC0
08C0
18C0
10C0
B0C0
A0C0
FFF0
4000
C000
ENDCHAR
STARTCHAR minus
ENCODING 8722
SWIDTH 608 0
DWIDTH 15 0
BBX 14 1 0 7
BITMAP
FFFC
ENDCHAR
STARTCHAR fraction
ENCODING 8725
SWIDTH 36 0
DWIDTH 1 0
BBX 15 17 -6 0
BITMAP
0006
000C
0008
0010
0020
0040
00C0
0080
0100
0200
0600
0C00
0800
1000
2000
6000
C000
ENDCHAR
STARTCHAR periodcentered
ENCODING 8729
SWIDTH 608 0
DWIDTH 15 0
BBX 2 2 6 7
BITMAP
C0
C0
ENDCHAR
STARTCHAR uni2236
ENCODING 8758
SWIDTH 265 0
DWIDTH 6 0
BBX 2 13 2 0
BITMAP
C0
C0
00
00
00
00
00
00
00
00
00
C0
C0
ENDCHAR
STARTCHAR uni2259
ENCODING 8793
SWIDTH 608 0
DWIDTH 15 0
BBX 14 10 0 4
BITMAP
0780
0CC0
1860
0000
FFFC
0000
0000
0000
0000
FFFC
ENDCHAR
STARTCHAR uni225A
ENCODING 8794
SWIDTH 608 0
DWIDTH 15 0
BBX 14 10 0 4
BITMAP
1860
0CC0
0780
0000
FFFC
0000
0000
0000
0000
FFFC
ENDCHAR
STARTCHAR notequal
ENCODING 8800
SWIDTH 608 0
DWIDTH 15 0
BBX 14 21 0 -3
BITMAP
0018
0010
0030
0020
0060
0040
00C0
0080
FFFC
0100
0300
0200
0600
FFFC
0C00
0800
1800
1000
3000
2000
6000
ENDCHAR
STARTCHAR equivalence
ENCODING 8801
SWIDTH 608 0
DWIDTH 15 0
BBX 14 5 0 4
BITMAP
FFFC
0000
FFFC
0000
FFFC
ENDCHAR
STARTCHAR uni2262
ENCODING 8802
SWIDTH 608 0
DWIDTH 15 0
BBX 14 21 0 -4
BITMAP
0018
0010
0030
0020
0060
0040
00C0
0080
FFFC
0100
FFFC
0200
FFFC
0400
0C00
0800
1800
1000
3000
2000
6000
ENDCHAR
STARTCHAR lessequal
ENCODING 8804
SWIDTH 608 0
DWIDTH 15 0
BBX 14 16 0 -2
BITMAP
0004
0018
0070
01C0
0700
1C00
F000
7000
1C00
0700
01C0
0070
001C
0004
0000
FFFC
ENDCHAR
STARTCHAR greaterequal
ENCODING 8805
SWIDTH 608 0
DWIDTH 15 0
BBX 14 16 0 -2
BITMAP
8000
E000
3800
0E00
0380
00E0
0038
003C
00E0
0380
0E00
3800
6000
8000
0000
FFFC
ENDCHAR
STARTCHAR uni226E
ENCODING 8814
SWIDTH 608 0
DWIDTH 15 0
BBX 14 21 0 -3
BITMAP
0018
0010
0030
0020
0064
0058
00F0
01C0
0780
1D00
F300
7200
1E00
0700
0DC0
0870
181C
1004
3000
2000
6000
ENDCHAR
STARTCHAR uni226F
ENCODING 8815
SWIDTH 608 0
DWIDTH 15 0
BBX 14 21 0 -3
BITMAP
0018
0010
0030
0020
8060
E040
38C0
0E80
0380
01E0
0338
023C
06E0
0780
0E00
3800
7800
9000
3000
2000
6000
ENDCHAR
STARTCHAR uni2270
ENCODING 8816
SWIDTH 608 0
DWIDTH 15 0
BBX 14 21 0 -4
BITMAP
0018
0010
0030
0024
0078
0070
01C0
0780
1D80
F100
7300
1E00
0700
05C0
0C70
081C
1804
1000
FFFC
2000
6000
ENDCHAR
STARTCHAR uni2271
ENCODING 8817
SWIDTH 608 0
DWIDTH 15 0
BBX 14 21 0 -4
BITMAP
0018
0010
0030
8020
E060
3840
0EC0
0380
01E0
0138
033C
02E0
0780
0E00
3C00
6800
9800
1000
FFFC
2000
6000
ENDCHAR
STARTCHAR fi
ENCODING -1
SWIDTH 657 0
DWIDTH 16 0
BBX 14 19 1 0
BITMAP
1E00
1100
3130
3130
3000
3000
FFF0
3030
3030
3030
3030
3030
3030
3030
3030
3030
3030
3070
FDFC
ENDCHAR
STARTCHAR fl
ENCODING -1
SWIDTH 663 0
DWIDTH 16 0
BBX 14 19 1 0
BITMAP
0FF0
1870
3030
3030
3030
3030
FF30
3030
3030
3030
3030
3030
3030
3030
3030
3030
3030
3030
FCFC
ENDCHAR
ENDFONT
